/* XPM */
static char *result[] = {
/* columns rows colors chars-per-pixel */
"64 64 256 2 ",
"   c #010200",
".  c #090B01",
"X  c #181701",
"o  c #0A1503",
"O  c #221E01",
"+  c #192B07",
"@  c #1B3909",
"#  c #112D0F",
"$  c #282805",
"%  c #332E01",
"&  c #223C0A",
"*  c #273707",
"=  c #383705",
"-  c #292D11",
";  c #283812",
":  c #333412",
">  c #393B14",
",  c #433D03",
"<  c #423C12",
"1  c #1A4809",
"2  c #1D540C",
"3  c #165219",
"4  c #24430C",
"5  c #2B440D",
"6  c #244B0D",
"7  c #2B4B0E",
"8  c #254207",
"9  c #374807",
"0  c #26560E",
"q  c #395A0C",
"w  c #2B4C12",
"e  c #284613",
"r  c #334C13",
"t  c #384815",
"y  c #245412",
"u  c #2B5413",
"i  c #245C12",
"p  c #2C5B13",
"a  c #2C5C19",
"s  c #335313",
"d  c #335C13",
"f  c #335C19",
"g  c #3B5A15",
"h  c #25680D",
"j  c #2A6414",
"k  c #2C6819",
"l  c #376717",
"z  c #2C7517",
"x  c #32741C",
"c  c #337B1B",
"v  c #367816",
"b  c #35690E",
"n  c #074827",
"m  c #055638",
"M  c #0A542B",
"N  c #31562C",
"B  c #316B21",
"V  c #376A25",
"C  c #387825",
"Z  c #30732D",
"A  c #106931",
"S  c #494706",
"D  c #524C08",
"F  c #47590A",
"G  c #575609",
"H  c #474717",
"J  c #534A17",
"K  c #485817",
"L  c #575716",
"P  c #625A0D",
"I  c #625C17",
"U  c #63461E",
"Y  c #5A650A",
"T  c #466915",
"R  c #586817",
"E  c #497516",
"W  c #567916",
"Q  c #4D6E0A",
"!  c #69650D",
"~  c #777801",
"^  c #686616",
"/  c #736C14",
"(  c #746C18",
")  c #677618",
"_  c #787617",
"`  c #6F6F08",
"'  c #595626",
"]  c #4D552C",
"[  c #685727",
"{  c #6C5328",
"}  c #476529",
"|  c #586622",
" . c #447729",
".. c #446737",
"X. c #477938",
"o. c #56763A",
"O. c #58732C",
"+. c #676629",
"@. c #72712E",
"#. c #0A6A4C",
"$. c #346D51",
"%. c #39706D",
"&. c #195A42",
"*. c #547A48",
"=. c #497350",
"-. c #66714C",
";. c #477C68",
":. c #515B47",
">. c #847C1A",
",. c #917F16",
"<. c #876B3A",
"1. c #867931",
"2. c #977942",
"3. c #987C57",
"4. c #34841A",
"5. c #38891B",
"6. c #3B941E",
"7. c #38991C",
"8. c #2C8D11",
"9. c #36AB18",
"0. c #3B8726",
"q. c #3C9C21",
"w. c #3B9522",
"e. c #3A8537",
"r. c #3CA423",
"t. c #2FB62A",
"y. c #17AD2F",
"u. c #47881C",
"i. c #568717",
"p. c #45981C",
"a. c #529612",
"s. c #788B01",
"d. c #67851B",
"f. c #71900D",
"g. c #46AC18",
"h. c #449925",
"j. c #478637",
"k. c #508C2D",
"l. c #68883B",
"z. c #738C30",
"x. c #45A826",
"c. c #49B629",
"v. c #4AB834",
"b. c #54B737",
"n. c #54AB2C",
"m. c #6DAC34",
"M. c #63A50C",
"N. c #56C837",
"B. c #4CC52E",
"V. c #388F67",
"C. c #3AAF6D",
"Z. c #359D52",
"A. c #588748",
"S. c #5C8754",
"D. c #569250",
"F. c #668C56",
"G. c #689557",
"H. c #708D4F",
"J. c #57AF4C",
"K. c #6DAE53",
"L. c #558B6B",
"P. c #699564",
"I. c #739968",
"U. c #6C906E",
"Y. c #77A26C",
"T. c #6EAD74",
"R. c #4BB173",
"E. c #58CC48",
"W. c #66D648",
"Q. c #6ED550",
"!. c #79E45B",
"~. c #4BC771",
"^. c #75CD6D",
"/. c #3CC43D",
"(. c #8A851B",
"). c #958A1B",
"_. c #98971B",
"`. c #858709",
"'. c #8B8424",
"]. c #958C26",
"[. c #9B9526",
"{. c #919236",
"}. c #A39926",
"|. c #A49B35",
" X c #92AB30",
".X c #ABA22A",
"XX c #ABA437",
"oX c #B6AB38",
"OX c #B7AC32",
"+X c #A2961F",
"@X c #938D4B",
"#X c #AB9152",
"$X c #93AF4B",
"%X c #B1AA4A",
"&X c #8D9470",
"*X c #A69D75",
"=X c #8DB072",
"-X c #AAA675",
";X c #B6A975",
":X c #BAB676",
">X c #ABAF6D",
",X c #CBB772",
"<X c #C2B44D",
"1X c #9CC345",
"2X c #8AD773",
"3X c #B5CD70",
"4X c #A9D85F",
"5X c #D8D575",
"6X c #CBCF72",
"7X c #E8D575",
"8X c #EBD273",
"9X c #DAE878",
"0X c #CBFA7C",
"qX c #CFF077",
"wX c #EFEC79",
"eX c #D1C952",
"rX c #A1BC39",
"tX c #258E82",
"yX c #729685",
"uX c #72AD8B",
"iX c #5CA68E",
"pX c #69CC87",
"aX c #90AE89",
"sX c #AEBBB2",
"dX c #98AB95",
"fX c #96CD8A",
"gX c #ABCF92",
"hX c #B2F590",
"jX c #95CDAC",
"kX c #AFD2AF",
"lX c #B0E3AA",
"zX c #9AE491",
"xX c #C8D998",
"cX c #CAFF84",
"vX c #D3FE88",
"bX c #D0FB98",
"nX c #F2F689",
"mX c #D1F3B4",
"MX c #EDFAB0",
"NX c #D8D79E",
"BX c #B2F4D3",
"VX c #B0DACA",
"CX c #CCD6D3",
"ZX c #D1F3D0",
"AX c #F7FFD7",
"SX c #EEFECF",
"DX c #DBE5E4",
"FX c #D4F9E8",
"GX c #E5ECEB",
"HX c #FAFDE9",
"JX c #E9EDF3",
"KX c #EBF4F3",
"LX c #FEFFFE",
"PX c #F6FAF8",
"IX c #E5FAE6",
"UX c #D4DFE2",
/* pixels */
"T.y.E.ZXJXVXQ.zXkXiXR.KXkX' F H 9 Y / ) $X$X$X1X X+X`.).(.! G G _ d.W O.W l s 6 @ @ @ 1 8 1 1 1 1 2 h z j.j.D.G.X.o.xXSXMXwXnXwX",
"jXy./.ZXJXUXQ.zXDXUXL.iXkX:.= G = Y _ R $X1X1X X X+X).).>.! D = Y d.W d.O.l s 6 & @ @ @ 6 2 1 @ 1 2 k 4.j.j.D.I.F.A.Y.HXMXwXnXwX",
"JXE.y.lXJXGXfX2XGXDXL.Z.Z.$.N @.F.D / R $X1X1X X.X}._.(._ D / ,.S G R d.W T d 6 & * @ 1 2 2 2 1 1 h k Z 0.j.D.Y.I.G.Y.mXNXgX:XNX",
"JXuXt.zXGXDXfXv.2XK.r.q.7.z A.=XT.K G | $X1X1X X X}.).>.P _ oXeX].G F ) d.E d 6 6 & 4 1 0 0 2 1 1 3 k z w.j.G.P.U.aXgXgXxXmXmXZX",
"JXkXt.fXKXZXr.w.9.c.B.c.r.r.e.P.L.} D ^ $X4X1X X+X_.).` ].oX%XXXoXXX^ Y W E d 6 w * 6 6 0 i 2 1 1 2 k z e.j.G.D.&XMXNXNXnXNXMXMX",
"JXVXt.E.JXfX8.q.c.c.9.7.7.8.Z $.=.$.S W $X1X X_._.).>.].|.|.'.>.[.XXXXd.K E g u 7 * 6 6 0 h 2 2 2 2 k z 0.j.G.S.>XNXNXNX8X,X,X;X",
"DXkXy.E.DXJ.8.6.9.7.4.i c 1 N L.$.$.S ) $X1X1Xm.f.>.>.'.(.>.P P _ [..Xz.W q b u 7 5 7 0 h i 0 2 2 3 h z 0.j.G.G.A.xXNX8X8X,X3.,X",
"GXkXt.~.CXc.8.0.r.z 1 X.=.* 7 V.V.$.D O. X$X X(./ P ! >.>.>.>./ G ^ (.z.d.E q s u 7 6 7 p i 0 2 2 2 h c 0.j.G.P...gX8X8X,XdX,X,X",
"UXVXt.~.fX9.v.fXe.e.A t N &.l Z pXJ.Y | m.$X X` ^ ,.>./ ].oXoXoX[.( ^ _ d.i.T p q 9 6 u p 0 i 2 1 2 j z c j.G.I...@X8X8X,X;X5X,X",
"UXCXJ.E.J.9.!.lX~.~.C.$.q D.j.X.C.z.`.K H.z.z./ '..X}.'.oXoX<X%X].>./ G d.i.Q q p 7 w w d j i 0 6 y j z C k.D.I.*.F.NX,X*X5X9X7X",
"kXUXt.E.J.B.2XpXC.~.C.C.Z k.u.e.D.(._.T z.z.! (..X+X}.oX|.>.>.>.>.[.].G G d.i.q b s w u p j 0 0 6 6 j k C j.G.G.S.F.,X,X,X5XwXwX",
"x.VXv.B.b.B.pXC.C.C.iXaX$.x i.n. ._._.` z.z.^ (..X}..X].I D , , H (.|._ S W d.T b d y u p b h 0 4 1 i z x j.D.P.S.*.;X;X,X5XwXnX",
"8.kXJ.B.b.N.T.V.;.aXdXyXL.C.Z l T [._.(.R ^ I ( +X.X>.D D , % % $ D [.[.D F d.E T d 7 u i j i 0 4 4 i j x j.D.I.-.H.*X;X,X7XwXnX",
"8.T.q.v.b.Q.pXtXdXaXaX;.V.~.Z.g v W ) Y ! , I ,..X>.D , , X X . . % I >.^ H W W T b 7 0 7 p p 0 7 8 0 k k j.A.G.-.U.;X*X6X5XwXnX",
"8.z 8.x.v.Q.uX%.aX%.L.yXL.C.C.V E E u.9 % = ( }..X( P D O X X     X , / (.F E W T T p u 0 y i 0 u 4 u j B X.A.F.=.&X;X*X6X5X7XwX",
"g.8.4.x.v.^.jX%.yXyX;.U.L.V.V.C b q x E = S }..X>./ D , O X .     . = P (.W l Q Q E b u u 7 p 0 u 7 7 j l C A.A...>XdX&X3X5XwXwX",
"a.8.v 9.b.2XyXL.L.U.L.L.L.C.~.0.9.W K F G ,.XX,.! ! D , % O .       % P / ! g Q Q W E d d u 0 0 7 7 7 j k  .A.*.V &X*X3.dX3X9XwX",
"M.7.4.7.b.2XyXG.P.L.L.L.Y.R.C.A 8.9.F S ].[.[.G ` D , , O O .     o $ G G ) T W W Q W b d q u 0 7 s & d B  .A.*.A.S.U.&X-X:X5XnX",
"s.7.8.9.N.gXVXL.=XP.P.3X3XT.C.Z i.a.) '.).(./ D P , S , X O       6 4.D ! _ Q T W T W b d d u 0 u 7 5 s k V j.G.I.&X&X,X-X:X5XnX",
"~ a.v 8.Q.gXVX;.L.P.L.aXaXT.V.XX%XoX|.'.! P , , , , , % X O       o w.F G ` Q E W T W E T l d p s s 5 w f V X.H.>X*X6X6X-X>X3XwX",
"~ s.8.7.^.zXmXsX$.L.$.L.T.Y.{.oXXX%X|.>.! P , , 9 % , $ X X       o k E G P ! q E q W u.E l d u 0 9 5 r u V X.o.-X;X8X5X:X*X3XvX",
"~ s.u.8.^.gXlXUXsX%.$.&.P.H.[.{.|.|.].P G ! D 9 & % = O O $         @ + G ` ! F b T T W v E q 7 6 7 7 5 u a ..X.@X%X8X5X:X-X-X9X",
"~ `.a.q.fXlXfXkXLXsX$.%.;.[.OXXX{.( P D = = 9 x x % O X $ X           . G _ ` Y T q Q E E E q u 6 6 7 8 u a  .*.H.,XwX5X3X-X=X5X",
"` s.a.r.mXGX2XA.sXgXP.&XH.(.z.) G F G F * q b u.c.E d + .           o o b _ Y S W F q i.W Q g s & 8 6 & 7 p V X.U.<X8X5X6X-X-X6X",
"` s.g.v.kXKXgXk.w.k.h.n.n.p.p.z & 9 , = 0 b p.g.n.B.u.+ .   # o .   @ 3 x.p.5.v T F F W E T K s 4 & w @ 5 p V X.-.%XeX5X6X>X>X6X",
"~ s.9.w.G.m.Q.Q.Q.W.W.W.N.c.x.v d = $ % u.n.n.n.p.u.j o # k 4.i # x x.N.W.v.x.5.4.b b E W R T g 8 & 1 @ & p B X.*.@XeXeX:X>X>X>X",
"~ s.p.r.c.B.!.Q.Q.!.W.n.7.x.7.h.4.7 $ 9 h.c.c.c.u.& 1 # v.N.B.B.r.N.B.B.W.E.c.q.p.x.z z v F b d 5 * 4 1 @ a l *.*.@XoXeX%X>X>X-X",
"s.s.p.4.7.p.n.5.h.x.h.6.6.x.h.7.k.9 $ 9 p.g.p.c.w.1 0.x.N.N.W.N.N.N.N.E.Q.!.W.c.6.p.6.z v v E K w 5 1 6 @ u k *.*.{.oX%X%X#X>X*X",
"s.s.g.j.4.6.v 8.4.v 4.6.5.7.T O.@X1.9 r.x.x.c.c.0.w.W.W.N.W.!.W.W.N.W.!.W.W.x.6.6.x.7.4.z 5.E g s 5 6 1 1 y a j.A.z..XoX@X@X>X*X",
"s.M.t.J.v 4.v 8.k 4.z h l W <.2.2.<.q p.p.B.q.4.6.E.W.W.!.W.Q.Q.!.W.B.N.c.x.q.5.4.x.6.c 6.5.l K s 7 6 0 6 y B *.S.H._.[.{.{.@X$X",
"s.M.t.Q.O.3 M A M 3 M N @.<.#X2.<.{ 9 v u.p.p.r.v.c.c.E.W.W.W.W.W.x.7.6.4.6.6.5.x.6.4.6.6.h.4.l s 7 0 0 y y a j.S.) ).[.'.@.@X@X",
"s.f.9.^.aXm m #.#.A M B 2.<.2.<.<.J S x.u.5.h.x.c.7.8.x.B.N.N.c.v.r.c 7.x.x.r.q.q.q.5.7.6.4.b s 7 5 d h 3 k a X.S.( `.f._ @.@.$X",
"s.M.t.^.aXX.A m m #.m ..3.2.U <.{ U T 4.u.x.c.c c.v.z 4.6.7.8.7.6.4.5.7.c.q.c x. .| R 4.5.z t s e 7 p k 2 j a X.S.H.`.~ ! ^ +. X",
"f.g.t.gXCXm.A.e.yXA M -.2.{ U U U { H d E 4.7.h.N.b.w.v v z z b z z 5.7.E u.K | | @.[ C z w g s e 5 g x i a B Z S.G.f.` Q G +.{.",
"M.9.^.GXkXm.K.gXPXU.& J { { U U { { J b d p x.b.Q.W.N.b.6.0 j v 4.v v k K [ 2.1.2.{ +.} i ; d s & 4 l l 2 a V X.o.H.H.` F 9 P [.",
"x.^.DXLXkXd.&XCXPXCX, , <.<.<.< { { J T 5.x.b.b.b.E.E.N.N.0.i z v v I J +.-.@.+.@X<.{ ' w w s w & 5 l l 2 j V Z l.d.I.` F q G (.",
"J.jXLXUXd.k.k...dX' J I = { <.U U < D a.4.n.E.b.W.b.b.h.N.0.h d H L @.@.#X#X<.L ] ' ] J r w s e & 7 l B y i C X.l.>.H.W b q D f.",
"/.y.T.z.i.m.H.&X:.$ D >.P J < J G G _ _ z c.x.6.u.4.b c z # A g +.{ 3.2.#X#X@X+.K a f w w r r 6 & r T k 2 k C *.l.z.G.R q 9 K _ ",
"E.B.v Q m.k.H ] CXsXJ _ ).P , D / (.[.(.5.x.4.z j x 3 A M m m ] 2.2.#X' +.#X1.H J y a e r r r 4 & q  .j 2 z C Z A.H.I.R q 9 O.>.",
"Q.i.u.a.k.l H @XaXKXJ ! ,.>.( / [.OXOX].i.z z 4.k 3 M n n m n ' { @X' [ H ] 2.; 5 a a e N r 5 & * q V 0 1 x C *.A.F.G.T q o.) ~ ",
"z.l.n.n.i.F ] G.aXGX< , >./ / ! ).OXoX}.l.n 3 3 M m &.m n n - - > H - ' t ; ; e w a u e r r 5 * ; T V 2 i C C X.A.I.A...o.o.L _ ",
"H.z.m.N.2XH.E H.CXLX&X% P P D D / [.].'. .M m m m m #.m m - : # ; ; ; > : ; e e u a e t r r ; & 5 T f 1 h C C X.S.I.o.F.I.A.O.) ",
"$X$XK.W.hXGXsXCXGXKXGX' , D , , S ( '._ [.Z m #.#.#.#.n n ; ; - ; ; ; ; ; ; g K r a e e t t 5 * q T e 3 j C C Z F.G.S.I.o.F S Y ",
">X$X2X4XhXZXPXCXDXJXPXCX:., , O . S ) / >.) C A #.#.n @ ; - - # ; ; ; ; - ; R R f 3 e t t g t & g e 1 h z C C X.A.I.F.W q 9 9 Y ",
"3X4X2X0XhXmXKXFXDXJXKXLXPX-.% H $ O ! _ ^ ,.) x.4.x.$ : K L : ^ H } ' H - t ^ ) f e e t t g 5 5 r & 6 k z Z x j.S.I.z.Q q F 9 F ",
"3X3X4X0XbXhXIXKXKXJXKXKXLXUX> < % X O ! P P P a.i.u.$ / ].! J 1.}.( L ' : H z._ f 4 w ' L t 9 8 * @ p z c x B Z A.P.m.W q 9 * 9 ",
"6X3X6X4XqXhXmXPXPXPXKXKXJXJXsX-.:.N U.+.! D D ) Q Q % ].}._ D @.|.1.I J > H '.d.f ; K ) L t 7 @ + 1 f x 4.k k  .A.I.F.} X.X.} * ",
"6XqX4XqX4XhXbXIXLXLXPXPXPXJXUXUXVX%.=XgX+.! S Y ) G = >.|.>.G @.|.{.[ H H g z.f.s ; R ) K K 9 + + w f x x k B e.A.G.I.S.E F ] } ",
"6XqXqXqX4XqXcXZXLXLXLXPXLXCXI.j.S.I.=XgXP.G P , ` S % ! [.1.J ^ |.{.+.H > 4 E l w r R ) K 9 & # @ e f C x k k e.A.D.I.Y.o.9 * * ",
"6XqXqX0XqXqXbXmXLXLXLXLXGX=XH. .l.=XT.aXU.- ! D D , % , [.>.< J |.].[ ' : & j l p f f K K 7 & + & r f l 0.x B C j.S.U.Y.U.L = + ",
"6XqX0X0XcXqXbXMXHXLXLXLXkXkXD.} I.Y.Y.2XU.- = D % , % % >.1.< < {.'.+.L - 9 l l l d v K r r * + & u f V 0.k k 0.j.A.G.Y.G.O.9 + ",
"5XqX0XhXcX0XbXSXHXLXLXLXgXK.aXj.u.k.P.aXT.t % = % O % $ ^ '.< : 1.,.' J $ 8 4.r.x.h.u.4.j 9 ; + e s g x 0.B k C j.A.F.Y.I.O.9 * ",
"7X9XcXvX0X0XbXSXAXLXLXLXGXK.c k.H.k.5.*.T.:., , , $ O O P >.J : ( >.I H * 0 v.W.N.B.B.7.b i * @ e a f V c B k Z j.X.*.U.Y.G.F 9 ",
"7X9X0XvX0X0XbXSXHXLXLXLXLXCXfXgXaX=.u.T U.*., % , , % $ S ( L H ^ ( I ] - k W.!.W.W.N.q.k 6 @ @ e s f l C B B x j.j.*.P.Y.G.F S ",
"7X9XcXcX0X0XMXSXHXLXLXLXLXZXxXgXfX%.N F ..' / S , , , % < _ L J I _ I H - j B.N.N.N.B.5.l 4 & & w f f V z B B x j. .*.F.Y.l.G S ",
"7X9XcXcX0XvXMXAXHXLXLXPXLXIXlXkXjX%.N > P >.`.).P S , , % ,.( < I / { H + 1 z 5.8.6.6.k a 4 e 6 u f f l k B B B j.X.X.F.I.d.G S ",
"wX0XcXcXcXbXSXAXLXLXLXLXLXIXmXmXjXtX;.H W u.7.m.+XG D % O >._ I I ! I < - # @ 1 2 z 1 5 w 6 e 6 w f f l j B B B j.X.*.F.I.o.! D ",
"wX0X0XcXvXMXAXAXLXLXLXLXLXIXZXZXkXV.:.} r.c.c.6.) Y G % X G ( ( J J H > : O - ; 4 7 * : : 5 u 7 u r f a y B B B o.X.S.I.z.I.) G ",
"9X0XcXcXvXSXAXHXLXLXLXLXLXIXZXZXVXiXZ 8.c.B.c.9.q.v S % : ^ I L J S H > : - $ & ; : : > : 5 6 w f f f p 3 B B B j.*.I.F.K l.H.G ",
"vX0XcXcXnXAXAXLXLXLXLXLXLXIXZXZXBXuXe.4.5.t.q.z z 2 9 % ( XXL < t < > : - - - + & 7 : H I : w a f f f a y k B V A.S.G.l.} } H.G ",
"wX0XcXvXMXAXHXLXLXLXLXLXLXIXFXZXBXjXV.z t.8.h z h 1 * = I }.).J : : : : : - : + 1 x u ^ <X) & a f f f y y a B Z o.*.P.R O.o.H.R ",
"0XcXvXbXMXAXLXLXLXLXLXLXLXPXBXBXBXjXL.e.8.z h h h + % H < ( ,.( , - - - : : : - @ k C K }.oX@.l a a f u y a B *...*.I.*.G.H.G.L ",
"0X0XvXMXMXLXLXLXLXLXLXLXLXLXFXBXBXBXBXJ.B j 1 2 = , S H < : $ $ < < > - O - - + 4 j v V | {.%X{.z.} a a i k B *.....P.H.d.H.H.S ",
"0XcXMXnXAXLXLXLXLXLXLXLXLXLXKXBXBXBXBXuXjX..= = J >.>.J < : O X O - < J H - $ & i x x k.A.o.@.{.%X{.T i 3 a V o.V N *.F.z.I.W S "
};
