/* XPM */
static char *result[] = {
/* columns rows colors chars-per-pixel */
"64 64 242 2 ",
"   c #000000",
".  c #070506",
"X  c #1C0300",
"o  c #151706",
"O  c #0E150A",
"+  c #210000",
"@  c #2C0604",
"#  c #231B01",
"$  c #003A02",
"%  c #163403",
"&  c #002804",
"*  c #372900",
"=  c #2F2A06",
"-  c #2E2E2E",
";  c #5D1900",
":  c #453600",
">  c #5A3214",
",  c #004700",
"<  c #004D00",
"1  c #0A4800",
"2  c #114600",
"3  c #005400",
"4  c #005C00",
"5  c #175E00",
"6  c #006401",
"7  c #006B01",
"8  c #0D6B03",
"9  c #007600",
"0  c #007B00",
"q  c #077905",
"w  c #177500",
"e  c #146507",
"r  c #30770D",
"t  c #334D2A",
"y  c #386929",
"u  c #274A15",
"i  c #5B5304",
"p  c #475402",
"a  c #6F5800",
"s  c #736206",
"d  c #497A37",
"f  c #4B7831",
"g  c #5D6D08",
"h  c #5A7348",
"j  c #77704E",
"k  c #71726F",
"l  c #625656",
"z  c #872A00",
"x  c #B54C00",
"c  c #826E09",
"v  c #8C780A",
"b  c #D24F00",
"n  c #E85A00",
"m  c #FD6400",
"M  c #FB6500",
"N  c #836F73",
"B  c #008400",
"V  c #008C00",
"C  c #098504",
"Z  c #148700",
"A  c #019300",
"S  c #019B00",
"D  c #099606",
"F  c #179803",
"G  c #079913",
"H  c #288904",
"J  c #329509",
"K  c #01A300",
"L  c #01AB00",
"P  c #0DAC00",
"I  c #0AA301",
"U  c #02B300",
"Y  c #01BB00",
"T  c #0ABC00",
"R  c #0BB400",
"E  c #17B801",
"W  c #15AA0F",
"Q  c #32B10A",
"!  c #329F2F",
"~  c #48AD16",
"^  c #539331",
"/  c #70963A",
"(  c #64B53A",
")  c #4AA51E",
"_  c #06C200",
"`  c #0AC400",
"'  c #0DCA00",
"]  c #11CC00",
"[  c #1CC802",
"{  c #0DD500",
"}  c #12D400",
"|  c #11DB00",
" . c #1CD800",
".. c #35C906",
"X. c #2BD501",
"o. c #24DB01",
"O. c #2EDD02",
"+. c #23D501",
"@. c #35DA06",
"#. c #33CD15",
"$. c #32CC0C",
"%. c #12E300",
"&. c #1BE100",
"*. c #15EA00",
"=. c #1BED00",
"-. c #1DF600",
";. c #0FE800",
":. c #23E300",
">. c #2BE201",
",. c #23EE00",
"<. c #2CEB00",
"1. c #32E402",
"2. c #3CEC02",
"3. c #3AE804",
"4. c #23F400",
"5. c #29FA00",
"6. c #3CF300",
"7. c #34FC00",
"8. c #3DFD00",
"9. c #33F301",
"0. c #3DE513",
"q. c #38F013",
"w. c #4AD617",
"e. c #4CCD12",
"r. c #4CFB05",
"t. c #49F905",
"y. c #55FD0C",
"u. c #59FE0E",
"i. c #52FF07",
"p. c #4BE717",
"a. c #57E715",
"s. c #5DFE13",
"d. c #58F318",
"f. c #50EA0D",
"g. c #62FF1B",
"h. c #65F71D",
"j. c #56D837",
"k. c #52D02B",
"l. c #6ACF3A",
"z. c #5CEB28",
"x. c #59E636",
"c. c #6BFF24",
"v. c #6EFE2A",
"b. c #66F52A",
"n. c #72FF2D",
"m. c #76FF33",
"M. c #7BFF3C",
"N. c #77FE37",
"B. c #6AE433",
"V. c #588F48",
"C. c #639746",
"Z. c #7AB856",
"A. c #79AA62",
"S. c #788A77",
"D. c #5BD64B",
"F. c #77C84D",
"G. c #7AFB43",
"H. c #76E94A",
"J. c #AE9A11",
"K. c #B9A717",
"L. c #9B8B24",
"P. c #CAB51A",
"I. c #80FF3F",
"U. c #D8CA2A",
"Y. c #E8D826",
"T. c #F7E92D",
"R. c #F6EA33",
"E. c #D7C21F",
"W. c #A09D40",
"Q. c #8AAA74",
"!. c #848A7E",
"~. c #85C75A",
"^. c #81FF44",
"/. c #85FE4B",
"(. c #89FF4D",
"). c #8CFF53",
"_. c #89FA5B",
"`. c #94FF5D",
"'. c #91FF56",
"]. c #88E459",
"[. c #8BD06B",
"{. c #96FF62",
"}. c #99FF64",
"|. c #9DFF6A",
" X c #96F36D",
".X c #94ED6F",
"XX c #A2FE6E",
"oX c #A4FF73",
"OX c #A9FF76",
"+X c #ABFF79",
"@X c #A5FD7B",
"#X c #F5EE4A",
"$X c #FDFA6A",
"%X c #8A8A89",
"&X c #979697",
"*X c #8C9783",
"=X c #97AD8D",
"-X c #AAA9AA",
";X c #B4B4B4",
":X c #BBBBBB",
">X c #B1B5AA",
",X c #9BC788",
"<X c #ACFF83",
"1X c #A6F18B",
"2X c #B3FF89",
"3X c #BAFF93",
"4X c #BEFF9B",
"5X c #B4F896",
"6X c #B4ED9C",
"7X c #BBCDAF",
"8X c #ADF198",
"9X c #C1FF9D",
"0X c #FFFE8E",
"qX c #C6D0BF",
"wX c #C4FFA4",
"eX c #C9FFAB",
"rX c #CDFEB3",
"tX c #C7F8B5",
"yX c #D4FFBB",
"uX c #D3FEB9",
"iX c #C8ECB5",
"pX c #FFFFB2",
"aX c #C9C9C8",
"sX c #DDDCDD",
"dX c #D5DBCF",
"fX c #D9FFC4",
"gX c #DDFECC",
"hX c #D8F8C8",
"jX c #DCEAD6",
"kX c #E4FFD5",
"lX c #E9FFDC",
"zX c #E2FBD9",
"xX c #E2FFCE",
"cX c #E6E6E6",
"vX c #F4FFEB",
"bX c #F1FFE6",
"nX c #F3F4F3",
"mX c #F6FFF1",
"MX c #FFFFFE",
"NX c #F8FDF6",
"BX c #EFFFE3",
"VX c None",
/* pixels */
"VXVXVXVXVXVXVXVXVXVXVXVXVXVXVXVXVXVXVXVXVXVXVXVXVXVXVXVXVXVXVXVXVXVXVX              VXVXVXVXVXVXVXVXVXVXVXVXVXVXVXVXVXVXVXVXVXVX",
"VXVXVXVXVXVXVXVXVXVXVXVXVXVXVXVXVXVXVXVXVXVXVXVXVXVXVXVXVXVXVXVXVX    VXVXVXVXVXVXVX  VXVXVXVXVXVXVXVXVXVXVXVXVXVXVXVXVXVXVXVXVX",
"VXVXVXVXVXVXVXVXVXVXVXVXVXVXVXVXVXVXVXVXVXVXVXVXVXVXVXVXVXVXVX    VXVXVXVXVXVXVXVXVXVX    VXVXVXVXVXVXVXVXVXVXVXVXVXVXVXVXVXVXVX",
"VXVXVXVXVXVXVXVXVXVXVXVXVXVXVXVXVXVXVXVXVXVXVXVXVXVXVXVXVXVXVX  VXVXVXVXVXVXVXVXVXVXVXVX  VXVXVXVXVXVXVXVXVXVXVXVXVXVXVXVXVXVXVX",
"VXVXVXVXVXVXVXVXVXVXVXVXVXVXVXVXVXVXVXVXVXVXVXVXVXVXVXVXVXVX  VXVXVXVXVXVXVXVXVXVXVXVXVXVX  VXVXVXVXVXVXVXVXVXVXVXVXVXVXVXVXVXVX",
"VXVXVXVXVXVXVXVXVXVXVXVXVXVXVXVXVXVXVXVXVXVXVXVXVXVXC Q [.,Xk VXVXVXVXVXVXVXVXVXVXVXVXVXVX  VXVXVXVXVXVXVXVXVXVXVXVXVXVXVXVXVXVX",
"VXVXVXVXVXVXVXVXVXVXVXVXVXVXVXVXVXVXVXVXVXVXVXVXVXVX| } [ q. X7XVXVXVXVXVXVXVXVXVXVXVXVXVXVXVXVXVXVXVXVXVXVXVXVXVXVXVXVXVXVXVXVX",
"VXVXVXVXVXVXVXVXVXVXVXVXVXVXVXVXVXVXVXVXVXVXVXVXVXF } B B T t.@XqXVXVXVXVXVXVXVXVXVXVXVXVXVX  VXVXVXVXVXVXVXVXVXVXVXVXVXVXVXVXVX",
"VXVXVXVXVXVXVXVXVXVXVXVXVXVXVXVXVXVXVXVXVXVXVXVXVXT I 9 0 P O.c.rXaXVXVXVXVXVXVXVXVXVXVXVXVX  VXVXVXVXVXVXVXVXVXVXVXVXVXVXVXVXVX",
"VXVXVXVXVXVXVXVXVXVXVXVXVXVXVXVXVXVXVXVXVXVXVXVXP T 0 9 B R X.h.<XBX;XVXVXVXVXVXVXVXVXVXVXVX  VXVXVXVXVXVXVXVXVXVXVXVXVXVXVXVXVX",
"VXVXVXVXVXVXVXVXVXVXVXVXVXVXVXVXVXVXVXVXVXVXVXE ] A 9 9 B R X.a.|.kXnX%XVXVXVXVXVXVXVXVXVXVX  VXVXVXVXVXVXVXVXVXVXVXVXVXVXVXVXVX",
"VXVXVXVXVXVXVXVXVXVXVXVXVXVXVXVXVXVXVXVXVXVXQ | S 9 9 9 S ` @.f.).yXNXsXVXVXVXVXVXVXVXVXVXVX  VXVXVXVXVXVXVXVXVXVXVXVXVXVXVXVXVX",
"VXVXVXVXVXVXVXVXVXVXVXVXVXVXVXVXVXVXVXVX~ @.] A 9 9 9 C L ] @.f./.wXvXMXcXVXVXVXVXVXVXVXVXVXVXVXVXVXVXVXVXVXVXVXVXVXVXVXVXVXVXVX",
"VXVXVXVXVXVXVXVXVXVXVXVXVXVXVXVXVXVX^ w.+.R B 9 9 9 B K ` [ 1.d.G.<XkXMXMXcX%XVXVXVXVXVXVXVXVX  VXVXVXVXVXVXVXVXVXVXVXVXVXVXVXVX",
"VXVXVXVXVXVXVXVXVXVXVXVXVXVXVXVX^ k.0.E V 9 9 9 9 V L T ] X.3.s.G.oXuXmXMXMXcX%XVXVXVXVXVXVXVX  VXVXVXVXVXVXVXVXVXVXVXVXVXVXVXVX",
"VXVXVXVXVXVXVXVXVXVXVXVXVX^ ( B.p.[ S 0 9 9 9 B S U ' } +.@.t.g.M.{.4XzXNXMXMXnX&XVXVXVXVXVXVX  VXVXVXVXVXVXVXVXVXVXVXVXVXVXVXVX",
"VXVXVXVXVXVXVXVXVXVXVX^ F.z.0.E C 9 9 9 B B S L ` [ o.O.2.r.s.m.(.}.<XuXvXMXMXMXnX:XVXVXVXVXVX  VXVXVXVXVXVXVXVXVXVXVXVXVXVXVXVX",
"VXVXVXVXVXVXVXVXVXf l.z.@.I B 9 9 9 0 A K L _ ] +.1.2.r.s.g.N.).}.+X9XfXbXMXMXMXMXMXaXVXVXVXVXVXVXVXVXVXVXVXVXVXVXVXVXVXVXVXVXVX",
"VXVXVXVXVXVXVXVX( z.@.I B 9 9 9 0 A K U _ ] } o.2.r.g.v.M.(.}.+XwXkXNXNXMXMXMXMXMXMXMXsX%XVXVXVX  VXVXVXVXVXVXVXVXVXVXVXVXVXVXVX",
"VXVXVXVXVXVXVXH.p.E V 9 9 9 9 B S L Y ` ] } :.t.u.c.I.(.`.XX3XuXmXMXMXMXMXMXMXMXMXMXMXMXnX;XVXVX  VXVXVXVXVXVXVXVXVXVXVXVXVXVXVX",
"VXVXVXVXVX^ l.~ H 6 9 9 9 q V K U Y _ ] } :.t.u.m.(.'.XXoX3XfXvXMXMXMXMXMXMXMXMXMXMXNXMXMXMX-XVX  VXVXVXVXVXVXVXVXVXVXVXVXVXVXVX",
"VXVXVXVXf ^ % L.J.o , 9 q V K Y _ ` ] } :.9.y.m.'.`.XXOX+XeXBXMXMXMXMXMXMXMXMXMXMXNXfXgXNXMXnX%XVX  VXVXVXVXVXVXVXVXVXVXVXVXVXVX",
"VXVXVXVX) & . P.Y.o . 6 V K Y Y _ ' } &.<.t.v.(.XXXXOX+X2XuXNXMXMXMXMXMXMXMXMXMXMXMXwXoX4XlXMXsXVX  VXVXVXVXVXVXVXVXVXVXVXVXVXVX",
"VXVXVX~ ~ a J.#X$XK.s 5 K Y Y _ ' { | :.6.g.^.{.XX+XOX[.d W.j ;XNXMXMXMXMXMXMXMXMXNX<XM.^.<XgXMX:XO   VXVXVXVXVXVXVXVXVXVXVXVXVX",
"VXVXVX0.J K.Y.0X0XR.P.r U Y _ ' ] | %.4.t.c.'.|.OXOXC.O * Y.s . l nXMXMXMXMXMXMXMXbX{.c.u.v.@XkXnXk   VXVXVXVXVXVXVXVXVXVXVXVXVX",
"VXVXQ 4.B o * E.Y.: o 9 Y Y ` ' } %.*.9.i.N.`.oX+X~.O   : T.v     &XMXMXMXMXMXMXMXfX`.n.g.y.b.2XbX:X.   VXVXVXVXVXVXVXVXVXVXVXVX",
"VXr t.` B &   K.E.o & U Y T ] ] { %.=.7.u.^.}.oX@X/ s v P.$XU.v c l nXNXMXMXMXMXzX3XoXwXzXfXG.N.rXdXVX    VXVXVXVXVXVXVXVXVXVXVX",
"VXJ ,.L 7 < $ p g 3 S Y K C ] } | %.4.7.u./.}.OX@X/ E.Y.#XpX$XT.Y.W.nXNXMXMXbXfXwX3XgXMXMXMXgXb.}.jXk VX  VXVXVXVXVXVXVXVXVXVXVX",
"VXQ | A 4 3 4 6 9 S U _ S q } q P *.4.$.p.(.}.OXOXC.# # s R.J.# @ h xXkXxXfXwX3X3XeXbXMXMXMXlXp.b.wX!.VXVX  VXVXVXVXVXVXVXVXVXVX",
"VX1.T 9 3 3 4 7 0 S U Y T q e t F ;.&.Z w.G.}.OX+X.Xt . : T.c   O [.wXwXyXyX9X<X3XrXlXMXMXNX1X+.f.|.=XVXVXVX  VXVXVXVXVXVXVXVXVX",
"f 0.K 9 3 3 4 6 0 K Y Y ` ' V.aXS.y d y i.N.`.oXOXOX~.t = K.i u Z.<X3XgXNXMXlX2X<X4XrXyXwX_.@.[ X.b.A.VXVXVXVX  VXVXVXVXVXVXVXVX",
"A.0.S 7 3 3 6 7 B K Y Y ' ' y -XsXsXaXV.t.v.).|.OXOX@X.X~.~.Q.}.oX<X9XvXMXMXmX2XoX|.|.`.b.@.[ ] [ 0.B.VXVXVXVXVX  VXVXVXVXVXVXVX",
"Q.p.S 6 3 < 6 7 B K Y Y ' ] 1 @ > l k f 6.g.^.`.XXOXOXOX+X+X+XOXOX<X4XkXNXNXxX+X).N.g.t.@.[ ] ] ] o.w.VXVXVXVXVXVX  VXVXVXVXVXVX",
"Q.z.A 6 < < 4 7 0 S Y Y ' } 2 + X + + % 7.r.v.(.`.|.OXOX+XOXOXOXoXOX2X9XuXeX2X`.N.u.2.:.} ' ` ` ] } @.VXVXVXVXVXVX    VXVXVXVXVX",
"=XH.I 6 < , 4 7 9 S U Y T ] 2 + X + + % 4.8.u.m./.'.}.|.|.|.XX|.|.|.oX+X<XoX`.m.s.6.:.} ] Y L U ` | @.VXVXVXVXVXVXVX  VXVXVXVXVX",
"*X XE 9 3 , 3 6 9 B K Y Y ' 2 + + X + % =.5.8.y.v.M.(.(.'.'.'.'.`.`.}.`.).^.v.i.6.:.} } ` K B S Y } ..VXVXVXVXVXVXVXVX  VXVXVXVX",
"k 5X#.B 3 , < 4 7 9 S U Y ` 2 + @ ; z p %.=.5.8.r.s.c.n.m.N.N.M.^.^.^.M.v.s.t.<.o.} ' ' U V 9 A U o.Q VXVXVXVXVXVXVXVX  VXVXVXVX",
"VX7Xx.S 6 < , 4 6 9 B K Y ` 2 ; x n b i | *.=.5.7.8.t.r.i.y.u.u.g.g.s.y.t.9.<. .] ] ] ` K 0 9 S _ >.r VXVXVXVXVXVXVXVX  VXVXVXVX",
"VX>X_.P 9 3 , , 4 7 9 A L Y q b m m n a ` | %.*.=.4.5.5.7.7.8.8.8.6.6.9.<.&.| ] ] ] ] ` L B D U ] ..VXVXVXVXVXVXVXVXVX- - VXVXVX",
"VXk 6X#.V 6 3 , 3 4 9 0 A U D x m m m a ' } | | *.*.=.=.4.,.,.,.,.,.:.&.| } ] ] ] ' ' _ Y U U ` o.H VXVXVXVXVXVXVXd 7XcXcX;XVXVX",
"VXVX>XH.R 9 6 3 , 3 6 7 q G K p n m m a ` ] ] } | %.| %.%.%.%.%.%.| | } ] ] ] ' _ Y Y L L Y ` } @.VXVXVXVXVXVXVX5 j.rXNXMXNX,XVX",
"VXVXVXhXj.K 9 4 < < < 6 6 7 V C a n b i ` ] ] ] ' } | | | | | | } } ] ] ] ' _ Y L K S V K Y ' 3.~ VXVXVXVXVXVXVX9 $.H.3XtX1Xj.8 ",
"VXVXVX&XtX#.D 9 6 3 < 3 4 6 7 B q p > w _ ` ' ] ' ] ] ] ' } ] ] ] ] ' ' _ Y L S A B B S Y ` 1.e.VXVXVXVXVXVXVXVX7 I E #.w.#.P 4 ",
"VXVXVXVX;XtXj.G q 6 4 3 3 4 6 7 9 9 q D K L U U _ _ ` ` ` ` ` ` ` Y Y U K S V 0 9 9 V U ` o.w.VXVXVXVXVXVXVXVXVX4 B A S A V 0 , ",
"VXVXVXVXVXaXhXD.! G q 4 6 6 6 6 9 9 9 0 0 B V V S S K L L L L K S S A V B 9 9 9 0 S U _ o.a.r VXVXVXVXVXVXVXVXVX$ 9 0 0 9 q 6 VX",
"VXVXVXVXVXVX;XhXH.! G G q 7 7 7 7 9 9 9 9 9 9 9 0 0 0 B 0 0 B 0 9 9 9 9 9 9 9 V K Y '  ...^ VXVXVXVXVXVXVXVXVXVXVX$ 4 7 6 3 VXVX",
"VXVXVXVXVXVXVX-XjX5XD.W G q 0 9 9 9 0 9 9 9 9 9 9 9 9 9 9 9 9 9 9 9 9 9 0 V K Y ' } %...VXVXVXVXVXVXVXVXVXVXVXVXVXVXVXVXVXVXVXVX",
"VXVXVXVXVXVXVXVXVXqXhX1XD.W S V B 9 9 9 9 9 9 9 9 0 9 9 9 9 9 9 0 B V S L Y ' | %.*.9.H VXVXVXVXVXVXVXVXVXVXVXVXVXVXVXVXVXVXVXVX",
"VXVXVXVXVXVXVXVXVXVX&XaXtX@XB.#.P D A B B B 0 0 0 0 0 B B B V S K L Y ` ' | *.%.=.5.p.VXVXVXVXVXVXVXVXVXVXVXVXVXVXVXVXVXVXVXVXVX",
"VXVXVXVXVXVXVXVXVXVXVXVX%X7XiX<XG.p.X.[ E R U P U R U U R U T T ` ' | *.*. .W VXw @.k.VXVXVXVXVXVXVXVXVXVXVXVXVXVXVXVXVXVXVXVXVX",
"VXVXVXVXVXVXVXVXVXVXVXVXVXVXVX*X,X.X).N.b.d.f.3.@.@.O.O.O.>.2.<.=.-.-.-.F VXVXVXVXJ ) VXVXVXVXVXVXVXVXVXVXVXVXVXVXVXVXVXVXVXVXVX",
"VXVXVXVXVXVXVXVXVXVXVXVXVXVXVXVXVXh .X|.F.F.H.^.c.c.c.a.f.e.e.Q >.5.5.E VXVXVXVXVXVXu VXVXVXVXVXVXVXVXVXVXVXVXVXVXVXVXVXVXVXVXVX",
"VXVXVXVXVXVXVXVXVXVXVXVXVXVXVXVXVXVXVXC.VXVXVXB.g.d.) VXVXVXVXVXF 4.4.q VXVXVXVXVXVXVXVXVXVXVXVXVXVXVXVXVXVXVXVXVXVXVXVXVXVXVXVX",
"VXVXVXVXVXVXVXVXVXVXVXVXVXVXVXVXVXVXVXVXVXVXVXH <.H VXVXVXVXVXVXVXE  .VXVXVXVXVXVXVXVXVXVXVXVXVXVXVXVXVXVXVXVXVXVXVXVXVXVXVXVXVX",
"VXVXVXVXVXVXVXVXVXVXVXVXVXVXVXVXVXVXVXVXVXVXVXVXZ VXVXVXVXVXVXVXVXZ E VXVXVXVXVXVXVXVXVXVXVXVXVXVXVXVXVXVXVXVXVXVXVXVXVXVXVXVXVX",
"VXVXVXVXVXVXVXVXVXVXVXVXVXVXVXVXVXVXVXVXVXVXVXVXVXVXVXVXVXVXVXVXVXVXw VXVXVXVXVXVXVXH ~ VXVXVXVXVXVXVXVXVXVXVXVXVXVXVXVXVXVXVXVX",
"VXVXVXVXVXVXVXVXVXVXVXVXVXVXVXVXVXVXVXVXVXVXVXVXVXVXVXVXVXVXVXVXVXVX1 VXVXVXVXVXVXVXw Q VXVXVXVXVXVXVXVXVXVXVXVXVXVXVXVXVXVXVXVX",
"VXVXVXVXVXVXVXVXVXVXVXVXVXVXVXVXVXVXVXVXVXVXVXVXVXH VXVXVXVXVXVXVXVXVXVXVXVXVXVXVXVXVXVXVXVXVXVXVXVXVXVXVXVXVXVXVXVXVXVXVXVXVXVX",
"VXVXVXVXVXVXVXVXVXVXVXVXVXVXVXVXVXVXVXVXVXVXVXVXVXVXVXVXVXVXVXVXVXVXVXVXVXVXVXVXVXVXVXVXVXVXVXVXVXVXVXVXVXVXVXVXVXVXVXVXVXVXVXVX",
"VXVXVXVXVXVXVXVXVXVXVXVXVXVXVXVXVXVXVXVXVXVXVXVXVXVXVXVXVXVXVXVXVXVXVXVXVXVXVXVXVXVXVXVXVXVXVXVXVXVXVXVXVXVXVXVXVXVXVXVXVXVXVXVX",
"VXVXVXVXVXVXVXVXVXVXVXVXVXVXVXVXVXVXVXVXVXVXJ r VXVXVXVXVXVXVXVXVXVX8 k.].C.VXVXVXVXVXVXVXVXVXVXVXVXVXVXVXVXVXVXVXVXVXVXVXVXVXVX",
"VXVXVXVXVXVXVXVXVXVXVXVXVXVXVXVXVXVXVXVXVXVXVXVXVXVXVXVXVXVXVXVXVXVXF d.`.].VXVXVXVXVXVXVXVXVXVXVXVXVXVXVXVXVXVXVXVXVXVXVXVXVXVX",
"VXVXVXVXVXVXVXVXVXVXVXVXVXVXVXVXVXVXVXVXVXVXVXVXVXVXVXVXVXVXVXVXVXVXZ o.d.k.VXVXVXVXVXVXVXVXVXVXVXVXVXVXVXVXVXVXVXVXVXVXVXVXVXVX",
"VXVXVXVXVXVXVXVXVXVXVXVXVXVXVXVXVXVXVXVXVXVXVXVXVXVXVXVXVXVXVXVXVXVXVXC Z e VXVXVXVXVXVXVXVXVXVXVXVXVXVXVXVXVXVXVXVXVXVXVXVXVXVX"
};
