/* XPM */
static char *result[] = {
/* columns rows colors chars-per-pixel */
"64 64 256 2 ",
"   c #103A07",
".  c #1A3431",
"X  c #132D2B",
"o  c #233D37",
"O  c #144508",
"+  c #134C09",
"@  c #154907",
"#  c #15530A",
"$  c #19550C",
"%  c #1C5B0D",
"&  c #155B0A",
"*  c #1C5E11",
"=  c #0F4207",
"-  c #205E0F",
";  c #18650C",
":  c #1C6312",
">  c #1D6B12",
",  c #1E7814",
"<  c #18700C",
"1  c #236916",
"2  c #217C16",
"3  c #25731B",
"4  c #27781C",
"5  c #3A4B33",
"6  c #2A5A36",
"7  c #395837",
"8  c #2B4637",
"9  c #1B6F38",
"0  c #2C7C22",
"q  c #2B7522",
"w  c #347B29",
"e  c #296738",
"r  c #37693C",
"t  c #297838",
"y  c #36753B",
"u  c #2E6B27",
"i  c #1A593F",
"p  c #454D32",
"a  c #4B5B3C",
"s  c #485537",
"d  c #565937",
"f  c #57502B",
"g  c #665B31",
"h  c #4A6639",
"j  c #586538",
"k  c #52773C",
"l  c #676739",
"z  c #756B39",
"x  c #79763A",
"c  c #70752F",
"v  c #1A3B4B",
"b  c #203E59",
"n  c #185647",
"m  c #16494B",
"M  c #395847",
"N  c #285052",
"B  c #1D744C",
"V  c #1D694D",
"C  c #27694A",
"Z  c #386A49",
"A  c #26774D",
"S  c #377947",
"D  c #266854",
"F  c #2C7C52",
"G  c #277754",
"H  c #367858",
"J  c #366D58",
"K  c #2C5269",
"L  c #327A65",
"P  c #4B5C43",
"I  c #465844",
"U  c #505C41",
"Y  c #4C6343",
"T  c #4C6B43",
"R  c #456845",
"E  c #516C45",
"W  c #566846",
"Q  c #4A7947",
"!  c #537346",
"~  c #57794A",
"^  c #4B6853",
"/  c #597659",
"(  c #4D7055",
")  c #657A4A",
"_  c #6B754F",
"`  c #517869",
"'  c #877A3A",
"]  c #8C7933",
"[  c #897C45",
"{  c #26851C",
"}  c #1C8D38",
"|  c #2C8522",
" . c #358A2C",
".. c #36862B",
"X. c #36942B",
"o. c #2A8738",
"O. c #3B8431",
"+. c #3C8B33",
"@. c #32863C",
"#. c #2A9737",
"$. c #3A9535",
"%. c #289328",
"&. c #2BA739",
"*. c #36A737",
"=. c #2DB63A",
"-. c #34B839",
";. c #35AD2B",
":. c #17A43D",
">. c #449B3B",
",. c #538C3B",
"<. c #71873A",
"1. c #44A63B",
"2. c #44B53C",
"3. c #6DA63A",
"4. c #33C93B",
"5. c #32D03B",
"6. c #37E13D",
"7. c #1E8858",
"8. c #268745",
"9. c #368846",
"0. c #349544",
"q. c #298556",
"w. c #368557",
"e. c #2E9552",
"r. c #1DAB56",
"t. c #32AA52",
"y. c #388A66",
"u. c #2C9167",
"i. c #389567",
"p. c #318F6E",
"a. c #33B368",
"s. c #19B664",
"d. c #59834A",
"f. c #489A45",
"g. c #478857",
"h. c #548A59",
"j. c #489657",
"k. c #579858",
"l. c #559248",
"z. c #678648",
"x. c #66995A",
"c. c #6A8A53",
"v. c #51AD51",
"b. c #67A45A",
"n. c #6FAF59",
"m. c #448E65",
"M. c #439768",
"N. c #589963",
"B. c #52916E",
"V. c #688669",
"C. c #659865",
"Z. c #779965",
"A. c #789775",
"S. c #728A73",
"D. c #52AC6E",
"F. c #69A865",
"G. c #76A967",
"H. c #7BA778",
"J. c #6EB471",
"K. c #2BD26F",
"L. c #2FE675",
"P. c #1FCA65",
"I. c #5AC64C",
"U. c #66CA56",
"Y. c #6CCB57",
"T. c #7ACC69",
"R. c #988637",
"E. c #8C8837",
"W. c #A59233",
"Q. c #B8AB32",
"!. c #CFB432",
"~. c #918C4B",
"^. c #ADAE4B",
"/. c #84987A",
"(. c #85906A",
"). c #88B669",
"_. c #86A67C",
"`. c #8ABC75",
"'. c #90AD6C",
"]. c #A39A54",
"[. c #88C66B",
"{. c #87C576",
"}. c #93C779",
"|. c #97DA78",
" X c #86D86A",
".X c #A4D579",
"XX c #A3E27B",
"oX c #CBC95B",
"OX c #B4C93E",
"+X c #5E7B83",
"@X c #55AE84",
"#X c #6EB08C",
"$X c #629582",
"%X c #73CA90",
"&X c #75D7A8",
"*X c #51EB91",
"=X c #38E480",
"-X c #889987",
";X c #8CA685",
":X c #93AE8E",
">X c #A7B894",
",X c #8EB9B0",
"<X c #AEB8A8",
"1X c #8FD08E",
"2X c #ABCF93",
"3X c #ADE391",
"4X c #8FCFB4",
"5X c #BAC8A5",
"6X c #B4D3AF",
"7X c #97E6BA",
"8X c #8FEDB1",
"9X c #AFF2B3",
"0X c #98E89B",
"qX c #CED6B3",
"wX c #D8E4BC",
"eX c #C6FBB6",
"rX c #D2D59B",
"tX c #BAD0C6",
"yX c #9CE9C3",
"uX c #9AF9C7",
"iX c #8FFEC0",
"pX c #A6EAC4",
"aX c #A9F7C7",
"sX c #BCFCCA",
"dX c #B6F8C7",
"fX c #ACFCD4",
"gX c #B8FDD7",
"hX c #B5EDCC",
"jX c #B9FDE7",
"kX c #BCFFF2",
"lX c #9ADBC2",
"zX c #C3FCCB",
"xX c #C9FDCB",
"cX c #D6FECA",
"vX c #C6FDD4",
"bX c #D8FED6",
"nX c #E8EAC6",
"mX c #ECFFDB",
"MX c #E6FDD6",
"NX c #F4FFDC",
"BX c #FDFEDB",
"VX c #FCFAD4",
"CX c #EEF5CD",
"ZX c #DAF9E8",
"AX c #C7FEF6",
"SX c #D7FEFA",
"DX c #C7FCE7",
"FX c #FDFFE3",
"GX c #FEFFEB",
"HX c #F5FFE3",
"JX c #E8FDF9",
"KX c #FEFFFE",
"LX c #F7FFFB",
"PX c #E1FDE7",
"IX c #C4CEC8",
"UX c #C4BD83",
/* pixels */
"% ; % > < { %...3 4 %.;. Xx.h a I Y T Q ! E R h 0.o.n 7 A @.t 8.w.w.B.y.e.a.&X,X,XN.l.<.v.9.h.S h.x.x.g.j.k.h.g.C C A g.g.M.B.p.",
"- % % < , {  ...3 4 X.;.Y.}.h P P P T ! R R a S o.h.qX<Xe t @.Q k.Z 6 S j.D.&X,X#X1.z.b.0.t.S S 8.n.x.l.k.C.h.h.A C G g.y.m.p.@X",
"- $ % < { { O.0 3 4 X.2.U.3X~ P P I T ! y y y o.Q nXCXH.h.A.t k.nXqX/ C j.a.8X@Xt.v.l.k.t.L.K.a.e.x.b.b.j.b.C.k.S C G w.y.M.B.,X",
"$ % % < { | O...3 0 *.;.I.3X~ a I Y T Q R 7 @.t ;XBXC.e wXBX5Xy qXBXnXC.0.D.D.a.n.x.l.A.:X#X6.K.q.k.x.G.k.b.G.h.w.A F w.m.M.p.,X",
"% $ ; , { 2 w | 1 | X.2.U.3X_ d P Y T T Y y @.Z qXnX_.:XwX5X-Xh./.BXwX>Xk.j.f.v.c.~ /.6XIXtX$XB A n.).x.x.l.G.k.H A G w.y.M.B.#X",
"% % - 2 { | O.| 3 w ;.2.I.3Xc.a Y Y ! ! R @.t >XBXqX>X;XA./ ^ _./ CX/./ H.g.b.x.M K +X<XtXtX<XS d.'.n.n.x.k.G.F.w.A G w.m.i.p.@X",
"% $ - , { | O.{ 4 ..>.2.I.3XV.a Y Y ! ! h @.y 5XVX<XqXqXV.8 / _.( Q R V./.b.3.Z b b K +X6XIX>Xh.k.).b.b.b.l.b.G.h.A G w.y.i.p.@X",
"- - > 2 { X.>.{ 4  .;.2.I.2Xc.Y Y Y T S 0.@.S qXCXqXnXNX;XX ` ;XV.` N S.'.x.N K K b K K -X<XS.g.x.).d.b.G.k.k.F.k.A C w.y.i.p.$X",
"$ % > , {  .+. .q  .1.2.U.}.E h P h 9.0.0.9 ( 5XrXUXUXoX].E.^.^.].^.c.].].z./.$XK K b K ` #XN.h.n.).g.k.).b.g.j.x.w.A F w.i.M.@X",
"$ : > { | +.$.| q  .1.2.U.3X/ a I S 0.#.,.W.Q.!.!.!.!.!.!.!.!.!.!.!.!.!.!.!.!.UX$XK K b ` &XJ.j.).).l.H G.G.w.9.j.w.C F y.i.M.M.",
"% - > , {  .+. .q  .1.2.U.2X~ U I k #.:.,.E.) T S Z C A B A A A n C 9.J Z W ' ].:XK b N D.#Xk.b..XZ.g.8.b.).h.F F w.A S y.i.i.D.",
"- - > { | +.$. .0  .>.2.Y.`.Y U I r 9.@.} 9 } =.=.=.4.5.=.5.5.=.#.#.&.=.&.} 9 ` <XK M c.H.J.v.)..Xx.D 9.k.}.k.S A A F A F p.M.p.",
"- - 1 4 | X.$. .0  .2.2.Y.{.R Y I I y @.e *.=.*.#.#.*.#.o.*.$.@.-.&.&.t o.#.%.j.<X/ z.n.a.a.k.)..Xk.D D j.{.F.w.A A A A F p.M.M.",
"$ - 1 2 | X.+. .| +.1.2.U.3X~ Y P U S @.6 t o.&.&.=.5.5.4.6.6.*.&.-.&.&.o.o.t e /.Z.).v.L.K.b.`.'.Q C m k.`.G.9.B A A F w.p.i.M.",
"- : 1 , |  .+. .0  .1.v.U.1XW P I I y t e t &.0.#.&.*.*.*.-.*.&.4.=.=.=.&.| &.9 ^ D.I.a.P.t.N.{.:XH C m w.{.J.9.A B A q.F i.M.w.",
"- : 1 , | X.+...0  .*.I.U.}.W Y I Y @.t o.e e t t e o.#.4.6.5.&.4.-.-.=.6 6 o.0 A K.s.P.*Xv.v.`.}.H n n H {.F.w.B A A G 9.u.y.H ",
"- - > , { +.+...4 ..1.v.U.|.W T I Z @.t &.&.=.4.=.o.-.&.#.6.5.4.=.4.=.1 5 8 t o.9 s.P.K.K.j.i.).}.m.n n Z `.D.w.C B A q.w.i.H H ",
"- 1 , , { >.+...4  .1.2.U.[.W Y P y o.e #.*.*.#.o.o.#.&.#.#.:.#.4.=.e 5 7 7 6 #.q r.=X*XK.s.e.F.}.m.n m D {.N.F C B F D C G J i.",
"- 1 , 2 | +. ...4 | 1.2.U.|.~ Y P y @.o.o.&.-.=.t #.6.5.5.4.&.&.=.9 5 7 h s s t 9 A P.=X*XL.s.M.{.N.C m J [.j.F B B A C C H y.p.",
"$ 1 2 2 | +.....2 | X.2.U.|.~ Y P r #.r.&.4.4.-.#.t t ;.#.} t &.%.5 h h j s h k { e s.P.K.s.L m.T.F.A m k.J.w.A A F A Z J L q.u.",
": > { , |  . .w 3 { X.2.I.|.~ Y P Z t o.t o.o.9 C V i n V n n n n i 9 C C n 6 e 9 9 r.r.G L S.B.J.J.v.V F.N.H C F H Z D D D q.u.",
": > , , |  .O...1 { X.2.I.|.c.Y U r @.n m N M K J ^ ( W / _ c._ c.z.,.C / / ^ N m 6 o.A L S.` B.T.D.b.g.v.i.A G G D C H D J G u.",
"* : , , | X.+...3 { X.-.I.|.c.P r @.@.h ' ' E.' ] W.W.W.W.W.W.R.W.W.<.7 ] W.W.R._ Z S Q ( ` i.H.F.J.N.k.j.e.q.q.A C D G J L G u.",
": : , , 0  .+...1 { %.v.I.|.~ Y k 9.t h ] c z l z ' [ ' [ [ z z l z j O.z z z _ -Xk.C F F.(.D.J./.F.D.k.M.i.w.m.H Z J G J G 7.u.",
": : 2 > 0 X.+...: 0 %.2.I. X) T R r @.r ) _ c.S.(.Z.(.A./._._._./.h.k g.Z.S._ -X:XF.( n g.Z.J.T.'.N.n.Z.k.i.B.G.H D G G J G q.u.",
": 1 2 , |  .O.w : q  .*.I.[.! E R r 0.t A.;X/.5X`.:XqXwXqXqXnXnX1Xt.r.J.qX5X/.-X-XH.N.g.g.Z.N.).Z.x.'.'.G.u.g.C.J C G G L H 7.u.",
": : , > 4  .>.w % 4 | 2.I. X~ ! ! r 0.t / j.t S } } _.`.w.9.6X2X2XCXwXnXVXCX(.v b V.J.b.F.'.'.Z.x.'.'./.'.g.m.j.G C D G L G 7.u.",
"* : , : 3 ..+.w - 4  .;.v.|.d.T E h 9.0.9.t h./.-X<XS 9 A.0.j.C.C.H.5XBXVXVXS.v N B.#XJ.H.}.].'.'.'.`.'.'.'.C.m.J J ` ` L B G u.",
"$ * > : 9 | >.u 1 2 { 2.v.XXc.k E Z @.9.t ( qXwXBXwXC._.BXC.M A.nXnXA.qXVXnX:X` ` 2X1X}.J.'.H.C.Z.j.L.D.` C.h.j.H K G L u.G 7.q.",
"# $ : * q 0 $.w : 4 X.1.U.XXG.T h r 0.t 8 V./.>XwX1XwXg.nXVXwXVXVXNXnX-XVXCX-X>X>X9X4X1X#X@X1XT.G.b.D.K.K.D.i.w.G V G G G D G G ",
"# $ : : 3 t >.O.1 q X.2.n.XX).T S 0.0.t M S./ 5 h.nXVXH.C.nXCXnXVXVX/.I ` 5X:X-X1XdX7X0X%X0X9X0XJ.'.N.s.*XL.P.q.D D V D V K D L ",
"# $ * : 3 0 >.O.3 4  .1.n.XX[.T r 8.e.} @.A.S.X 8 5XVXVXH.C.VXCXBX(.X 8 ^ ` -X:X9X9X7X8X0X8X9X0X}.).F.7.s.u.G J L D V K V V V L ",
"# $ * : 3 q >.>.4 4 X.1.n.XX}.R P e 8.8. .d.(.o X ^ wXBX:XA.C.2XqX. . . I M -XpXpX9X7X9X7XdXeX9X3X}.).k.w.w.H D D D D D D B G L ",
"# $ & * 1 3  .X.0 1 >.1.n.XX).h R S } o.S /.S.. X X /.qX_.wX;XJ.V.X . . M ^ ` 9XaX7X7XlXdXbXxX7X9X3X|.J.F.j.t.w.G D D V D L p.L ",
"+ $ & * 1 q ..{ q 3 ..>.U.XXG.I r 8.8.#.d.>X:X/././.>XA.>XqXnXnXI X . X M ( S.qXlXlXlXyXzXbXgXjXeXeX3X{.J.v.j.q.q.7.G G B B B p.",
"# $ # * > 3 ..| w 3 O.f.U.XXc.7 y A e.8.8.#XqXwXqXwX5XZ.>X5XwXqXo . . . M / S.6XlXlXyXpXvXZXgXAXcXeX3X1XT.F.t.e.q.B B B B B u.p.",
"+ # # : : 3 w { ..3 ,.>.Y..X) r O.0.q.8.t ) ].(.~.~.[ E (.5XqX>X. . . . I S.A.6XpX4XlXpXDXbXvXJXMXcXeX3X}.J.t.q.q.B A B B B u.u.",
"+ # # & 1 4 0 | ..4 ..>.Y..X~ y t *.#.7.Z x x ] [ x z.j z.<XqX;XX . . . ^ -XA.1X9X7XlXyXfXDXgXJXNXMXeX9X1XT.D.e.8.7.A B V B 7.u.",
"+ + # : > 4 0 ....3 O.>.T.[.T r o.8.t C ~ R.W.W.Q.3.&.,.!.oXoXQ.Q.Q.Q.Q.Q.E.,.OX!.OX!.oX^.>XgXZXBXNXcXeX0XT.D.a.q.B q.B V B q.p.",
"+ + # & 1 3 0 ..+.3 ,.>.T.[.T Z t 8.t W.!.Q.Q.Q.Q.W.c ,.<.x ] E.x ! l x E.t M z ] R.c ] Q.`.gXNXGXNXMXeX9X0X%XD.i.G A A B B G u.",
"= + + & > q 0  ...w ..>.T.[.T a e t e a l d 5 v 5 d s 8 m N a z N b o l z t v 5 _ [ $X:XpXkXMXFXHXNXMXxX9X0X&XJ.i.w.e.F C B A q.",
"= + + * : q w  ...w ,.>.T.[.R P 6 r e e l l d a d l j d h p l ' R.~.] [ k x [ ' R.'.vXDXgXbXGXNXvXvXdXiX8X0X&X%XD.i.i.q.A A G w.",
"  + + * - q | $.O.w O.>.[.[.j Y I e e 6 j x l l l j l l j O.h [ ~.~.W.~.,.].<.l.,.`.cXaXbXFXBXBXxXuXfXiXiX&X&X&X#XM.D.i.C A q.F ",
"    = $ * 3 w X.+.w O.>.Y.[.T h Y I r 6 7 z z j l l d ( i.v.9.k t.f.W.[ :.,.z.E.~.9XcXmXBXBXBXNXcXfXfXiXiX8X8X8X&X@X@X@Xw.A F F ",
"    O # % 3 q +...0 O.1.T.[.Y a P P T R 6 h z l l l W L p.e.a._ <.$.E.R.z.,.k c ].sXMXBXBXVXBXmXbXMX9XuX8X8XaX8X&X%X&X@XD.p.G H ",
"    O # % 3 0 X.,...+.>.Y.[.h P I Y T ! h h d j l j g d j.t.S g d.} l x z j j j 2XbXMXmXNXNXNXbXvXGXNXsXaXaXaXaX4X&X&X&X%X@Xm.S ",
"# @   + $ 1 0 X.O.w O.1.Y.[.T P I P T Q E E d d p 5 p p S u.p.M s y h d 5 e r _ zXCXBXNXMXBXmXbXxXFXBXsXsXcXgXaX8X4X&X&X4X&XB.m.",
"@ #   @ $ - 0 X.>...w >.Y.[.T Y P Y ! T E W W U p p a M e.a.D s z h h g s ) ] Z.zXzXxXMXNXBXMXxXxXFXGXzXsXbXgXaX8X8XiX8XlXSX#XC.",
"@ & @ = $ 1 4  ...,...>.U.[.h Y P Y T T T ! W d s 5 ! h.M 9.f.5 d m.;Xp f d c.9XsXvXbXMXNXBXcXzXvXFXGXxXsXbXvXaX7XuXaXiXjXKX4XC.",
"@ & + = # - 4 | ..0 w >.U.[.! P Y Y ! ! ! ! ~ U a p d.n.^ M Z d d %XkXU p f :XxXvXPXNXVXFXmXvXsXhXFXGXbXzXbXgXaX7XaXuXfXJXKXhX#X",
"@ & & = @ $ 4 | w w O.>.U.[.E Y P Y ! ~ ! ~ ~ j d 5 d.b.! I p d _ pXhXP d g '.vXDXBXBXGXGXbXzXdXpXHXGXbXxXMXgXaXaXaXfXjXLXKXLX4X",
"@ & ; + @ $ 2 0 w w O.>.U.}.W Y a R ! ~ ~ ~ ) j I p l.k.^ 7 7 o._ vXvXP f g :XAXZXVXGXKXGXcXsXhXlXMXGXMXxXbXsXpXaXfXfXkXLXKXKXhX",
"O & & + @ # 4 { w w ,.1.I.}.E P P Y ! ) ! ) ) W U p d.k.T M 6 t k cXDXs d g :XZXMXBXKXKXHXxXgXaXpXzXGXmXxXbXsXuXaXfXfXAXLXKXKXLX",
"O # ; & @ & 2 { u u w f.U.[.T Y P Y ~ ) k z.z.W d 5 d.k.W I p 7 } %XhXI f g _.FXVXHXKXGXmXvXsX9XhXJXHXNXzXcXdXpXaXfXjXSXKXKXKXLX",
"O # ; & + & , { 3 u y >.U.).P Y P Y ~ ) ! z.z.W I 5 ! k.^ I p h y :XgXU s g :XBXMXGXKXGXMXgXsXhXJXKXHXNXzXxXhXpXfXgXjXAXKXLXKXZX",
"O # ; ; + + < { u u O.>.Y.G.P Y I P ! ) ! d.z.W d 5 Q x.^ I p f _ AXzXd f g _.bXmXKXGXGXMXgXdXhXKXKXGXNXzXzXdXpXaXjXjXSXSXAXLXJX",
"@ @ & & & @ > { u u ..>.Y.n.h Y I U ! ) ! d.z.W s 5 d.x.^ 7 7 f _ vXhXU f g _.mXVXGXGXFXbXvXsXpXJXKXHXVX9XzXaXaXfXjXkXkXSXJXJXKX",
"@ $ & ; & @ > { 1 u k >.Y.c.a Y I P E ~ ~ d.z.W d 5 g.k.^ I 6 o.l.zXDXU d g #XbXVXGXGXFXbXsXdX9XZXKXmXmXdXsXhXaXfXgXjXAXSXAXLXKX",
"@ $ & & & + > 4 u u w >.Y.c.U Y I P E d.~ d.z.j s 5 s h s s 5 8.e k.(.d f g _.vXNXBXGXFXZXgXsXaXPXZXMXMXhXsXhXaXgXjXkXJXJXAXJXKX",
"@ @ & ; < # ; 4 u u w >.Y.~ Y Y I Y ( d.~ ~ c.W a 5 a Y I 5 p f s / ` U p f #XbXVXBXFXHXbXsXdXdXhXpXcXbX9XdXpXfXgXjXkXJXJXSXKXZX",
"@ @ - - < # ; 4 u 1 ,.1.Y.~ P E I P ~ ~ ~ d.) s s p a h s 7 s l z (.$Xd d d j 6XFXNXFXHXbXgXdXdXhXlXcXxXdX9XpXaXgXkXAXJXKXKXJX7X",
"O @ $ % < & ; 2 4 u ..f. X( P Y P P ! ~ ~ d.j s p d p p p p 5 f g g f f f l c.6XNXNXHXHXbXgXdXsXzX6XdXhXaXaXaXdXDXAXAXLXKXKXgXaX",
"@ @ $ ; < ; ; 4 u u O.1. X~ I E P Y ! ! ~ d.d.~ Q ,.! d.h.b.B.S.#X1X4XtXqXtXfXdXcXmXMXHXbXgXdXsXzXpXhXpX7XpXpXfXDXAXAXJXKXJXpXpX",
"@ @ @ ; < ; ; 4 u u +.v.XXx.P E I Y Q ! ~ d.~ ! l.l.k.F.b.T.#X$X%XyXkXLXKXSXfXdXbXbXbXMXbXvXaXsXzXfXpXpXpXpXpXgXDXAXAXJXZXuXyXpX"
};
