/* XPM */
static char *result[] = {
/* columns rows colors chars-per-pixel */
"64 64 255 2 ",
"   c #307633",
".  c #417F3F",
"X  c #174948",
"o  c #1C5448",
"O  c #1D5B48",
"+  c #1A5347",
"@  c #245B48",
"#  c #315F47",
"$  c #1E6249",
"%  c #1B6847",
"&  c #1D7B47",
"*  c #236449",
"=  c #2C654A",
"-  c #246B4A",
";  c #2B6C4B",
":  c #246846",
">  c #356A49",
",  c #25734D",
"<  c #2C734C",
"1  c #2D7A4E",
"2  c #24784B",
"3  c #33734D",
"4  c #347B4D",
"5  c #3C7C4C",
"6  c #3A7548",
"7  c #2C7C51",
"8  c #347B52",
"9  c #3C7C52",
"0  c #367855",
"q  c #326D53",
"w  c #337864",
"e  c #447A49",
"r  c #567B48",
"t  c #437D53",
"y  c #3A8B2D",
"u  c #2C9222",
"i  c #36962B",
"p  c #3C8C32",
"a  c #3C9733",
"s  c #37A42E",
"d  c #3BA432",
"f  c #448D39",
"g  c #45973B",
"h  c #43A23A",
"j  c #47B83C",
"k  c #1D8D4B",
"l  c #39854D",
"z  c #2B8654",
"x  c #348353",
"c  c #3B8453",
"v  c #398A57",
"b  c #389559",
"n  c #2C8E50",
"m  c #28A856",
"M  c #27B856",
"N  c #34AF57",
"B  c #3B8866",
"V  c #3B9766",
"C  c #399271",
"Z  c #36AE69",
"A  c #1FA752",
"S  c #46874A",
"D  c #568849",
"F  c #4B9746",
"G  c #54974A",
"H  c #438353",
"J  c #4B8554",
"K  c #438B53",
"L  c #4C8C54",
"P  c #438B5C",
"I  c #49885A",
"U  c #538B57",
"Y  c #4A9355",
"T  c #489759",
"R  c #549255",
"E  c #549359",
"W  c #539B5C",
"Q  c #5D9C5C",
"!  c #5A9558",
"~  c #66894A",
"^  c #6A9A4B",
"/  c #639C5B",
"(  c #679B59",
")  c #739B5A",
"_  c #4BA347",
"`  c #57B849",
"'  c #4AA65A",
"]  c #5AA65B",
"[  c #51AE4E",
"{  c #63A45D",
"}  c #67A75A",
"|  c #72A55D",
" . c #78A657",
".. c #68BA56",
"X. c #6EA74C",
"o. c #448B65",
"O. c #469668",
"+. c #569A66",
"@. c #469875",
"#. c #589977",
"$. c #558B70",
"%. c #669B65",
"&. c #659A79",
"*. c #49A769",
"=. c #58A565",
"-. c #4BA477",
";. c #56A779",
":. c #57B677",
">. c #55B869",
",. c #67A963",
"<. c #7CAC62",
"1. c #73A965",
"2. c #68B264",
"3. c #78B667",
"4. c #70B078",
"5. c #33D36A",
"6. c #2DD764",
"7. c #5CC447",
"8. c #68C84C",
"9. c #69C654",
"0. c #72CE58",
"q. c #77C669",
"w. c #7AC976",
"e. c #6FC670",
"r. c #89B05B",
"t. c #88B867",
"y. c #95BB67",
"u. c #8AB572",
"i. c #A1BC75",
"p. c #98C269",
"a. c #89C777",
"s. c #99C675",
"d. c #8DD572",
"f. c #A5C66B",
"g. c #A7CA77",
"h. c #B2D177",
"j. c #A2E275",
"k. c #94DE6A",
"l. c #509B85",
"z. c #7A9B88",
"x. c #6C998C",
"c. c #4CA584",
"v. c #57A988",
"b. c #59B387",
"n. c #59B193",
"m. c #79A98C",
"M. c #68B68B",
"N. c #7AB88C",
"B. c #68AA97",
"V. c #7CAB93",
"C. c #66BA98",
"Z. c #6AAF90",
"A. c #75B6A6",
"S. c #39EE87",
"D. c #52D793",
"F. c #7CC78B",
"G. c #6AC697",
"H. c #7BC897",
"J. c #77D390",
"K. c #4BEF93",
"L. c #77E198",
"P. c #78C9A7",
"I. c #7AD6AA",
"U. c #72D1A9",
"Y. c #6DF7B4",
"T. c #59F9A4",
"R. c #7AFFC2",
"E. c #88A897",
"W. c #85BA98",
"Q. c #8EB38A",
"!. c #99B8A9",
"~. c #92B9AF",
"^. c #A2BCB5",
"/. c #A4BFA6",
"(. c #99D885",
"). c #8AC69C",
"_. c #86D69B",
"`. c #91CF8B",
"'. c #A6D685",
"]. c #B9D487",
"[. c #AFD08D",
"{. c #8EE296",
"}. c #A7E595",
"|. c #96C6A9",
" X c #85D8AB",
".X c #98C6B6",
"XX c #86DBB5",
"oX c #8ECFB0",
"OX c #A8C7B9",
"+X c #B3C9BD",
"@X c #A8D4B9",
"#X c #ACD7A9",
"$X c #8AE7A4",
"%X c #98E5BD",
"&X c #8FEFB1",
"*X c #B8F7B8",
"=X c #AEECAF",
"-X c #C9F2B6",
";X c #98D9C7",
":X c #97D3C5",
">X c #AAC9C3",
",X c #B8CDC7",
"<X c #B8D4C7",
"1X c #AED6CB",
"2X c #98E9C6",
"3X c #88FBCA",
"4X c #9BF7CA",
"5X c #9BF9D6",
"6X c #94F2D1",
"7X c #A7EBC7",
"8X c #A5F6CA",
"9X c #BAF9C5",
"0X c #B5EAD5",
"qX c #A4FBD9",
"wX c #B7FAD8",
"eX c #AEEDC8",
"rX c #AAFCE7",
"tX c #B5FDE8",
"yX c #B7FEF5",
"uX c #A0FFF5",
"iX c #C6D6CB",
"pX c #C8CED1",
"aX c #C5D3D3",
"sX c #CCD3D3",
"dX c #CDDBDB",
"fX c #CAD8D7",
"gX c #D1D5D5",
"hX c #D3DDDD",
"jX c #D7DCDC",
"kX c #C7CDCF",
"lX c #C9FCC7",
"zX c #D7FFCA",
"xX c #D5E1DE",
"cX c #C8FCD6",
"vX c #D6FDD7",
"bX c #CCE7D4",
"nX c #F6FEDA",
"mX c #ECFED2",
"MX c #D5DEE0",
"NX c #D5E2E2",
"BX c #DBE4E4",
"VX c #DCE9E6",
"CX c #DDE9E9",
"ZX c #C7FEE8",
"AX c #D3FFEA",
"SX c #C7FFF9",
"DX c #D8FFFC",
"FX c #C9EDE2",
"GX c #E3ECEB",
"HX c #E3E8E8",
"JX c #EAF9F8",
"KX c #FEFFFF",
"LX c #F5FAFA",
"PX c #EFF9E8",
"IX c #AEBFC1",
/* pixels */
"_.).oX_.).W.W.V.!.V.+.M.Z.b b z n #.LXxX0 1.j.].}.`.#X9XmXmXbXvXmXmXwXwXcXAXeX7X2X7X7X0X6X6XrXrXyXDXnXmXmXlX7X9XcXnX(.0.] _ y y ",
"E.W.W.W.W.V.V.E.,XIX>XOXBX>X^.^.@.b ~.fX1.p.a.w.d.Q.[.#XzX-X-XnXPXnXvXqXbXcXeX:X:X7X6X0X6X5XqXyXyXDXmXmXlXeX@X9XPXnXd.9.} F f   ",
"z.E.E.Q.E.V.E.^.kXgXhXdXNXNXhXhX,X;.b ,.s.f.r.' >.i.].#X].-XmXnXnXPXnXcXvXeX7X;X0X0XwX0X2X6X5XrXyXDXmXlXeX.XbXnXPXzXd.9.X.^ f   ",
"E.z.z.z.z.E.,XsXkXpXBXCXNXdXaXaXiXx.W p.f.p.t.[ M u.g.].].-X-XcXzXmXnXnXcXwX7X0X0X0X0X6X6X4X5XrXyXDXcX9XlX7XmXlXlXlXd.9...f f u ",
",XOXE.E.z.!.MXjXkXgXHXGXNXdXMX>X$. .r.1.p.p.3.{ N 8 %.4.Q.`._.Y.5X4X7XcXwXwXeX;X5XrX5X5X6X5X6XrXrXSXvXlXzXeXeXeXlX*Xe.9...G g y ",
"fXdX^.E.E.IXjXjXgXgXHXGXVXNXOX+.! y.t.+.| t.{ / t.W =.J.{.(.[._.&X3XtX5X5X7X7X;X;X1X;X;X;X;X;X5XrXyXlXlXlX=X%XeXzX*Xq.9...D G y ",
"aXdX!.&.E.pXHXBXsXsXgXxXVXVX&.| i.) ! *.2.3.Q Q f.y.w.w.F.a.'.[.D.R.5X3X3X7X;X7X;X:X:X;X:X;X6XyXyXSXZXlX9X=X;XcXzX-Xd.7...D F f ",
"fXfXE.z.!.jXHXBXgXkXpXjXVXCXQ.) r.| K T t...E +.h.t.e.`.w.a.u.'.M.D.U.oXoX:X;X;X;X6X;X;X;X6XrXrXtXDXZX9X8X%XlXzXlX*Xd.` ..G F f ",
"gX,Xz.E.,XCXGXHXgXgXjXBXHXBX,Xz.U %.I +.3.] L E g.3.w.w.2.a.t.`.(.F.F._.$XI.:X:X:X;X;X6X6X7X5XrXrXSXwX%X8X9XzXzXlX*X(.7...G G g ",
"dX^.z.OXMXHXGXBXgXgXBXGXPXHXMX+X1.' B ' } W J U g.e.w.2.' a.u.a.a.`.`.J.$XXXXX2XI.:X:X6X6X5XrXyXSXLX0X%XcXvXzXlX*X=X}.0.` F G F ",
"+XE.E.fXdXCXGXHXgXgXjXGXHXBXfXi.| b ' { { Y c J p.e.4.=.,.3.s.a.3.w.a.J.J.J.I.I.I.2X2X2X4X4XyXyXDXAXcXtXtXtXcX*X9X9X}.q.` F G g ",
"E.z.>XMXMXCXGXBXkXgXjXxXBXHX#Xy.+.=.u.,.W Y 5 3 =.e.>.T ,.w.a.a.1.2.3.e.e.D.G.G.I.2XI.:X2X5XqXyXSXwXcXcXZXZXwX9X-X9X=X0.` g D g ",
"z.E.aXhXdXGXGXBXsXsXhXVXBXaXu.y.,.*.[.,.Y K 5 = v 2.>.P } w.s.a.3.2...=.>.:.G.G.U.I.XXXX2XqX5XtXDXAXcXAXZXZXtX9X9XZX*Xw.` g f g ",
"E.+XNXdXdXGXGXBXsXsXhXNX+Xu.| f.s.v 3.,.Y c 3 3 o.O.*.v / d.a.a.3...] ' *.-.-.b.G.U.P. XXX8X5XrXSXDXzXvXZXwXtXlXwXtX=Xd.` g f f ",
"OXdXdXMXdXGXGXBXgXsXjXNXi.y.r.1.*.b V T T K , #.iX&.T P 2.d.a.t.3.2.] Y b N O.@.b.M.C.P.XX4XqXqXyXAXzXlXwXZXcXZX8X2X=Xd.j f f f ",
"fXdXdXdXhXGXGXBXgXsXNXaXQ.1.1.i.=.*.T b b b b o.jXQ.c +.g.g.a.q.3.,.] ' T n b C -.b.Z.C.U.XX4XqXyXZX-XZXZXlXDXwX%X%X@Xk.7.i f f ",
"iXdXNXdXdXGXGXVXgXgXjXGX/.( t.u.g.1.3.T c c z b V.Q.( y.p.3.w.2...[ T Y b z z z V ;.;.n.G. X4XqXyXcXtXAXlXAXDXqX8X%X%Xd.` i y f ",
"fXdXdXfXfXCXxXhXgXgXHXLXOX .p.g.h.y.1.] K K q @.N Y y.f.p.[ 7.N M A M k b b 7 % v ;.@.;.M.H. X4XrXyXZX-XZXDXZX8X%X%X%X{.` i y f ",
"<XfXMXfXfXNXgXsXpXgXHXLXiX| y.p.g.s.,.' K H t E.} f.f.p.a.] M 6.m M M A k n z % z *.O.o.b.M.P.%XqXyX9XcXSXLXZX4X2X&X4X}.7.i y g ",
"Q.!.aXdXfXNXsXkXkXgXHXLXiX^ y.y.s.s.,.+.c K J t.f.f.y.p.3.} [ m k A k k n b 2 , z b b B @.b.Z._.4XqXSXZXSXJXtX4X8X8X%X}.j i f g ",
"W.N.<XhXgXCXMXsXpXgXHXKX+X! t.t.p.p.=.W v c U y.f.y.y.y.| Q t.] n n &   ' b 2 , n b V C C -.&.M. X8XtXtXSXKXAX4X8X2X2X}.9.s g g ",
"(.`._.=XdXGXNXjXsXgXHXKXhX( t.t.u.u.,.T K ( r.r.1.| t.t.] E p.g.} b b b b v 2 2 n V Z C B #.+.&.C.%X4XuXyXLXKXqX4X%X2X}...h g g ",
"}.J.J.J.@XVXBXgXkXgXHXPXKXQ.} <.3.t.,.+.P ) r.i.1.t.p.3.] U i.f.} l ] 2.' z 2 2 b m C c.B P +.$.;.H.%X6XuXKXJXqX8X*XeX=X9.d g _ ",
"{.L.{.L.L.#X@XkXkXsXHXLX,X&.! 1.1.3.,.+.P t r ! { p.3.} E I y.h.1.n ] ] T v 2 z b V C v.c.9 J $.o.v.I.2XyXKXKXJX5X*X=X=X3.g h ^ ",
"&X$X$X&X$X{.L._.+XgXHXLXE.U 1./ ,.1.,.+.T 1 E  .t.p.3.] L J y.h.t.l ] 2.T x 2 z b V C ;.n.B I t o.$.M.I.0XKXKXAX4X*X*X=Xq.g g _ ",
"$X$X$X$X$X$X$XL.`.iXVXLXV.t H I +.{ +.T P ( y.y.p.a.} Y K 9 y.h.t.K { =.T 1 , n b V -.b.$.9 I t 3 0 O.Z.I.FXKXtX&X*X*X}.a.g g [ ",
" X{.{.$X$X$X$XH.|.sXVXPX,Xt t I Q E J K W y.y.i.h.t.] Y H ; r.h.t.L ,.,.K 1 1 b b C c.C.v < B I 8 ; 0 ;.P.I.AXAX&X*X*X=Xq._ g ^ ",
"F._.).).J._.H.N.W.kXHXGXJXaXfXz.S Y L K ! y.g.].[.3.Y K t @ J g.y.Q { ] v 1 7 b V C c.l.l.l.@.t 9 < * v M.P.2X&X&X=X=X}.3.G F G ",
"m.N.m.m.F.N.N.).OXgXVXGXVXNXNX!.5 H L ) | p.].].g.2.Y Y 4 3 P u.p./ Q W v 1 z b B -.C W.MXOX0 9 9 4 $ < #.b.U.U.`.{.#X}.q.] f G ",
"V.E.!.W.OX<X|.OXkXgXVXGXBXfXfX^.H 8 U f.r.g.].].s.=.Y K 8 9 9 E f.] R Q v 4 x T V c.A.CXNXOX$ 0 0 9 - < H -.C.J.:.).).`.q.{ F G ",
".X<XhXfXfXGXbXfXsXgXVXBXdXaXfX/.L H U <.| g.].h.a.] Y K 0 o - U y.%.S W c 1 v V V c.:X>X.XBX#.: 0 9 - , c B M.;.+.4.E.(.q.{ F F ",
"fXxXNXVXdXCXCXhXkXgXxXjXfXaXkXu.X.9 t ) <.g.].g.3.] K K ; + : I p./ J Y x 1 b V C n.x.B.B.,XOX$ - 8 - , c V #.$.U %.4.a.q.] F D ",
"<XdXNXNXdXVXNXhXsXgXBXMXdXgXOX<.t.L t r.y.s.h.g.3.] K K q o @ t y.Q e Y 4 x v V -.@.v.A..X>XNXE.q 8 < - x B ;.F e %.%.a.q.{ F D ",
").>XNXdXfXBXBXBXsXgXjXBXhXjXIX<.t./ 9 ( y.p.g.f.1.=.Y K 9 > X ! t.R 5 K 9 c b *.C c.~.l.l.1XjXfXw 0 < - c o.-.e 6 r / t.w.2.F S ",
"F.|.dXNXfXCXVXNXsXsXBXBXNX,Xb.]  .( L ! r.p.s.s.1.=.K c H 0 @ %.<.J 5 S 8 x V O.C C.1XB.n.dXpXP % 0 - , P @.o.  e D D 4.q.} F f ",
"H.F.,XMXdXVXVXNXsXpXjXBXBX>Xm N ] W R ! r.t.t.s.,.=.K H 9 e > U } H H c 4 x V *.@.C.CX>X:X,Xo.- 0 < , 8 @.#.t e D H @ `.9._ G F ",
"$X{.oX@X<XNXBXxXpXpXjXjXMXaX@.m N c U ! r.t.u.p.,.' K K H t > J U H l 4 8 x *.-.c.P.JXCXNXm.2 < , , 8 O.v.;.e D c 3 > (.7.d Y f ",
"&X$X{._.oXdXdXdXsXsXjXNXdXfX>X!.U R ( ! } <.3.u.1.+.P c L J q 6 c 4 3 1 4 v -.-.c.U.BXCX,Xx < 1 - 0 I b.C.I S b *.5 r s.` _ F F ",
"&X$X$X_.|.aXdXfXkXsXxXNXMXfXfXfX4.^ R R E 1.,.t.,.W T c L L c n l 4 3 < 1 v ;.:.c.n.NXMXl.- 1 q - v ;.n.P l P v.<X} D (.` h F f ",
"&X&X$X_._.|.fXfXpXsXhXVXMXdXfXaXpX+.> U 1./ %.,.,.+.T x I t N z 3 3 < < 1 v :.b.n.C.>XB 2 4 < < 9 +.C.o.  $.c.G.oXoX/ (.j g _ F ",
"&X$X_.H.F.W.<XhXkXgXxXxXxXxXdXaXpXfXx.t U I Q %.+.E T x c c z = < ; ; ; < v :.M.b.n.@.z 7 ; < 8 E v.;.5   @.Z U.1XA.iXj.d d F F ",
"=X$XJ.F.N.W.<XhXsXsXBXHXNXdXfXaXpXdXfXw 3 e Q E L Y T v x 8 8 = * * ; * < v 4.M.n.n.v.7 1 < 0 I %.C.+.> 3 c.-.G.P.>XbXd.d F F F ",
"*XoX`.N.N.|.MXMXsXgXHXHXVXdXfXaXpXaXCX!.S H L Y L L b v 1 4 8 e @ @ * O ; l ;.G.n.>Xl.; 3 3 P E ;.v.o.@.v.@.T n.U.aX<Xd.d a F a ",
"&X{.W.N.m.OXBXMXsXgXxXHXVXdXfXaXaXaX<XB.5 t H H K Y P x 1 4 t H = o * O < K ;.C.n.B.0 < q 9 I ! @.B t 0 o.5 b Z U.dX+X0.d a F p ",
"=X@X@X@XOXdXCXVXgXkXgXjXCXMXaXfXaXdX.Xm m l K S 4 K K x , < 9 H 3 + @ O ; x c.n.C O 8 ; 0 J R U #.L 6 >   9 v *.Y.1X#X0.s i a p ",
"cXbXJXJXGXGXHXHXgXkXgXjXHXBXdXpXkXdX|.6.5.5.E L 6 ; c x , * 4 e J @ X o ; 8 #.C * - ; ; t L U E O.F e = = 6 F *. X>.{.0.s a p p ",
"KXKXKXKXJXLXJXBXgXgXjXHXGXCXdXaXaXfX<X:.M 2. .H H ; ; 7 - $ ; 3 e 6 X @ * 0 B - $ - - 3 t U ! Z.w l S 6 : 3 S *.*.[ '.0.s i y p ",
"KXKXKXKXKXKXKXGXsXgXBXGXGXVXdXfXaXaXCX.X8 ! y.! 9 3 * - % $ : ; 6 t @ X @ * $ $ - $ ; 3 I +.O.~.#.  K _ F l S Y F ] (.9.s a i p ",
"KXKXKXKXKXKXKXLXjXsXMXCXCXNXhXaXaXfXdXCXpX%.t.| H 5 - @ - $ $ : = e @ X + O $ O * - = 9 #.B.w x.x.  > 4 H e 6 F } G s.8.s d a a ",
"KXKXKXKXKXKXKXKXGXjXjXBXVXVXhXfXaXaXdXMX).=.r.X.! H 4 * $ % O : = > 3 X X O + o * = q E #.~.C 7 n : 4 @ @ f X.} G D '.7.d h a a ",
"KXKXKXKXKXKXKXKXLXGXBXMXNXBXMXfXaX,XgXBXC M ] W ( R H 1 * O $ O * = 3 X X O + O $ ; P ;.o.w C C M l 3 S ^ r.r.G ~  .h.8.d F a F ",
"LXKXKXKXKXKXKXKXKXLXLXGXVXBXhXfXpXpXMXGXA.m 5.v S ! H l 1 % $ $ @ * 4 @ X O + o * < o.;.~.x.C Z m n _ ^ r.r.~ ~ X.) '.0.j _ d _ ",
"PXKXKXKXKXKXKXKXKXKXKXLXJXBXhXfXaXfXBXLX!.F t J / ( L c l 1 : - ; ; > 3 X o X O : 0 O.;.x.l.l.A y l ^ r.r.r.^  .~ ~ s.k.7.[ h h ",
"SXDXKXKXKXKXKXKXKXKXKXKXLXJXMXfXfXdXGXGX=.{ %./ ! ( R H K 4 < < < < 3 H 3 + o * < c +.&.w @.l.w x e X.y.r.r. .~ ~ r s.k.7.[ _ g ",
"SXDXDXLXKXKXKXKXKXKXKXKXKXKXGXdXaXMXFX.X2.] s.%.5 Q G H S c c 4 8 9 3 J t o o * < P =.o.w l.^.B.^.D  .r.r.) ~ r ~ > (.k.7.[ _ a ",
"SXJXLXLXKXKXKXKXKXKXKXKXKXKXJXFXgX.XD.6.] ] s.i.3 e R 6 S E K x 4 P 9 J E @ o $ , v =.P C w ~.B.#.D  .r.^ ^ r ~ r > s.j.7.j d i ",
"SXDXKXKXKXKXKXKXKXKXKXKXKXKXKXcX0X:X6.6.Z ,.g.u.0 0 R e 6 / R K 4 L P H U 8 + @ , v =.+.o.@.l.l.0 F ^ ^ ^ ~ r r # 6 r.j.` j h i ",
"SXJXKXKXKXKXKXKXKXKXKXKXKXKXZXY.K.L.5.Z T 2.'.4.0 : J L > ! Q W l K E U U H @ $ , c O.O.@.l.C A.$.f ~ D ~ r r r # .  .j.8.j d u ",
"SXKXKXKXKXKXKXKXKXKXKXKXKXLX3XT.S.S.T.;.' ] s.u.0 % c J 6 H | / R H Q E U K ; * 2 x P P @.B C fXz.= D D D S D e X > G j.8.j s u ",
"JXKXKXKXKXKXKXKXKXKXKXKXKXAX3XT.Y.T.S.5.V T u.`.0 m N z 2 k | ( { S ] %.E U 8 - 2 x P P o.C B.dX;.: 5 e S f S > X # U j.8.j s u ",
"LXKXKXKXKXKXKXKXKXKXKXKXLXZX3X3XR.R.Y.K.c.m 3.u.O.M 6.5.5.n R ( | ( R 1.%.U 9 - , x B B o.C ~.OXM A 2 ; 6 _ l # e > 6 k.8.j s u ",
"LXKXKXKXKXKXKXKXKXKXKXKXKXLXtX3XR.Y.R.Y.S.Z :.w.+.k N 5.m 1 R  .} } R 1.1.U v , , 8 B O.O.C A.dXM.N A % 0 [ e 6 ~ 6 * d.0.j s u ",
"KXKXKXKXKXKXKXKXKXKXKXKXKXKXJX5XR.R.Y.D.B.x.M.w.2.v 1 l 1 <  .r.( | R { <.+.c 1 7 7 v O.O.@.v.fXfX.XN.V.K F 6 r ^ e = 3.8.j s u ",
"LXKXKXKXKXKXKXKXKXKXKXKXKXKXKXZX6X3XoXoX.X!.M.`.4.] - 4 l L t. .} | R Q 1.1.H < , 7 v C B O.c.,XGXaX>X:XY S e ~ ^ f = <.0.j h u "
};
