/* XPM */
static char *result[] = {
/* columns rows colors chars-per-pixel */
"64 64 256 2 ",
"   c #000100",
".  c #0A0A03",
"X  c #151600",
"o  c #161617",
"O  c #221D02",
"+  c #1B2701",
"@  c #182D05",
"#  c #272B01",
"$  c #352B00",
"%  c #2C3C00",
"&  c #273602",
"*  c #333C00",
"=  c #3B3C00",
"-  c #373400",
";  c #2A2B17",
":  c #33322D",
">  c #443C00",
",  c #463601",
"<  c #4F3E06",
"1  c #1B5702",
"2  c #2B4601",
"3  c #344301",
"4  c #3B4400",
"5  c #3C4B01",
"6  c #354B01",
"7  c #3C5301",
"8  c #385904",
"9  c #2A540A",
"0  c #3A6407",
"q  c #287805",
"w  c #35730E",
"e  c #3C5625",
"r  c #39722C",
"t  c #1D7200",
"y  c #434400",
"u  c #4B4500",
"i  c #434C00",
"p  c #4B4B00",
"a  c #46470C",
"s  c #554B00",
"d  c #445301",
"f  c #4C5300",
"g  c #4C5C01",
"h  c #455A03",
"j  c #545300",
"k  c #5B5500",
"l  c #545B00",
"z  c #5A5C00",
"x  c #545808",
"c  c #4C4C18",
"v  c #664B00",
"b  c #645B00",
"n  c #685700",
"m  c #755A01",
"M  c #496806",
"N  c #536401",
"B  c #5B6201",
"V  c #586A05",
"C  c #497308",
"Z  c #587606",
"A  c #566B17",
"S  c #527118",
"D  c #626401",
"F  c #646C02",
"G  c #6B6B01",
"H  c #696703",
"J  c #736C01",
"K  c #7A6701",
"L  c #6B7402",
"P  c #687906",
"I  c #7B7402",
"U  c #7D7B03",
"Y  c #757705",
"T  c #64781A",
"R  c #766E19",
"E  c #4F5430",
"W  c #4F7129",
"Q  c #667B23",
"!  c #756C2C",
"~  c #625729",
"^  c #1C754C",
"/  c #1E7A54",
"(  c #1E694E",
")  c #266B4B",
"_  c #27754D",
"`  c #35744E",
"'  c #266854",
"]  c #287955",
"[  c #377955",
"{  c #356D51",
"}  c #2C7A63",
"|  c #215D51",
" . c #4C7054",
".. c #716F4C",
"X. c #595D55",
"o. c #886602",
"O. c #847B04",
"+. c #867906",
"@. c #92770D",
"#. c #8E6F1F",
"$. c #837540",
"%. c #2A8709",
"&. c #359A12",
"*. c #328F0C",
"=. c #35AD11",
"-. c #349333",
";. c #2C9C1F",
":. c #508C0B",
">. c #678609",
",. c #798607",
"<. c #678914",
"1. c #739312",
"2. c #4EAB17",
"3. c #4B8E2D",
"4. c #6A8627",
"5. c #71922C",
"6. c #52A833",
"7. c #73A82D",
"8. c #53CF31",
"9. c #298459",
"0. c #358559",
"q. c #379552",
"w. c #24B95C",
"e. c #2A8864",
"r. c #378965",
"t. c #38966A",
"y. c #3A9876",
"u. c #328E6E",
"i. c #33AB6D",
"p. c #1E9158",
"a. c #4B8752",
"s. c #6F914B",
"d. c #55AC4C",
"f. c #6EAD4E",
"g. c #439668",
"h. c #459B76",
"j. c #4A8D6C",
"k. c #718D75",
"l. c #44A279",
"z. c #4FB36C",
"x. c #76B16E",
"c. c #26C962",
"v. c #6FC952",
"b. c #77C86D",
"n. c #66DD4C",
"m. c #36C20D",
"M. c #858307",
"N. c #94860C",
"B. c #958915",
"V. c #9D9416",
"C. c #868C12",
"Z. c #A69218",
"A. c #8F902C",
"S. c #B0972B",
"D. c #8EA837",
"F. c #ACA935",
"G. c #80A21A",
"H. c #C5AE37",
"J. c #908C4E",
"K. c #A69557",
"L. c #93AE4C",
"P. c #B0AD51",
"I. c #909268",
"U. c #87B772",
"Y. c #A6A469",
"T. c #AFB46D",
"R. c #A09D66",
"E. c #CBB54F",
"W. c #C6B56A",
"Q. c #B1C656",
"!. c #8BCF75",
"~. c #B7CC6F",
"^. c #9FDA63",
"/. c #CFC755",
"(. c #E6CD5A",
"). c #CFD26F",
"_. c #E7DA76",
"`. c #ECD36A",
"'. c #D4E877",
"]. c #CCFB7D",
"[. c #D6F77D",
"{. c #CBE878",
"}. c #E8E677",
"|. c #F7EA7A",
" X c #E6F57C",
".X c #F4EC72",
"XX c #3D9E84",
"oX c #4D9D88",
"OX c #47A786",
"+X c #57AA90",
"@X c #68AD95",
"#X c #71B7A6",
"$X c #7E9E8B",
"%X c #6DC282",
"&X c #8B9D8D",
"*X c #95A895",
"=X c #8FB8AC",
"-X c #A6B7AC",
";X c #92D288",
":X c #98E288",
">X c #ADEB8E",
",X c #98C7BC",
"<X c #8DCAB5",
"1X c #B0CCB6",
"2X c #92EEB9",
"3X c #A8EABC",
"4X c #B6EBBB",
"5X c #AAF5BE",
"6X c #B8F5BD",
"7X c #B6F3A4",
"8X c #AED49B",
"9X c #C9FC86",
"0X c #D5FE84",
"qX c #D2F494",
"wX c #E7F984",
"eX c #FAF682",
"rX c #E6FE98",
"tX c #F6F58F",
"yX c #C5FABE",
"uX c #DAFFBA",
"iX c #D6F9A6",
"pX c #F7FFA7",
"aX c #F7FFB7",
"sX c #E8FBB1",
"dX c #9AD0C2",
"fX c #B8D4C9",
"gX c #B0CEC7",
"hX c #98FAC2",
"jX c #A6FAC8",
"kX c #B2F1D2",
"lX c #CDDBD9",
"zX c #C8D6D5",
"xX c #D4DDDB",
"cX c #D6DCDB",
"vX c #C3D4CB",
"bX c #D6FEC5",
"nX c #D5E3DB",
"mX c #CDF4D3",
"MX c #E7FFC6",
"NX c #FBFFCA",
"BX c #E6FFD6",
"VX c #FAFFD6",
"CX c #D5DBE3",
"ZX c #DAE4E4",
"AX c #DAE7E6",
"SX c #DBFCEB",
"DX c #D9FFEC",
"FX c #E4EDED",
"GX c #E5EBEB",
"HX c #E9F9EB",
"JX c #F9FFEA",
"KX c #EDF3F2",
"LX c #E9FAF3",
"PX c #FEFFFE",
"IX c #F5FCF7",
"UX c #E9EDF1",
/* pixels */
"0.g.g.g.h.gXPXUXlXgXCXgXfXlXzXE 8 Q Q A.L.L.R.Y.Y.Y.T.T.~.>XqXqXbXLXiXW.wXqX{.[.}._.}.'. X[.].9X>XrXVXVXJXPXPXPXPXPXPXmXuXyXyXyX",
"r.r.g.g.h.#XPXKXzXdXfXdXCXzXfXW 8 e S 5.D.L.J.K.K.R.Y.Y.).>X~.qXBXPXsX'.qX^.]. X_._.}.}.wX].9X9X0XpXVXVXPXPXPXPXPXPXPXbXyX6X6XyX",
"0.r.g.g.l.+XKXPXgX=X=XlXZXfXCXW M % 3 S D.D.A.J.I.I.R.Y.~.~.{.>XMXPXJXiX].>X[.}._.'. X X[.].9X9XrXaXVXJXPXPXPXPXPXPXHXkXbX6X6XyX",
"0.t.t.a.l.OXlXFXoX+XdX,Xf.6.;Xk.M S & ; T A.A.J.J.I.I.Y.~.).{.9XuXJXuX9X>X9X X}._.}. X X[.].9X0XrXNXVXPXPXPXPXPXPXPXSX4X6X6X6XyX",
"0.t.g.t.l.OX+X+XoXdX1X6.%.=.m.f.W M h + A 5.A.$.$...J.R.Y.).{.qXiXiX9X].]. X.X}._.|.wXwX].].0XrXpXNXJXPXPXPXPXPXPXPXmX5X6X6X6X6X",
"0.r.g.r.l.OXXXOXgXU.&.%.&.q %.=.*.8 8 ; * A 1.5.D.J.s.J.Y.T.~.>XqX9X].wX X X}.}.}.wXwX0X].].0XrXpXVXPXPXPXPXPXPXPXIXkX4X6X5XkX4X",
"0.r.y.g.h.l.+X@XCX` t *.2.*.a.-.=.0 9 & % i T 5.5.L.L.L.I.Y.~.{.{.9X0X}.wX|.`._.|.eX0X].].9XrXpXaXPXPXPXPXPXPXPXPXLX5X4X6X4X4X4X",
"] 0.t.g.g.l.+XOXoX@X-.q :.q f.fX6.*.2 @ 3 3 4 S 1.7.v.F.L.P.~.).).'. X|._.`._.|.|.wX[.'.[.0XrXpXJXPXPXPXPXPXPXPXPXIX5X3X5X5X5X4X",
"] 9.t.g.g.l.OXu.oX<XvX3.1 1 -.CX,X6.x.3 & 2 4 = A Q 5.D.L.K.P.Q.). X X}.W.tX`.eX_.0X'.'.9X9XrXVXIXIXPXPXPXPXPXPXPXPXFXkX3X3X3X4X",
"] 9.u.g.g.l.XX+XfX#XfXzXx.s.1XvX3.*.U.X.@ % i 4 = c c ! ! s.L.).'.}.'.).`.eXtXeXeX'.'.[.9XwXaXJXLXLXPXPXPXPXPXPXPXPXPXPXkX3X3X3X",
"9.[ t.t.g.l.OX=XCXfXdXCXAXFXGXGX&Xq %.t % % 3 d - ; ; c A.F.Q./.).).).`.eXeXeXeX'.'.{.9X[.pXJXLXDXJXPXPXPXPXPXPXPXPXPXPXIXjX3X3X",
"0.9.t.i.g.g.h.u.=XlXlXlXnXnXlX*Xv.*.&.:.8 2 % 6 - $ x G.V.F./.Q.Q./.W._.eXtX`._.).'.{.0XpXVXJXBXBXIXPXPXPXPXPXPXPXPXPXPXIXdX<X,X",
"9.0.t.t.g.[ r.OX=XcXlXlXlXnXnXd.%.*.%.&.:.3 6 * 3 P M.N.V.F.P.F.F.E.)..X|._._._.).0XrXaXNXVXVXBXHXIXPXPXPXPXPXPXPXPXPXPXPXkX,XdX",
"9.r t.t.[ [ h.h.+X<XnXzXlXvXs.*.&.%.%.*.&.0 6 B P ,.M.N.V.S.V.A.F.Q.(.|.`.`.W.).'.0XtXaXaXsXMXBXJXIXPXPXPXPXPXPXPXPXPXPXPXFX2XdX",
"9.9.0.t.{ t.y.oXdX#X,XnXlX-X1 %.*.%.0 *.1 0 Z >.L +.N.V.B.B.#.A.F.P./.E.E.W.W.W.qXqX8X8XpXaXBXBXJXPXPXPXPXPXPXPXPXPXPXPXPXPXkX2X",
"q.0.t.0.' y.y.<XlX1X#XfXAX&X2 C &.=.q w 1 6 P G +.N.Z.V.V.I J V.S.S.E.H.P.W.W.W.W.qXtXqXtXMXGXJXPXPXPXPXPXPXPXPXPXPXPXPXPXPXKXkX",
") ) ] ' [ h.OX#X@XoX@XdXCXfXe t *.%.t 0 8 N G J N.Z.V.V.V.I +.A.@.#.H.$.K.K.K.I.W.`.tXsXtXaXBXVXJXPXPXPXPXPXPXPXPXPXPXPXPXPXPXHX",
") { { { t.y.OXOX@X#X#X=XCXCXW F P q q 9 % z K M.V.Z.V.V.+.O.B.+.#.#.#.$.#...K.K.K.(.8XsXaXpXaXsXuXPXPXPXPXPXPXPXPXPXPXPXPXPXHXbX",
"{ { [ e.e.y.OXOXdX#X=XdXZX1XR P M 0 1 1 2 k K N.S.V.V.B.+.#.U m o.o.#.#.~ $.K.P.R.W._.tXpXaXNXNXJXPXPXPXPXPXPXPXPXPXPXPXPXIXuXbX",
"{ ) { ] 9.i.OX+XdXdX#Xb.5.S ,.T P V M Z 4 v O.M.Z.V.V.+.+.+.H v m o.o.< ~ $.A.J.P.W.W.tXtXpXaXJXIXIXIXLXPXPXPXPXPXPXPXPXPXbXsXMX",
"{ { ' / e.u.OX+X+X<Xx.=.:.T ,.,.Y R Y B p v U N.V.V.C.+.@.K m v o.v , , R A.A.F.P.E.W.`.tXtXtXpXNXHXDXLXIXPXPXPXPXPXPXPXHXbXMXuX",
"' ' } / 9.i.i.i.*.8.8.=.:.P +.R J Y D l z H M.N.V.V.+.+.U m v v m v , < R C.A.D.P.E.(.(.`.eXeXeXpXVXJXDXLXIXPXPXPXPXPXPXBXuXbXbX",
"] { [ ' 9.-.&.=.2.n.n.2.N P ,.Y Y H l j j D ,.M.B.B.I U J v v m m < , < b C.A.S.F.H.(.(.(.`..X.X.XtXNXIXDXIXPXPXPXPXPXHXyXuXbXbX",
"} { ] / 9.t.q.2.m.n.n.2.Z Z Y G Y z h y j H ,.M.+.+.Y Y m v m m v , , v n U V.S.S.H.(.(.(.(.(..X.X|.rXNXJXIXPXPXPXPXPXmX6XyXyXyX",
"'  .} ] p.u.;.=.=.8.n.7.Z P Y G H x 5 % h D J J K K Y K m v n m < $ , k n U +.B.S.S.H.(.(.(.(.`.}. X XrXMXJXPXPXPXPXPXmXbX6XyXyX",
"' } ] / e.t.q.%.*.8.5.,.Z P P H D x 4 & y D H K H J G n v s m v , $ , k H U @.@.Z.S.S.H.(.(.`.`.}.wX|.wXrXiXJXPXPXPXPXLX5X4XyXyX",
"[ } } 9.p.y.9.q %.1 8 Z P P F D b h y - * k D m n H H n n v v v , O , k G Y +.o.Z.S.Z.H.(.(.(.(.(. X|.eXtXiXsXIXPXPXPXPXmX3X4XbX",
"[ } ' p.e.t.y.q.j.c h V F F B D z p p = # p z b v b b b k b v u $ X $ < z L +.@.Z.Z.@.H.H.H.H.P.). X.X.XtXrXiXBXPXPXPXPXIXjX3X6X",
"j.[ ] 9.e.u.y.XX#XW N L H B B z l i s p # * h j z b k z k b k u $ . O i d F ,.@.@.@.o.S.F.S.S.Q.'.}.(.~.W.tXqXMXPXPXPXPXLX5XjX4X",
"[ } / / p.e.u.XX#XW F F D l B x j u k w 2 & 7 8 f j j l B z j < , X X 4 i V M.N.@.o.@.Z.Z.B.A.^.Q.E.Y...I.).tXuXJXPXPXPXIXkX5X6X",
"e.9.] 9.p.} e.XX+XA Y G z z z z j u j q %.2 2 6 i i p l Z V j , $ $ - - y z ,.@.o.o.@.@.K #.A.L.P.$.X.X...Y._.rXJXPXPXPXPXLX2XjX",
"] ] ' / / } e.u.r.B Y H l l z j p y q *.*.%.2 & * = u N :.C u - $ s u $ = g ,.N.o.o.@.@.K +.A.L.F.E E X...k.).[.BXPXPXDXLXPXSX1X",
"| | | | | } u.XXr B F B f j z z u u N *.&.&.q t & # u Z :.M u $ u K u - $ d >.+.o.m o.o.n H 4.D.R : : X...L.T.{.yXJXDXhXjXIXPXkX",
"| ' ' ' } u.XX+Xe B V B p f l z s k x w %.%.%.%.1 . > V :.f < $ n +.s > # * Z N.o.o.o.v n H <.4.< o : : X.L.T.{.iXJXSXjXjXkXPXUX",
"' | ( ' } e.} XXe d B z i f z j u k D C q -.%.=.1 @ i V Z f , , K I s u # % Z +.m m m < k F T F o o o : E L.~.~.iXJXJX2XDXDXDXUX",
"/ } ' } ' u.XXr.& i N z d f k j u s B 3.q.-.-.z.$X..7 Z Z j - u +.I k p $ - N J n o.v , k T 4.D . o o o E 5.^.^.0XBXLXkXDXDXkXSX",
"| } } / } u.OX` a i x l d f s u < s x W 6.-.z.fXCXI.8 Z V u > k +.I b p - - g D b K s , j V <.5     . ; : Q L.Q.9XBXIXPXIXLXjXhX",
"/ ( / / u.y.XXe N i h g i f p p , s S W -.w.;XlXzX*X5 Z N > b k K O.D j = - i B v m v , p V T #       # 4 ~ D.P.9XBXPXPXIXkXjXjX",
"^ ^ / / e.OXu.9 N = f f i i i u , p 4.r -.-.x.zXcX*X3 P j k K b I I H j > - 6 l s b v , d A T X       X a S 5.D.qXmXPXPXDXhXhXjX",
"^ ( / e.e.u.oX9 N * p f i i y u > x <.r 3.d.z.1XCXk.4 G j K K b J O.G j > = * h p s N y i V x .       $ = c Q ^.7XHXPXPXDXjXhXhX",
"( ( ^ / e.e.OX9 N y i d i i y p , f 4.r 3.d.d.%XlXk.N B b +.+.n I U G j u y - 3 p p l 6 y N F O       > f 9 5.^.yXJXPXPXFXkX2X2X",
"^ ( ^ p.t.p.OX{ * i 4 i i i y y > y T r r 3.d.b.z.S Z k n +.+.H I O.H s u y * 3 3 y h d 4 N V f X   X p 7 &.v.>XBXPXPXPXPXLXhX2X",
"^ ( ^ ^ t.e.e.+Xs.a & 6 4 i 4 y > y A S r 3.d.b.w w Z k I +.O.b I M.G k u y * N 3 # i 0 6 f h N 3 . # 6 *.b.:XkXPXPXPXPXPXPXLXPX",
"( ( ^ ^ 9.u.u.XX,XvXX.& 3 d 5 = u > l S w -.s.3.:.<.B D O.O.o.D O.M.G j u y 4 Z N $ X 7 d i g h M 2 0 2.v.!.8XFXKXPXPXPXIXPXPXPX",
"r ^ ^ ^ 9.t.t.y.dXCX#XE & 5 4 * = - d M 0 -.W C 2.>.F J M.+.I n O.M.G l u = i Z N p X & 6 3 x A M C 6.v.b.!.>XFXKXKXIXLXIXIXPXAX",
"/ ) ^ _ 9.t.i.OXgX+X<X&X# 3 3 % = = y g 8 0 M :.:.>.J U +.+.I H O.,.V l u > l P z i $ d 3 # # A 5.s.f.f.s.!.:XmXIXLXFXUXLXLXPXfX",
"_ ^ ^ 9.9.0.l.OXoX@XAX&X+ & & # * * - 5 6 6 C :.1.V J I +.@.I H M.O.F l i y B P z y - z h 3 * 6 S s.Q S 4.L.!.lXIXUXFXFXFXAXIXnX",
"_ ^ _ 9.` 9.h.l.OXgXGX&X+ + # # & * > 3 4 4 C :.>.D J O.+.M.I J M.O.F h p y G Y j i u l 8 6 6 A 7 3 A Q 4.L.!.mXIXKXLXFXAXCXLXFX",
"0.( _ ] ] 9.q.l.OX1XnXlX .X & @ + * = * * 6 :.:.P D J U +.+.+.J M.Y F 8 i p Y J f i j B h 7 3 A S A T Q 5.J.!.yXKXKXKXFXnXzXKXzX",
"q.0.) 9.` ` 0.h.l.+XvXAX*X# & + + & 4 y # 6 C Z L B J U +.+.o.U M.Y V 8 5 f U G h 5 b D h 7 5 A Q Q T 4.4.7.v.4XIXKXKXFXZXzXzXb.",
"q.t.9.9.[ ` ` g.l.+XvXnXgX9 2 & + X % y - @ 8 V F B L U M.+.J U O.Y N 8 6 j O.G f i b G N 7 7 A Q Q T Q 5.f.v.>XUXKXKXUXAXlXfXOX",
"t.l.j.0.0.` _ 0.l.@XnXlXZXk.@ 2 & + X = P 3 & M N z G O.O.O.J I M.L M 8 6 j U H h d D F M 8 7 A T Q T 5.5.f.x.:XGXKXKXUXZXzXAXfX",
"h.l.+Xj. .[ ` _ t.h.=XcXlXCX .@ & # 3 >.,.Y * 5 l z D M.M.O.J I ,.P M 8 6 j O.F h h D F M h d T Q Q 4.J.f.f.U.^.mXIXKXFXAXzXnXcX",
"g.OX,Xr.0.a.` _ 0.h.h.1XCXlXCX*X2 6 ,.,.,.U L & i B z ,.M.I G U C.P 0 8 6 k O.G h d V F V h 7 S 4.Q D.U.L.f.f.!.4XIXKXFXAXzXGXcX",
"t.+XGX$X` a.[ { 0.g.h.,XcXlXFXgXV >.,.,.,.Y L i % z j Y M.I G U 1.P M 6 6 k ,.F h 7 B V N 7 8 S 3.T f.1XU.f.f.!.8XKXKXUXGXzXcXcX",
"y.,XKX=X[ a.[ { ` 0.j.+XlXGX1XR ,.1.,.,.,.P F B & i f P M.I F P 1.Z 0 8 4 f L V 6 7 M V C 8 0 S 3.3.f.lX8X6.f.!.>XHXKXUXnXzXcXcX",
"oXCXKXfX} a.a.` ) _ j.g.#XvXY ,.1.1.,.,.>.Y L p 6 4 4 P ,.L V Z 1.P M 8 4 i F V 6 8 M M C 8 0 3.3.3.x.mXvXf.6.!.:XnXKXFXAXzXlXcX",
"+XAXUXIX=X[ a._ ) ) 0.l.h.R U ,.,.,.,.,.Y P G i l i 3 P ,.P V Z <.>.M 7 6 4 V N 6 6 V C M 8 8 3.3.2.U.vXcXU.6.!.:X1XKXFXnXzXlXcX",
"+XcXUXIXfXr.a.` ` ) ` h.A ,.M.,.,.,.,.Y P L B h V N N ,.,.L V Z <.:.M 6 6 4 N g 6 6 M S C 0 w 3.6.3.x.1XlX*X6.!.>X;X-XlXGXgXzXcX",
"@XGXUXLXAXk. .0._ ) _ W J M.,.M.,.,.P L P L f l ,.P T ,.M.Y Z Z <.:.C 8 4 * f h 2 2 V M w 8 w 3.6.6.b.vXlXgXd.b.:X:X$X$X1X&X-XZX",
",XFXFXFXKXxX[ [ ` ) ] A O.,.O.,.,.L F L P g M ,.,.,.C.C.M.Y F T <.<.S 8 i % 5 d % 2 C M C 0 w 3.6.d.U.vXzXzXx.v.:X:X*X&Xk.} $X+X",
"fXIXFXAXFX=X` [ [ ) ) B U Y Y ,.,.F b V V Z 1.G.C.C.N.N.+.Y F P <.<.C 8 5 % * 4 % 2 M Z C 0 w -.6.d.!.fXfXCXx.f.:X>X;Xi.y.w.w.c.",
"kXPXLXAXZXj.) [ [ ^ r z U G >.,.P k A :.<.1.7.G.C.V.B.M.O.Y N >.<.1.C 0 5 & & 3 2 & M C C 0 w 3.d.d.b.vXzXzXb.f.:X7X%Xc.i.w.w.w.",
"kXfX#XlXGXj.) ` ` _ c v I H Y >.z V 5.1.7.7.1.V.Z.Z.C.M.M.G g :.1.:.Z M 7 % + * % & V C S 0 w 3.d.f.;XvXlXfXf.v.:X:X:Xc.c.w.w.w."
};
