/* XPM */
static char *result[] = {
/* columns rows colors chars-per-pixel */
"117 34 249 2 ",
"   c #010302",
".  c #040A03",
"X  c #0A0C00",
"o  c #050B0C",
"O  c #060B0C",
"+  c #0A1201",
"@  c #091209",
"#  c #151703",
"$  c #060E11",
"%  c #090F13",
"&  c #0A1113",
"*  c #141916",
"=  c #151B1A",
"-  c #19220B",
";  c #162117",
":  c #1C241C",
">  c #242A1C",
",  c #2A331D",
"<  c #141E22",
"1  c #1C2323",
"2  c #1D272B",
"3  c #1F2E32",
"4  c #212624",
"5  c #272C27",
"6  c #242B2C",
"7  c #2A3429",
"8  c #2A322D",
"9  c #34382B",
"0  c #252C33",
"q  c #2A2D33",
"w  c #292D38",
"e  c #263334",
"r  c #2C3233",
"t  c #2D343B",
"y  c #2D3A3C",
"u  c #313535",
"i  c #333B35",
"p  c #3C3B35",
"a  c #31363C",
"s  c #343B3B",
"d  c #393E3C",
"f  c #39432D",
"g  c #3B4438",
"h  c #3B413D",
"j  c #4C562E",
"k  c #545C2D",
"l  c #43473A",
"z  c #565D32",
"x  c #5D612E",
"c  c #5A6234",
"v  c #5A6337",
"b  c #676E38",
"n  c #2F3941",
"m  c #343C42",
"M  c #393E42",
"N  c #354143",
"B  c #3C4344",
"V  c #37464B",
"C  c #3C4549",
"Z  c #3C4849",
"A  c #434A44",
"S  c #444948",
"D  c #444B4C",
"F  c #4C554C",
"G  c #52594A",
"H  c #454D52",
"J  c #494E53",
"K  c #4C5353",
"L  c #4B5555",
"P  c #4F585C",
"I  c #525857",
"U  c #545B5B",
"Y  c #595E5C",
"T  c #596347",
"R  c #5A6559",
"E  c #5B625C",
"W  c #62675D",
"Q  c #677050",
"!  c #4C5461",
"~  c #565D62",
"^  c #5A5E62",
"/  c #586362",
"(  c #5B6364",
")  c #5C6469",
"_  c #5E6A6C",
"`  c #5D6B72",
"'  c #5E7273",
"]  c #626761",
"[  c #636963",
"{  c #656969",
"}  c #626B6D",
"|  c #68726C",
" . c #737A6D",
".. c #636D73",
"X. c #646E79",
"o. c #657174",
"O. c #6A7374",
"+. c #64727A",
"@. c #6A757A",
"#. c #6E787B",
"$. c #767B76",
"%. c #747B7B",
"&. c #7A8C19",
"*. c #7A8A29",
"=. c #798277",
"-. c #7D827B",
";. c #8A950B",
":. c #8B9813",
">. c #929C18",
",. c #9AA709",
"<. c #99AA0D",
"1. c #A2AC08",
"2. c #AAB305",
"3. c #ABB508",
"4. c #B1B90B",
"5. c #A4AD14",
"6. c #A8B216",
"7. c #B8BF16",
"8. c #858E24",
"9. c #84882A",
"0. c #889127",
"q. c #909933",
"w. c #98A829",
"e. c #AEB925",
"r. c #BAC70E",
"t. c #BACA13",
"y. c #B7CC2F",
"u. c #C2CA0F",
"i. c #C4CB12",
"p. c #C0C91E",
"a. c #CCD517",
"s. c #D1D917",
"d. c #D2DA1B",
"f. c #D8E01E",
"g. c #CBD82D",
"h. c #DAE528",
"j. c #D8EE36",
"k. c #E2EA2C",
"l. c #E5ED34",
"z. c #EBF336",
"x. c #F0F63A",
"c. c #8C974B",
"v. c #A0AD52",
"b. c #81857C",
"n. c #83897B",
"m. c #8F9573",
"M. c #A5AB71",
"N. c #B1B37B",
"B. c #B9C760",
"V. c #CDDA5B",
"C. c #D6EB4B",
"Z. c #E5F04C",
"A. c #EBF448",
"S. c #F2FA4D",
"D. c #FAFF57",
"F. c #CCD671",
"G. c #DAE76D",
"H. c #E5EA6A",
"J. c #EBF269",
"K. c #F4F96E",
"L. c #F6FB73",
"P. c #6A7783",
"I. c #797E83",
"U. c #7B8384",
"Y. c #868A87",
"T. c #8A8E85",
"R. c #8C9386",
"E. c #8E928B",
"W. c #92948D",
"Q. c #939889",
"!. c #8A8D92",
"~. c #8D9393",
"^. c #939693",
"/. c #979B99",
"(. c #9CA29A",
"). c #ACB28E",
"_. c #BABB84",
"`. c #A2A49D",
"'. c #A4A99A",
"]. c #949EA4",
"[. c #95A2A5",
"{. c #9BA3A4",
"}. c #96A5AA",
"|. c #9AA5AB",
" X c #9CA9AC",
".X c #9CA9B3",
"XX c #A4A6A2",
"oX c #A7ABA9",
"OX c #ACB1AA",
"+X c #B4B6A1",
"@X c #B2B3AE",
"#X c #A7AEB5",
"$X c #AAB4B7",
"%X c #ACB9BE",
"&X c #B3B5B2",
"*X c #B4B8B8",
"=X c #BABCBC",
"-X c #BCC28A",
";X c #B4C099",
":X c #BCC2BC",
">X c #C8CC8E",
",X c #EEF38C",
"<X c #F7FC99",
"1X c #CAD0B0",
"2X c #DDE6A3",
"3X c #EDF8AA",
"4X c #F5FBAC",
"5X c #EAF5B3",
"6X c #F5FCB2",
"7X c #F9FEB9",
"8X c #ADBCC3",
"9X c #ADBDC9",
"0X c #B1BDC4",
"qX c #B7BEC5",
"wX c #AEC0C2",
"eX c #B3C2C5",
"rX c #BAC3C8",
"tX c #C3C5C4",
"yX c #C5C9C8",
"uX c #CBCDCC",
"iX c #CFD2CD",
"pX c #CBD3D5",
"aX c #D2D3D4",
"sX c #D4D8D8",
"dX c #D6DBDB",
"fX c #DADCDC",
"gX c #DDE1D5",
"hX c #EDF4CF",
"jX c #DADDE3",
"kX c #D4DDF1",
"lX c #E0DFE4",
"zX c #D9E5E9",
"xX c #DBEBED",
"cX c #DCEBF3",
"vX c #DAE8F5",
"bX c #E2E5E4",
"nX c #E5EAE5",
"mX c #E8ECE6",
"MX c #E3E5E9",
"NX c #E6EBEB",
"BX c #E9ECEB",
"VX c #ECF1EC",
"CX c #E5EDF4",
"ZX c #EEF3F2",
"AX c #E8F3F8",
"SX c #F2F5F4",
"DX c #F4F8F7",
"FX c #F5FBFC",
"GX c #FBFEFE",
/* pixels */
"vXkXvXvXvXvXMXCXMXCXkXjXcXCXcXcXcXCXvXCXzXAXCXzXvXCXcXcXvXcXcXcXvXvXvXcXcXvXvXvXkXvXCXkXvXvXvXCXvXzXzXzXxXxXxXxXzXNXxXcXzXcXzXxXzXcXxXCXxXxXcXxXxXxXvXcXzXcXzXcXcXvXkXkXvXkXkXxXzXxXxXxXxXxXvXcXcXkXvXvXxXvXxXxXvXzXxXxXxXcXcXxXkXxXxXkXkX",
"P.P.P.P.P.X.X...X.` P.X.X.+.+.+.P.@.` @.` ' +.P.P.P.+.+.P.P.X.+.P.` X.X.P.P.' P.P.X.P.P.P.P.X.@.X.X.` +.o.o...o.O.+..._ @.#.@.+.@.O.} o.o.+.#.+.O.+.+.+.+.@.+.+.' P.P.P.P.P.' ' ' =.' ' ' =.' =.=.' ' ' +.+.+.+.' ' ' ' ' ' =.' ' U.U.' ' ",
"9X#X9X#X0XqXqX*X%X0X0X%X9XrXrX8X8X8X#X0X9X#X8X9X8X8X8X8X8X0X0X9XeX8X8X9X9X9X9X9XeX8XeXwX9X9X9X9X8X8X%X%X9X8X$X%XeXeX%X#XrX%X0X$XeXqX%X*X%XeXrXeXrX9XwX8X%X%X8X8X9XwXwX9X9XpX9XwXwX XwXwX%XwXwXwX9XpX9X9X9X8X9XeX9X8XwXwXwXwXwXwXwX#X$X8X}.",
"].8X.X].|.|.|.`.XX}.|.|. X|.|.|.|.#X|.|.|.#X#X|.].].}.|.[.}. X X}..X|..X.X|..X|.}.[.[.{.].].].}.|.}.[.].}.}.}.}..X X|.[. X|.[.].|.|.].{.[. XoX|.}.}.}.}.}.[.}.|.}.}..X.X.XU.wXU.[.[.}.U.U..X}.}..XU.9XU..X}.}.}.}.}.}.}.}.}.}.}.}.}.}.%XpX",
") X.X.O.O.{ ^ { O.( } #...L ( #.o./ X...} ..} ..#.O.O.o.o.X.......X.} X.} ..X.{ _ _ _ ' ' _ _ _ ....o.` _ X.@.+...O...O.} o...O.....o.o.....} ..........X.O...O.P.` +.P.' ' U.' =./ R =./ =.' ' U.' ' ' ' ' +.` ` ' ` _ ' / ' ' ` O./ +..X",
"O.X.{ { I.I.$.O.| U.( ) #.#.I.%.{ } %.O.#.O.} ) } #._ _ O.O._ { O.O.) O.....@.) O.o._ | } | O.o.O...@.O.....@.@.` ....O._ O...O...} o...O.....@.X...{ @...@.{ ..` ` ' P.' ' ' ' L =.' R / R ' =.' ' ' ' ` P.` ' o.O.o.' ' ' ' | +.X.` ` I.",
"{ ^ S M a p M p i d D / ( J t M Y B s q D I { O.U ( Y U / ( E ( } ^ I ) ^ ~ ^ ~ _ R E / R E ( / ) / ( _ ( / ) / ( ( ( ) ~ ( ( ( ( U ^ ~ ^ ^ ~ ) ^ } ^ { U { Y { ) ~ ` ) / / ! / L =.R R R / =.L ! / ' / ~ ` / ) ) / / U / / / / ) ` ` ` ` ",
"^ a S ! ! I I ^ ] I I i 4 K ] S r U I Y U * : K U I Y I K J I U I L L ( I J ~ L / P F L L L Y P E Z L P U L L L U U P K Y I ~ U ^ ) ) U ^ ^ J K D ..J I B ^ K ^ ^ ~ Z ! Z P P ! F F T F L T L L L P L ! ! ! ! ! P L P P P U U U ~ Z ! ! V ",
"M p #XDXFXDXFXBX^.DXlXq 5 MXSX$.!.SXSXVXSXfXu d S A I B B I u S D D D S S D ^ J q K S ~ D D H S g L Z g Z W *X=.F B ( A B B U K q K s H C M ^ P S q ^ M I S h J C J J J D L S D G 7 Q '.U.=., F K D H H H H H H H H H F D H K H J J H H H ",
"p w qXZX|.I.O.!.r sXGX1XI.GXuX5 /.GX^.O.uXGX^.= D F F s /.@XA I @XzXDXA M { BXZXsXM C H 2 pX} J zXSXDXSXOX| R.g l A D s nXI t NXGXpXGXXXa ) d w sXGXfXDXsX8 { DXGX/.M 2 yXU.h D A nX> =.=.7 T e H D D H H H H H H C C C Z Z S Z V H V V M ",
"a w qXDX{ % = = = J BXGXSXDX$.  OXZXW.. $.GX&X* u S = ~.GX(.* tX^.d d BXI ZXS a I.%XC r qXGX^ q D A g U.1XR m.f 7 g d yXFXI I ZXs S s B a H D t M S D U VX{ sXq 4 oX!.pXI.rX_ h nXg f R ;Xy F L g h m B C M N C N Z C V Z Z C C H M M V V ",
"p w #XFXjXqXMXq u = OXDXGX=X  5 ^.GX*XY nXGX/.: A 5 !.Y.Y.&XO qXY.K L MX] sXK O.J D 6 *X) aX} 0 s h 7 W gXg Q., G 7 iXA pXs U yXS O.S q s q D D M m S A fXp FXD { ! n < zXD h nXf g f T U.; g g B N M C C Z N V C N N V N N N B M m m m m ",
"w w tXSXZXjXMXa : * $.DXDXoX@ A oXDXGXGXSXVX= 5 u %.SXI ~.pXS = *XZXdXGXa GXCXkXtXa XXaXS uX^.S D A d $.OXW m., , sX(.I SX$.i A zXNX@XH I M M a a B u O.tX$.SXjXjX#Xm n 0 ^ NX8 R g - R U.F g V B y h h h N N N N y V V N N V Z m M M m n ",
"q 5 #XSX{ % = O 4 4 GXDXmXGXI   oXGXE.Y * . * d 8 S sXpXdXGXO.^ M & o CX^ ZX%   O.aXW iXfXZXbXB s 6 $.:X@  .n.9 , R.sXpXZXdXB %.* $ #.NXo m S t M w U dXO { nX. % ].rX2 ~ sX5 | eX=.; =.(.; g f g y h y h h h y N y N V y n N N n n M m n ",
"4 0 XXDXI.q B r = OXVXsXY.GX*X5 /.SX$.% S K . u i r =   ~.XX  qX#XI.I.uXw #X~.Y.`.b.* 5   VXD 4 q A GX= : | -.. 7 1 : . ZXs 2 sXU.$.@X#.% ~ H r t t DXa * S =XO.I.0XO.n pXH 6 $X=.eX@ f Q.- g 7 5 e e 3 3 e 3 e 3 3 3 3 e e 3 0 w w n 0 0 ",
"= 4 tXFXGXMXGXSXtXGXDXu 4 GXSX^.Y.GXW.8 SXDX. u u q s 1 O.%.u % !.uXoX0 r 1 rXuXI.* 7 p 5 /.G 6 8 t XX4 4 R oXG 5 7 i : /.g i ; yXyXU.& 2 dX!.1 a 4 *X6 q 5 B *XtXX.  oXJ % y : ;X; f (.=., e 3 i 8 8 6 7 e e 3 3 h 3 3 y e 3 3 w w w w w ",
"w q O.oX/.XXoXoXuX/.^.X * ^ @X{ W `.G * $.`.# q : p u : u & p 5 & 4 * 8 8 u O = 4 g * 5 9 ; ; e = r @ B 4 A Y.G > 5 i d * d * 6 O O = S O I.I n 4 p % * S u 1 * % 4 a 4 q : S 5 > ; A U.R * 5 p 5 7 8 8 6 e q 8 r 1 m 6 t 2 2 Z r 0 0 w 0 ",
"m * = A : * p   p # * l p # 9 > > 9 X 5 > p p 5 l p > , G 9 p p G 4 l l p 5 F l 9 9 g f f f g f g g h B B r = 7 l p p 5 d p h A J S u u J 1 M 0 a a l J q 4 S ^ a q u M q S 5 q h g > : f A A h 7 h h h h h h d d J u s e i e e 2 r q t w ",
"q 8 @     #     # # X X # X X X # X # X X X # # X X # # X   # #   # X   # X     - X . # . + . - . . .     % @   . % X O       .   X X *   * O   o %     % % O O   & O O X O O * .   *     .   . .                   %     $ Z 2 r q q w 0 ",
"d   l 1X>X_.-X_.N.N._.N._.>X_.N._._.N.N._.>XN.>XN.>XM.M._.>XN.N.-X_._.N.M.N.>X>XM._.-XN.N.-X-XM.;X).:X1X1X*X*X&X&X*X/.@X=XrX&X&X=X=X=X=XoX&XuXqX*X&X*X*X#X&XrXtXqX&XqXqXtXoXqXqX=X=X1X&X*XtX=X&X*X=X=X=X=X=XqXqXqXuX@X*XrX5 . 6 a 0 q q 0 ",
"# 9 5XhX2X7X2X<X,X4X,X<XG.<X<X<X<X<X,X<X<X<X,X,X,X<X4X<X,X<X<X<X,X<X<X<X,X<X<X4X<X<X<X,X,X3X3X<X3X7X1XhXhXgXDXgXBXSXBXGXgXbXmXmXfXlXBXSXBXSXMXlXlXMXBXMXFXlXlXjXMXjXSXMXjXFXMXjXZXsXmXSXbXbXZXBXBXBXMXCXMXMXCXBXMXDXnXzXZXAXN ; p w w w w ",
"# T 5X>X,XG.H.L.K.H.H.L.L.H.K.K.K.H.J.H.L.J.L.L.K.J.K.K.J.K.K.K.K.H.K.L.J.J.J.K.K.L.G.L.J.J.G.,XG.4X5X5XhXiXiXnXgXmXgXmXfXmXfXBXBXBXaXlXSXaXlXSXBXlXBXjXMXjXZXCXGXlXCXMXuXFXBXlXjXZXsXbXBXbXlXfXMXMXMXMXMXMXMXMXMXaXsXdXOXGXD = w a p n w ",
"# z hX,X<XH.L.K.Z.Z.D.l.D.Z.D.A.S.D.S.S.D.A.D.A.x.S.S.A.S.S.S.A.S.S.A.l.A.S.D.A.C.Z.D.C.C.C.C.C.G.G.>X2X2X2XgXgXiX1XgXiXfXuXbXsXaXuXfXaXuXlXfXaXuXaXaXuXMXfXlXuXuXuXjXlXfXtXfXjXuXuXfXbXaXuXsXjXjXaXpXaXaXaXaXaXaXfXsXAXpXDXD $ n q w w w ",
"# z 7XG.,XZ.g.k.l.x.h.x.k.l.x.l.k.h.k.l.k.l.f.x.k.k.k.f.z.k.k.k.k.k.l.z.l.k.k.k.z.z.h.h.j.j.j.j.C.V.G.>X-X1X;X1XuX=XuX:X:XtX=X1XtXuXtXtXtXtXtXtXyXtXtXtXaX=XtXtXtXuXtXtXaXtXtXtXtX1XuX=XtXuX:X1XuXtXtXtXtXtXtXtXtX=XaXfXrXFXL & M q w w w ",
"X v 3XF.H.y.h.f.d.d.s.s.d.d.d.d.d.a.a.a.s.s.d.d.d.d.d.d.d.s.s.a.d.s.a.a.s.d.d.f.f.a.a.a.t.g.j.y.p.V.B.N.N._.+X+X&X@X@X@X@X@X@X@X@X@X@X@X&X&X&X&X@X@X@X@X=X@X@X@X*X#X@X@X&X&X@X@X@XOX@X@XOX@X&X*X&X@X@X@X&X&X@X&X&X:XOXyX:XDXA & S 4 w p w ",
"# x 6XF.V.y.p.7.i.i.i.i.i.i.i.i.i.i.i.i.i.i.i.i.i.u.i.s.i.u.i.u.i.s.u.u.u.i.i.i.r.t.t.t.t.t.t.y.e.e.v.M.M.N.`.`.XX`.`.XXXXXXXXXXXXXXXXXXoXXXXXXX`.`.+X`.`.XXXX`.XXXX`.`.XX`.`.`.'.`.`.`.`.`.oXXX`.(.`.`.XXXX`.XXXXE.*XrX XAXF $ q q a w 0 ",
"X k 5Xq.w.e.7.7.2.4.2.2.4.4.2.1.2.2.2.2.2.4.4.2.2.1.2.4.2.2.4.2.3.4.2.,.1.4.4.2.2.1.1.1.<.<.<.e.w.w.v.v.m.Q.W.T.T.W.W.W.^.W.W.W.W.Y.T.W.^.^.^.W.W.W./.Q.b.W.^.W.^.W.W.W.W.T.b.T.W.W.W.W.W.W.Q.W.T.T.T.W.W.W.^.W.^.XXE.~./.VXZ < S q w w 0 ",
"X b hXc.q.>.w.e.5.5.5.5.6.5.,.1.5.5.5.5.6.6.6.6.1.1.5.6.5.1.4.5.5.5.,.,.1.6.5.5.5.<.,.<.<.<.<.<.w.q.q.c.m.m.m.m.b.W.E.E.W.W.W.W.E.-.Y.T.!.W.W.W.T.T.Q.n.-.W.W.W.^.!.T.T.W.T.b.b.R.W.T.R.R.W.W.T.T.T.T.T.R.W.R.W.W.Y.| {.=.xXL < q w w p w ",
". j 5Xc.q.q.0.>.>.>.>.>.>.>.;.;.>.>.>.>.>.>.>.>.:.;.:.>.>.;.>.>.>.>.:.:.>.>.>.>.>.:.&.;.<.&.&.>.0.c.c.=.c.-.-.b.$.b.-.-.-.-.-.-.b.$.$.b.b.b.-.b.-.-.b.-.{ n.b.b.-.-.-.-.b.-. .$.b.-.=.-.$.Y.-.-.$.$.$.-.b.b.b.-.-.!.Y.^.=.AXR @ p w w a q ",
". T hX-Xc.c.9.9.q.9.9.9.0.0.8.9.9.9.0.9.8.8.0.0.8.8.8.0.0.8.0.9.0.0.0.9.9.0.9.9.8.&.&.&.&.&.&.*.*.*.*.b Q Q W { { W W W ] ] ] ] W W ] ] W [ W W W W W W W W [ W ^ W W W W W W W [ ) ] ] [ { [ ( ] W W ( W ] [ [ [ | ( | rXDXV @ S q 0 0 2 ",
"7 + ;XhX7XhX4X<X6X4X6X4X4X4X6X6X4X6X4X6X4X4X4X6X4X7X4X4X4X4X6X5X6X6X7X6X6X6X6X7X6X5X3X3X3X3X3X5X3XhXhXgXlXmXMXMXBXBXmXmXlXmXmXmXmXmXmXbXmXmXmXmXmXmXmXmXBXlXlXmXlXmXmXmXmXlXlXmXnXnXnXNXBXNXnXnXBXnXnXbXnXnXNXNXmXSXVXxXDX[.; < q w w w w ",
"7 . - j v v k b x x z z k k x c x x z c x z z z c c j k k x z k c x c c z z v x j v v z k v c j c T T R ^ ^ ^ ^ ^ ^ Y Y W Y Y Y E E I G I Y E W I Y G I { G Y ^ Y Y Y Y Y Y E E I U U U E Y P ~ ^ Y U U I Y Y E Y Y ( / Z ; $ h m 4 u M m ",
"t 3 ; # . # + + + . . X . + X + X + + + X + + + + + + + + + + + X X . + + + + X X @ @ @ + + + + + + @ . $ $ $ & % $ o o o o o o O o $ o $ % % % % o $ $ % % % % % % $ % % % % % % % % % % % % & % % % % % % % % % o < o   y t < n m n 2 2 ",
"n n e r r i i d i i i i i s i s i s i s i s i i s s d i s s g y i a i s s s s s s a s s y s s s y y g y y y y d y m m m m m m m m n t n a y a n y y t a n n m a n a n a a n a a y m m n m n m n n n t n n n n n n m 2 V Z < 2 V 2 2 n w ! "
};
