/* XPM */
static char *result[] = {
/* columns rows colors chars-per-pixel */
"117 34 247 2 ",
"   c #010302",
".  c #040A03",
"X  c #0A0C00",
"o  c #050B0C",
"O  c #060B0C",
"+  c #0A1201",
"@  c #091209",
"#  c #151703",
"$  c #090F13",
"%  c #060E11",
"&  c #0A1113",
"*  c #151B1A",
"=  c #141916",
"-  c #1B231B",
";  c #19220B",
":  c #252C1C",
">  c #141E22",
",  c #1C2323",
"<  c #1D272B",
"1  c #1F2E32",
"2  c #212624",
"3  c #242B2C",
"4  c #272C27",
"5  c #2A322D",
"6  c #2A3429",
"7  c #34382B",
"8  c #252C33",
"9  c #2A2D33",
"0  c #292D38",
"q  c #2C3233",
"w  c #2D343B",
"e  c #2D3A3C",
"r  c #263334",
"t  c #313535",
"y  c #333B35",
"u  c #31363C",
"i  c #343B3B",
"p  c #393E3C",
"a  c #3C3B35",
"s  c #3B413D",
"d  c #3B4438",
"f  c #39432D",
"g  c #545C2D",
"h  c #43473A",
"j  c #565D32",
"k  c #4C562E",
"l  c #5A6234",
"z  c #5A6337",
"x  c #5D612E",
"c  c #676E38",
"v  c #343C42",
"b  c #393E42",
"n  c #2F3941",
"m  c #354143",
"M  c #3C4344",
"N  c #3C4549",
"B  c #3C4849",
"V  c #37464B",
"C  c #444B4C",
"Z  c #444947",
"A  c #4C554C",
"S  c #454D52",
"D  c #494E53",
"F  c #4C5353",
"G  c #4F585C",
"H  c #4B5555",
"J  c #545B5B",
"K  c #595E5C",
"L  c #525857",
"P  c #52594A",
"I  c #5B625C",
"U  c #5A6559",
"Y  c #596347",
"T  c #62685E",
"R  c #565D62",
"E  c #5A5E62",
"W  c #4C5461",
"Q  c #5B6364",
"!  c #5C6469",
"~  c #5E6A6C",
"^  c #586362",
"/  c #5D6B72",
"(  c #5E7273",
")  c #626B6D",
"_  c #636966",
"`  c #67726C",
"'  c #636D73",
"]  c #646E79",
"[  c #657174",
"{  c #6A7374",
"}  c #64727A",
"|  c #6A757A",
" . c #6E787B",
".. c #747B7B",
"X. c #757A76",
"o. c #727B6C",
"O. c #7A8C19",
"+. c #7B8B25",
"@. c #778638",
"#. c #7A827A",
"$. c #8E9913",
"%. c #899612",
"&. c #919B16",
"*. c #939D19",
"=. c #8A940A",
"-. c #9AA708",
";. c #98A615",
":. c #99AD07",
">. c #A3AD01",
",. c #A2AB0E",
"<. c #AAB305",
"1. c #AEB608",
"2. c #A3B206",
"3. c #B1B90B",
"4. c #A5AE13",
"5. c #A0A71D",
"6. c #A8B217",
"7. c #B8BF16",
"8. c #858E24",
"9. c #84882A",
"0. c #869025",
"q. c #899229",
"w. c #8A9226",
"e. c #8F9934",
"r. c #97A929",
"t. c #AEBA27",
"y. c #BACA13",
"u. c #B8C70E",
"i. c #B7CC2F",
"p. c #C2CA0F",
"a. c #C4CB12",
"s. c #C0C91E",
"d. c #CDD416",
"f. c #CED618",
"g. c #C7D719",
"h. c #D2DA1A",
"j. c #D1D917",
"k. c #D8E01E",
"l. c #C6DB29",
"z. c #CFD82D",
"x. c #DAE527",
"c. c #D8EE36",
"v. c #E3EB2D",
"b. c #E1E82A",
"n. c #E5ED34",
"m. c #EBF336",
"M. c #F0F63A",
"N. c #8F9947",
"B. c #ABBC47",
"V. c #81877D",
"C. c #89937F",
"Z. c #9FA269",
"A. c #B1B37B",
"S. c #A5AB74",
"D. c #98A846",
"F. c #BBCC54",
"G. c #D6EB4B",
"H. c #EDF449",
"J. c #EAF547",
"K. c #F2FA4D",
"L. c #F9FE57",
"P. c #E5F14C",
"I. c #DCEA65",
"U. c #D7E678",
"Y. c #E6EB64",
"T. c #EDF46A",
"R. c #E8F168",
"E. c #F3F96E",
"W. c #F4FA72",
"Q. c #FAFE76",
"!. c #E2E87C",
"~. c #CCD867",
"^. c #6A7783",
"/. c #797E83",
"(. c #7B8384",
"). c #868B87",
"_. c #8D9389",
"`. c #92978D",
"'. c #8D9393",
"]. c #959A98",
"[. c #8A8D92",
"{. c #9BA399",
"}. c #BBBC85",
"|. c #B8BA83",
" X c #A2A69E",
".X c #AEB792",
"XX c #949EA4",
"oX c #95A2A5",
"OX c #96A5AA",
"+X c #9AA5AB",
"@X c #9BA6A8",
"#X c #9CA9B3",
"$X c #A5A9A8",
"%X c #A6AEB6",
"&X c #ACB9BE",
"*X c #A9B4B7",
"=X c #B5B9B9",
"-X c #ABB1A9",
";X c #BCC28A",
":X c #B4C099",
">X c #B9C4BA",
",X c #C2C38B",
"<X c #C7C993",
"1X c #D3DC8D",
"2X c #EBF18E",
"3X c #F6FC89",
"4X c #EFF390",
"5X c #F6FC99",
"6X c #FBFE9C",
"7X c #F5F996",
"8X c #E9ED8D",
"9X c #ECF8A9",
"0X c #F7FCAA",
"qX c #EDFAB3",
"wX c #F5FCB2",
"eX c #F7FEBA",
"rX c #E5EEAE",
"tX c #D5DDA8",
"yX c #ADBCC3",
"uX c #ADBDC9",
"iX c #B1BDC4",
"pX c #B5BFC6",
"aX c #B3C2C5",
"sX c #BAC3C8",
"dX c #AEC0C2",
"fX c #C4C9C8",
"gX c #CBD3D5",
"hX c #D1D3D5",
"jX c #D5DBDA",
"kX c #C9D0CD",
"lX c #EFF6CC",
"zX c #D6DCE6",
"xX c #DBEBED",
"cX c #D8E5E9",
"vX c #DCEBF3",
"bX c #DAE8F5",
"nX c #E5EAE5",
"mX c #E6EBEB",
"MX c #E4E7E8",
"NX c #EBF1ED",
"BX c #E3EDF5",
"VX c #EEF3F3",
"CX c #E8F3F8",
"ZX c #F5FBFC",
"AX c #FBFEFE",
"SX c #F2F7F6",
"DX c #DDE3DB",
/* pixels */
"bXzXbXbXbXzXbXBXMXBXzXzXbXCXbXBXvXBXvXBXzXCXBXcXbXBXvXvXvXbXbXbXvXvXbXvXBXbXbXbXbXbXBXbXbXbXbXBXbXcXcXcXcXxXmXxXxXBXxXvXcXBXcXcXcXvXcXBXxXxXBXcXxXxXxXbXcXxXcXvXvXvXbXbXbXbXzXcXcXcXxXcXcXcXbXvXbXbXbXbXbXvXvXvXvXcXxXxXvXvXvXxXcXcXcXcXbX",
"^.^.^.^.^.^.] ) ] ] ^.] ] } ] } ^.| / | / } | ^.^.^.} } ^.^.} } ^./ ] ] ^.( ^.^./ } ^.^.^.^./ ^.] ] ' ] [ } ( ' [ [ ' ' | | | [  .{ ) [ [ [ | [ [ | ^.} } | } } ( ^.^.^.^.( ( ( ( #.#.( #.( ( (.#.( ( ( } } } ( ( / ( ( ( ( #.( ( (.(.^.W ",
"uX%XuX%XiXpXpX=X=XpXpX*XiXsXsXyXyXyX%XpXyX%XyXuXyX&XyXyXyXyXpXpXaXyXyXuXpXuXuXuXaXuXaXdXuXuXuXpXuXyXyX*XiXyX*X&XaXaX&X%XsXyXiX*XpXiXiX=XyXsXsXsXaXaXdXyXyX&XyXyXuXuXdXuXuXuXuXuX*X*XdX>X#XdXdXdXuXuXuXuXyXyXyXyXyXdXdXdXdXdXdXdXyX#X*XyX#X",
"XXuX#XXX+X$XXX X+XXX+X+X#X+X+X+X+X%X+X+X+X%X%X+XXXXX+X+XoXoX#X+XOX#X+X#X#X+X+XOXOXoXOXoXXXXXXXXX+XOXXXXX+XOXOXOX#X+X+XoX@X@XoXoX@X+XXXoXoX@X#X@XOXOXOXoX+XXXoX+XOXOX#X#XuX(.uX(.oXoX{.oXOXOX(.#XdX(.uX(.OX#XOX#XOXOXOXOXOXOXOXoXOX#XOXyXgX",
"! ] ) ] { { E _ ` ! ) ..' F Q  .{ E ] ' ' ' ) '  .| { [ [ [ ' ' ) ] ' ] / ' ] ! ~ ~ ~ ` ~ ~ ) ) ' ' [ ( / ' } [ ) [ ' ' ) { ' { ' ' ' [ ' ' ) ) / / ' ] ] [ ' { ^./ } ^.( / ( ( ( ( ^ ( ^ ( ( ( #.( ( ( ( ( } / ( ( / ~ ( ~ ~ ( ( [ ^ } #X",
"{ ] ) ] X./.X.{ ` (.Q Q  . ./..._ ) ..{ { { ) _ ) | ~ _ { { ~ ~ | ' ) { ) ' | ) [ ` ~ ` ` ` { ' { ' | [ ' ' | [ ) [ [ | ~ ' ' | ' ) [ ) { ] ' | | ] ) ] ' X._ { ' / / ^.(.( ( ( ( ( ( U U ^ #.#.( ( ( ( / ^./ } ' [ [ ( ( ( ` ( [ } ! / /.",
"E E D a u u b a t M C ^ Q D w b K M u 9 D F _ { K Q J J ! ! I ^ ) K L ! E R E R ! ^ J ^ I I ! E ! ^ ! ~ ! ! ! ! E ! ! Q E ! Q Q Q R E R E ! R ! E ) E _ K ) K _ ! R / ! ! ^ W ^ U @.U U U U ^ ^ W ^ ( ^ R ! ! ! ! R ^ ^ ^ ^ I ^ ! / / R ! ",
"E a C W L L E K I L L y 2 D _ Z 9 K L K K = , F J L J J A D L J F L D Q L D R H ^ U H H H H R H I B F L J H A H J J J F J L J J R E ) J E J D D S ) D L b E D E E R B W B G G H A A A A A U U G H G H W W W W W G G G H G G I G R B W W W ",
"b b %XSXZXSXZXMX].SXDX9 4 MXVXX.[.VXSXNXVXjXt a Z Z F Z b J 7 C D C C Z Z D E D t D Z E S C S Z d A B d h U =Xo.A M Q N M M J F 9 D u S N b E L C 9 E b J Z s D N D D D C F C Z P 6 T .X#.@.e V A S S S S S S S S C F C C F F F W D S S N ",
"a 0 =XVX$X/.{ [.t hXAXfX/.AXkX4  XAX'.{ kXAX].= C P C u ].-XZ F -XMXZXM b _ MXVXhXb M D , hX) D cXSXSXNX-Xo.C.d h Z Z y nXJ q mXAXhXAX$Xu ) i u hXAXjXSXhX5 _ ZXAX].N < fX(.s C Z nX; #.#.f H e C C C S S D S S S B N B B B N B b S N V V ",
"b 0 pXSXE $ * * * A NXAXVXAXX.  -XVX`.  /.AX-X= a Z * `.AX@X= fX].i p NXL SXZ u /.&XZ 0 pXAXE 9 C Z d ).kXU C.k 6 d d kXZXL J VXi Z u M q D Z 0 N Z C K VX_ jX3 2 $X[.gX/.sX! d xXd f U :Xe A H s m b m b N m m m B B B B N m M S v S b V ",
"u 9 %XZXzXsXMX9 t * $XZXAX=X  4 `.AX=XI MXZX{.- Z 4 [.).V.=XO pX).F F MXE jXD ' D C 3 =X! hX' 3 i s 6 T DXf C.7 P 6 kXZ hXi J fXZ  .Z 9 i 9 C S b b Z Z jXa AXC ) W n * cXC s NXf d f Y (.- d f B s b N N N B V B m V v m m m N v v n v v ",
"9 9 fXVXVXzXMXu , = X.SXSX-XX Z $XZXAXZXVXNX= 3 t X.SXJ '.hXZ * =XVXjXAXu AXBXMXfXu $XhXZ fX'.Z C Z y X.-XT C.: : jX{.L VXX.y Z cXnX*XC L b b u 0 Z 9 { fX{ SXDXzX%Xv u 8 E mX5 U d ; U (.A d V s d e i s m m e m e V V v m V V b b b v n ",
"9 4 %XSX) $ * O , : AXZXnXAXL   $XAX_.K = O = p 3 Z jXkXjXAX{ E b & O BXE VX$ O { hXI hXDXVXMXh i 3 X.fXX o.V.7 : _.jXgXVXjXM ..= & X.mXo b Z u b 9 J jX@ _ nX. $ XXpX8 R jX4 ` >X#.; #.{.- d f s e s s m s s m m e s V n m m m n n v v n ",
", 0 $XSX/.9 s 9 * -XmXhX).AX=X4 {.SXX.O Z P   t i q * O '.$X  =X$X/./.kX0 %X'.(. XV.= 4   NXZ 2 5 Z AX= - ` V.. 6 : ,   VXs 2 jX....%X| $ R D 9 w w ZXu * B =X../.=X] n gXS 3 *X#.>X@ d (.; d r 4 r 1 8 1 6 1 r 1 1 1 1 r 1 1 8 0 8 0 8 8 ",
"= 2 fXSXAXMXAXSXfXAXZXt 4 AXNX].).AX`.9 SXSXX t t 3 u , { ..u $ [.kX$X0 q , sXkX..= 6 a 4 ].L 4 5 q $X2 , U -XA 4 6 f - ].y y - fXfX).= < hX[., u , =X3 5 3 M =XfX{   $XD $ w - :X> f {.#.6 r 6 6 6 r 8 1 6 r r 1 m 1 1 e e 1 < 0 0 n 0 0 ",
"0 9 { $X].$X$X$XfX X].X = K =XT E  XZ = X. X# a - s t , t # a 3 @ 2 = 9 4 t $ * 2 d @ 6 7 - - f * 5 @ M 2 h V.P : 4 t s = p = 5 O O = Z O /.L u 2 u O = Z q * = $ 2 u 2 t - Z 6 - - Z #.U ; , y 6 r 5 5 5 q 5 5 9 , p 3 w < < B q 8 9 0 8 ",
"v = * Z - = a   a # = h a # 7 : : a X 7 : a a 2 h 7 : : P 7 7 h P 4 h h a 7 Z h 7 7 h f f 6 d f d s s M Z t - 5 a a a 4 a i h M A C t u D , b 9 b u h A t 2 C K u 9 q b q Z 2 5 h d - - f Z Z d 6 d s p p p p b b L q p q i 8 r < q 0 w 0 ",
"0 9 @     #     # #   X X X X X # X # X X X X # X X # # X   X X   # X   ; X X   ; + . # . + . # . . .     O O   O O X @       O       =   =     O $     @ &       $ O o   $ o & . . = .   .   .                     O O   & B < q 9 9 0 8 ",
"a   h tX<X}.}.,XA.A.,XA.}.<X}.A.A.,XA.A.}.<X}.,X,X,XS.Z.}.<X}.A.,X}.}.A.Z.A.,X,XS.|.;XA.A.;X:XS..X.XA.A.}.<X}.,X,X,XS.Z.|.<X|.A.A.}.<X}.<X}.,XS.Z.}.<X}.A.,X}.,XA.Z.A.,X,XS.|.;XA.A.;X;XA..X.X>X=X=X>XpX=XpX=XpX=XfX%X=XsX2 . 3 i 8 8 9 8 ",
"= 4 rXlX1XwX8X6X4X0X8X7X!.6X0X7X6X6X8X7X7X7X7X8X4X7X6X6X4X6X6X7X8X5X7X6X2X6X5X0X5X5X7X8X7X5X9X9XwXeX8X5X7X5X7X2X3X7X0X6X4X7X6X8X7X7X7X4X8X4X7X6X6X4X5X6X7X4X7X7X0X2X6X7X0X6X5X7X2X5X9X9X9XqXqXtXmXMXMXMXmXmXmXBXMXSXMXMXVXCXe - a 9 0 0 8 ",
"# j lX1X8X8XY.3XE.Y.Y.Q.W.Y.E.T.W.Y.W.Y.W.T.W.Q.E.R.E.E.T.E.E.E.E.Y.W.Q.T.T.T.E.W.W.I.W.R.I.I.3XU.0XE.R.Q.T.W.Q.E.R.E.E.T.E.E.E.Y.Q.T.Q.Q.E.T.E.E.T.E.E.E.E.Y.E.Q.E.R.T.W.W.W.I.W.R.I.I.4XU.qX9XmXMXMXMXMXMXMXMXMXhXhXjX%XAXC * 0 u u n 0 ",
"# j lX8X7XY.Q.L.H.H.E.n.L.H.L.H.H.L.H.K.L.H.L.H.K.K.K.M.K.K.K.H.K.L.H.n.H.K.L.J.J.J.E.J.P.G.P.G.R.U.J.K.K.H.L.H.H.K.K.M.K.K.K.K.K.K.H.L.H.H.K.K.H.K.K.K.K.K.L.H.n.H.K.L.J.c.P.K.P.J.P.P.G.I.U.1XzXhXhXhXhXhXhXhXhXjXjXVXkXZXB & a 0 0 0 8 ",
"# j wXU.3XY.z.b.n.m.b.m.b.b.M.n.v.b.b.m.b.n.k.m.v.v.b.k.m.b.b.b.v.x.n.n.n.v.v.v.c.c.x.x.c.c.c.G.G.~.x.m.b.n.k.M.v.v.k.b.m.b.b.b.M.b.n.k.M.v.v.b.b.v.b.b.b.v.x.v.m.n.v.v.n.m.c.c.x.c.c.c.G.G.F.1XfXfX=XfXfXsXfXfXfX=XhXjXfXZXH & b 0 0 n 0 ",
"X z rX~.~.z.z.k.h.h.d.d.h.h.h.k.h.f.d.d.f.f.h.h.h.h.h.k.j.j.j.j.j.j.d.j.j.h.h.k.k.g.g.g.g.l.l.l.i.F.d.d.h.h.h.h.h.h.j.h.h.j.j.j.d.f.h.h.h.h.h.h.k.j.j.j.d.h.f.f.f.h.h.k.k.h.s.h.g.y.l.c.l.i.F.F.=X$X-X=X=X-X=X=X-X=X-XhX>XZXB = b 9 9 a 0 ",
"# x wX~.~.z.s.p.a.a.a.a.a.a.a.a.a.a.a.a.a.a.a.a.a.p.a.d.a.p.a.a.a.d.p.7.a.a.a.a.p.y.y.y.u.u.y.i.t.B.a.a.a.a.a.a.a.a.p.d.a.a.a.p.p.a.a.a.a.a.p.p.d.p.a.a.p.a.d.a.p.a.a.a.a.p.y.y.u.u.y.y.i.t.B.B. X X X X X X X X X[.=X=X-XNXB & 9 9 u 0 8 ",
"X g qXN.e.t.7.7.<.3.<.1.3.3.<.>.<.1.<.<.1.3.3.1.<.>.<.3.<.<.3.1.3.3.>.>.<.1.1.1.2.2.>.2.:.:.:.6.5.r.<.<.1.1.3.1.<.>.<.7.<.<.3.<.<.1.3.1.1.<.>.<.3.3.<.3.1.1.3.>.>.<.1.1.<.<.2.>.:.:.:.2.6.r.r.B._.).).`.`.`.`.`.`.$X`.].`.CXB , b 9 9 0 8 ",
"X c lXN.e.*.5.t.,.4.4.4.6.4.-.,.4.4.4.5.4.6.6.4.,.-.,.7.,.,.4.4.4.4.-.-.,.6.4.4.4.;.-.:.:.-.;.r.r.e.4.4.4.6.6.1.,.-.,.3.,.,.6.4.4.4.6.6.4.,.-.,.3.,.,.4.4.4.4.-.=.,.6.6.4.4.;.-.:.:.:.:.r.r.r.@.V.).)._._.`.`.`.[.)._  X#.xXH * 9 9 u u 0 ",
". k qXN.N.e.w.*.5.&.&.&.*.&.%.=.$.&.&.&.&.*.&.&.$.=.$.*.&.=.&.&.*.*.$.%.&.*.&.$.$.%.O.=.:.O.O.w.8.e.&.$.&.*.*.&.%.=.&.;.&.=.*.&.&.&.&.&.&.=.=.=.*.&.&.&.&.&.*.&.%.&.*.&.%.$.%.O.%.$.O.O.*.O.e.N.X.V.X.X.V.V.V.V.V.[.).]./.SX^ @ a 0 9 u 0 ",
". Y lX;XN.N.9.9.e.9.9.9.w.w.8.9.w.9.8.q.8.q.w.w.8.9.8.w.w.8.8.9.w.w.9.q.q.9.9.9.0.+.O.O.O.O.O.+.@.@.0.0.8.8.8.8.8.8.8.w.8.8.w.w.w.w.w.w.w.8.8.8.q.w.8.w.8.q.q.w.q.q.q.8.9.8.O.O.+.O.O.O.+.@.@.c T T T T T T _ T _ _ E o.fXVXB . b u 8 8 < ",
"6 + :XlXqXeXwX9XwX0XwXwX0X0XwXwX0XwXwXwXwX0XwXwXwXwX0XwX0XwXwXwXeX0XwXeXwXeXeXwXqXqX9X9X9X9X9XqXqXlXlXDXnXMXMXmXmXmXnXnXnXnXnXnXnXnXnXnXnXnXNXNXnXnXnXnXNXDXMXMXMXMXMXMXnXnXnXnXnXMXxXnXxXNXMXMXMXMXMXMXMXMXMXMXMXNXNXMXSXoX- > u 0 0 u 0 ",
"6 . ; k Y j g x x g j j g g x x g x x j j j j j x l k g g g j g x g x l j j z l k z z j g z l g j Y Y U E E E E E E K K U K K I I I L P L I U U K K L L _ F K K K J I I L K I K J J U G ^ ^ G R E K K L L K K K E E E E M * o s a 2 0 b v ",
"w 3 - @ + # + + + X + X . + X + X + + X + + + + + + + + . + + + X X + + . + + + @ @ # + + + + + @ . @ . @ & % & $ % o o o o o o O $ % % % % $ $ & o % $ & & $ $ $ $ $ $ $ % $ % % $ & $ & & & & $ $ $ $ $ $ $ $ $ o > o   e w > n v n < < ",
"n e r q r i y i y q y y y i y i y i y i y i y y i i i e d s s e i i y e y i u i u u u i e i i i e d s e e e e i w v v v v v v v v n w u w w e v e w w u u v v w w n u n w v u u n v n v n n v n n n 0 n n n n n n v < V B > < V < < n 0 W "
};
