/* XPM */
static char *result[] = {
/* columns rows colors chars-per-pixel */
"10 10 24 1 ",
"  c white",
". c #F3F3F3",
"X c #EFEFEF",
"o c #EAEAEA",
"O c #F6F6F6",
"+ c #FDFDFD",
"@ c gainsboro",
"# c #E9E9E9",
"$ c #EEEEEE",
"% c #DDDDDD",
"& c #444444",
"* c #888888",
"= c gray99",
"- c #929292",
"; c #4E4D4D",
": c gray91",
"> c gray86",
", c #5B5A5B",
"< c #ADACAC",
"1 c gray97",
"2 c #818181",
"3 c #6B6969",
"4 c gray84",
"5 c #F1F1F1",
/* pixels */
"          ",
"          ",
"  .X  oO  ",
" +@#  $o  ",
" %&* =-;: ",
" >,<=123$ ",
"  11445O  ",
"    =+    ",
"          ",
"          "
};
