/* XPM */
static char *result[] = {
/* columns rows colors chars-per-pixel */
"10 10 81 1 ",
"  c #0A0601",
". c #0A0602",
"X c #0B0702",
"o c #0B0603",
"O c #0C0702",
"+ c #0E0803",
"@ c #0E0804",
"# c #0E0904",
"$ c #0F0904",
"% c #0F0905",
"& c #100904",
"* c #100A04",
"= c #100A05",
"- c #130B05",
"; c #150D06",
": c #160D06",
"> c #160D07",
", c #170E07",
"< c #190F07",
"1 c #1A0F07",
"2 c #190F08",
"3 c #1C1109",
"4 c #1F1309",
"5 c #200C00",
"6 c #281407",
"7 c #21140A",
"8 c #21150B",
"9 c #22150B",
"0 c #23150B",
"q c #261408",
"w c #24160B",
"e c #25170B",
"r c #2C1708",
"t c #28190C",
"y c #2A1B0E",
"u c #2E1A0C",
"i c #2C1C0E",
"p c #2D1C0E",
"a c #2D1D0E",
"s c #2D1D0F",
"d c #2E1D0F",
"f c #2F1D0F",
"g c #311F0F",
"h c #311F10",
"j c #342111",
"k c #372313",
"l c #3A2311",
"z c #382312",
"x c #382413",
"c c #392413",
"v c #392513",
"b c #3B2614",
"n c #3C2714",
"m c #3E2915",
"M c #402813",
"N c #422914",
"B c #402A16",
"V c #442C16",
"C c #442D18",
"Z c #462E19",
"A c #472F19",
"S c #493018",
"D c #4A3118",
"F c #4B321A",
"G c #4A321B",
"H c #4D331A",
"J c #4C331B",
"K c #4D331B",
"L c #4F351B",
"P c #50351B",
"I c #52371C",
"U c #52381D",
"Y c #5C3F22",
"T c #604021",
"R c #634324",
"E c #6A4927",
"W c #79502A",
"Q c #7B512A",
"! c #7B532C",
"~ c #7C532C",
"^ c #7F552C",
/* pixels */
"E^!~QTY!WR",
"HN6qlDVSPI",
"HM5uFKJJLU",
"CBrzAZCCAG",
"vvxkbncxnm",
"ipdifgsahj",
"7899we0wty",
":>,:<1,234",
"+$%#&=@&-;",
" .o.XO.X+*"
};
