/* XPM */
static char *result[] = {
/* columns rows colors chars-per-pixel */
"10 10 42 1 ",
"  c #127A11",
". c #445E0E",
"X c #426D00",
"o c #008300",
"O c #1E8508",
"+ c #0D9F02",
"@ c #169C09",
"# c #1A9D0B",
"$ c #208A07",
"% c #23841A",
"& c #09AA00",
"* c #13AC02",
"= c #08B200",
"- c #08B600",
"; c #18B404",
": c #17BB04",
"> c #23AC00",
", c #2BAE1B",
"< c #2CB319",
"1 c #2D9C23",
"2 c #4E8A13",
"3 c #13C300",
"4 c #15D001",
"5 c #57CB1E",
"6 c #43DF23",
"7 c #55E926",
"8 c #50E128",
"9 c #4DA142",
"0 c #4EA044",
"q c #76DE43",
"w c #7CD85F",
"e c #79F743",
"r c #8C9F3E",
"t c #86F956",
"y c #9FCE67",
"u c #95B485",
"i c #C3D8A1",
"p c #C3FFA7",
"a c #D0FCBB",
"s c #E4FED7",
"d c #EBEDE2",
"f c None",
/* pixels */
"ffffffffff",
"ffff<fffff",
"ff#*8affff",
"f2-7ydsuff",
"O$,qripwff",
"%o.5et6:ff",
"0 X>43=ff9",
"ff1@+&;fff",
"ffffffffff",
"ffffffffff"
};
