/* XPM */
static char *result[] = {
/* columns rows colors chars-per-pixel */
"10 10 36 1 ",
"  c #565746",
". c #5A737F",
"X c #AAA244",
"o c #7F8E87",
"O c #768B93",
"+ c #758D97",
"@ c #6F95AE",
"# c #3F8ECD",
"$ c #5999C8",
"% c #9CAEA3",
"& c #8AA7B2",
"* c #89A2B4",
"= c #93ACB5",
"- c #B4AFA9",
"; c #A7B5B7",
": c #A0B1BC",
"> c #C9BCAA",
", c #C0BFBE",
"< c #BDC2B5",
"1 c #CFCCA2",
"2 c #CCC6B4",
"3 c #C4C1BB",
"4 c #B7C0C3",
"5 c #B7C5C9",
"6 c #BCC8CE",
"7 c #B4C8D1",
"8 c #BECCD4",
"9 c #C8C7C5",
"0 c #DADACF",
"q c #C9CFD2",
"w c #D3DAD5",
"e c #F9F3C3",
"r c #DBE3E0",
"t c #DCE0E6",
"y c #E5E9EC",
"u c None",
/* pixels */
"uuuuXuuuuu",
"uuuuu%uuuu",
"uuuuu8uuuu",
"uuuuuy7uuu",
"uuuurewuuu",
"uuu5923:uu",
"uuu;,>-@$#",
"uuu4t0q*.u",
"uuuo61<&uu",
"u uu=O+uuu"
};
