/* XPM */
static char *result[] = {
/* columns rows colors chars-per-pixel */
"10 10 29 1 ",
"  c gray8",
". c #1D1D1D",
"X c gray12",
"o c gray20",
"O c #393838",
"+ c #583B12",
"@ c #764F1A",
"# c #61503C",
"$ c #5F5D5D",
"% c #726458",
"& c #6C6A6A",
"* c #7C746C",
"= c #777676",
"- c #86735F",
"; c #9F8470",
": c #AB8971",
"> c #8A8684",
", c #9F9284",
"< c #94918F",
"1 c #ADA59E",
"2 c #98A0AA",
"3 c #B6B3AA",
"4 c #B7BDB8",
"5 c #CAB3A1",
"6 c #CAC3BC",
"7 c #ABBCC3",
"8 c #CCCBCB",
"9 c #D5CCC2",
"0 c None",
/* pixels */
"0000000000",
"000X.Oo000",
"000 $8=000",
"000*&6>000",
"000519<000",
"0000430000",
"000,720000",
"000:%#@000",
"0000;-+000",
"0000000000"
};
