/* XPM */
static char *result[] = {
/* columns rows colors chars-per-pixel */
"10 10 37 1 ",
"  c #5F0C11",
". c #65171B",
"X c #621A1F",
"o c #701318",
"O c #672124",
"+ c #76373B",
"@ c #754244",
"# c #744345",
"$ c #6B6449",
"% c #6E6D57",
"& c #6D6D6F",
"* c #8D151B",
"= c #94181D",
"- c #891E23",
"; c #9C1E23",
": c #84292C",
"> c #A9373A",
", c #AC383C",
"< c #B33B3F",
"1 c #864F51",
"2 c #875354",
"3 c #98585E",
"4 c #827542",
"5 c #8B7F52",
"6 c #B47474",
"7 c #CE6F71",
"8 c #898E7B",
"9 c #7A8D96",
"0 c #A5A9A6",
"q c #A4B3BC",
"w c #AABBBB",
"e c #B6C1C3",
"r c #C3CBCB",
"t c gray79",
"y c #D3D2D1",
"u c #E4DCDC",
"i c None",
/* pixels */
"ii$iiiiiii",
"i450iiiiii",
"i%8weriiii",
"ii9qtuyiii",
"ii&3,<76ii",
"iii:*=;>2i",
"iii@. o-1i",
"iiii#OX+ii",
"iiiiiiiiii",
"iiiiiiiiii"
};
