/* XPM */
static char *result[] = {
/* columns rows colors chars-per-pixel */
"10 10 77 1 ",
"  c #000300",
". c #0A1B04",
"X c #032407",
"o c #042C08",
"O c #122F08",
"+ c #02340B",
"@ c #09360A",
"# c #153009",
"$ c #18360C",
"% c #223B0C",
"& c #203F0D",
"* c #273D0F",
"= c #293B0C",
"- c #124B10",
"; c #125311",
": c #29430E",
"> c #28440F",
", c #2E440F",
"< c #2D4810",
"1 c #2E4E11",
"2 c #344611",
"3 c #334D13",
"4 c #324E12",
"5 c #275610",
"6 c #2F5712",
"7 c #325112",
"8 c #315513",
"9 c #315613",
"0 c #3B5215",
"q c #345B16",
"w c #3D5A16",
"e c #3F5A18",
"r c #1F6C16",
"t c #197219",
"y c #376115",
"u c #396613",
"i c #3B6218",
"p c #247517",
"a c #415A12",
"s c #435D18",
"d c #485A18",
"f c #4E5D19",
"g c #565E16",
"h c #4A6414",
"j c #4A6615",
"k c #446119",
"l c #45641A",
"z c #4D6019",
"x c #446A19",
"c c #54641A",
"v c #52641C",
"b c #57691B",
"n c #586B1F",
"m c #5A6D1F",
"M c #427719",
"N c #41761A",
"B c #4E7518",
"V c #477B18",
"C c #537313",
"Z c #577016",
"A c #567516",
"S c #59711F",
"D c #587C18",
"F c #597C19",
"G c #677419",
"H c #456821",
"J c #547020",
"K c #5B7220",
"L c #5A7D22",
"P c #687523",
"I c #657B24",
"U c #64821C",
"Y c #74851D",
"T c #788A1A",
"R c #589924",
"E c #678325",
"W c None",
/* pixels */
"WWWWRVMJfW",
"WnzqNAGb<#",
"WkKwjTB17W",
"W9ILFDo$mW",
"WWSEuO .dP",
"WWlHt+X@3v",
"W8iypr;-02",
"WWx5Zg=*,%",
"WW64Yh:e>W",
"WWWcUCas&W"
};
