/* XPM */
static char *result[] = {
/* columns rows colors chars-per-pixel */
"50 50 218 2 ",
"   c black",
".  c #090601",
"X  c #150E02",
"o  c #1C0E02",
"O  c #161102",
"+  c #1A1402",
"@  c #1F1C07",
"#  c #211504",
"$  c #2C1D04",
"%  c #201F0C",
"&  c #241904",
"*  c #341B03",
"=  c #26230D",
"-  c #29260E",
";  c #2D2107",
":  c #322107",
">  c #3A2609",
",  c #382708",
"<  c #3A2C17",
"1  c #2C2B15",
"2  c #422D0B",
"3  c #462903",
"4  c #483208",
"5  c #5B3A09",
"6  c #4B3A14",
"7  c #412C14",
"8  c #4E4811",
"9  c #584414",
"0  c #654506",
"q  c #68480A",
"w  c #7B550A",
"e  c #72520A",
"r  c #6C4C15",
"t  c #6A541C",
"y  c #775011",
"u  c #7A620C",
"i  c #554024",
"p  c #535333",
"a  c #585836",
"s  c #794F21",
"d  c #7C5C39",
"f  c #756A28",
"g  c #64643D",
"h  c #6E6828",
"j  c #4D4C4B",
"k  c #7F5D42",
"l  c #6A5B43",
"z  c #777749",
"x  c #865908",
"c  c #915F0D",
"v  c #8C5B16",
"b  c #8A5C1C",
"n  c #915E11",
"m  c #8D6209",
"M  c #80670D",
"N  c #9C6A0B",
"B  c #94650B",
"V  c #986512",
"C  c #9A7916",
"Z  c #9C7C0D",
"A  c #A5780C",
"S  c #B87D0A",
"D  c #A37018",
"F  c #B27912",
"G  c #8C5C22",
"H  c #946020",
"J  c #857929",
"K  c #997729",
"L  c #8B693C",
"P  c #926E37",
"I  c #816325",
"U  c #A87B28",
"Y  c #886648",
"T  c #8B6A48",
"R  c #916E46",
"E  c #91784F",
"W  c #9B7956",
"Q  c #9C7958",
"!  c #987754",
"~  c #A17F42",
"^  c #A27C58",
"/  c #807970",
"(  c #BC820B",
")  c #B7800C",
"_  c #AC8315",
"`  c #B2891B",
"'  c #B99A1C",
"]  c #8C8222",
"[  c #95862B",
"{  c #968832",
"}  c #9B9035",
"|  c #B08433",
" . c #B49733",
".. c #A98331",
"X. c #BAAB3F",
"o. c #C58A0C",
"O. c #C1850B",
"+. c #C9960E",
"@. c #DC990E",
"#. c #D7960E",
"$. c #C79C1C",
"%. c #C99919",
"&. c #C69516",
"*. c #E09B0E",
"=. c #CDA313",
"-. c #CAA41D",
";. c #D4A412",
":. c #D3AC15",
">. c #DAA514",
",. c #D4B21F",
"<. c #D9A30F",
"1. c #E3A10F",
"2. c #E3A610",
"3. c #E8AD14",
"4. c #EEB212",
"5. c #EEBD1E",
"6. c #F0B512",
"7. c #F3BA14",
"8. c #F2BC1B",
"9. c #C89926",
"0. c #D59A24",
"q. c #CBA626",
"w. c #D8AA28",
"e. c #DBBB2D",
"r. c #D1B028",
"t. c #C9A23A",
"y. c #C8B53D",
"u. c #D9B834",
"i. c #E0AD20",
"p. c #FBC515",
"a. c #FECB16",
"s. c #FECD19",
"d. c #F1C318",
"f. c #FED21D",
"g. c #E3C01B",
"h. c #DBC02F",
"j. c #DBC03D",
"k. c #E4C228",
"l. c #F4CB25",
"z. c #EED22E",
"x. c #FDD423",
"c. c #FED926",
"v. c #FCDC2B",
"b. c #F4D32A",
"n. c #E3C332",
"m. c #EACA33",
"M. c #EBD238",
"N. c #FCDD33",
"B. c #FEE12D",
"V. c #FEE533",
"C. c #FFE936",
"Z. c #FEEB39",
"A. c #F4E037",
"S. c #9E804F",
"D. c #949343",
"F. c #A38241",
"G. c #AC9246",
"H. c #B8974A",
"J. c #A38154",
"K. c #AC8C51",
"L. c #AA855B",
"P. c #A98655",
"I. c #B59557",
"U. c #BDA546",
"Y. c #AC8562",
"T. c #B48760",
"R. c #BA8766",
"E. c #B48C63",
"W. c #BA8866",
"Q. c #BD9263",
"!. c #C19F4A",
"~. c #C29E40",
"^. c #D3AA40",
"/. c #C5B643",
"(. c #CBBA45",
"). c #D5B947",
"_. c #C6AA50",
"`. c #CDB150",
"'. c #DDC546",
"]. c #D9C655",
"[. c #E2CC49",
"{. c #ECCD45",
"}. c #EDD849",
"|. c #F6DB47",
" X c #E5CC55",
".X c #EED953",
"XX c #FEED45",
"oX c #FCEA4C",
"OX c #F8E348",
"+X c #FEF048",
"@X c #FFED55",
"#X c #FEEE59",
"$X c #F5E456",
"%X c #FEF155",
"&X c #FEF95F",
"*X c #FEF058",
"=X c #C8C86C",
"-X c #C9C468",
";X c #D1D170",
":X c #F1DD6B",
">X c #EADC77",
",X c #EDDB63",
"<X c #FEF964",
"1X c #FFFC6C",
"2X c #FDF460",
"3X c #FFFF75",
"4X c #F2E264",
"5X c #E4D49E",
"6X c #FEFE84",
"7X c #F2EB90",
"8X c #E8E482",
"9X c #D9CBA6",
"0X c #F7EAA5",
"qX c #FAF3AD",
"wX c #F6F5D8",
"eX c #EDEACB",
"rX c #F0F0E6",
"tX c None",
/* pixels */
"tXtXtXtXtXtXtXtXtXtXtXtXtXtXtXtXtXtXtXtXtXtXtXtXtXtXtXtXtXtXtXtXtXtXtXtXtXtXtXtXtXtXtXtXtXtXtXtXtXtX",
"tXtXtXtXtXtXtXtXtXtXtXtXtXtXtXtXtXtXtXtXtXtXtXtXtXtXtXtXtXtXtXtXtXtXtXtXtXtXtXtXtXtXtXtXtXtXtXtXtXtX",
"tXtXtXtXtXtXtXtXtXtXtXtXtXtXtXtXtXtXtXtXtXtXtXtXtXtXtXtXtXtXtXtXtXtXtXtXtXtXtXtXtXtXtXtXtXtXtXtXtXtX",
"tXtXtXtXtXtXtXtXtXtXtXtXtXtXtXtXtXtXtXtXtXtXtXtXtXtXtXtXtXtXtXtXtXtXtXtXtXtXtXtXtXtXtXtXtXtXtXtXtXtX",
"tXtXtXtXtXtXtXtXtXtXtXtXtXtXtXtXtXtXtXtXtXtXtXtXtXtXtXtXtXtXtXtXtXtXtXtXtXtXtXtXtXtXtXtXtXtXtXtXtXtX",
"tXtXtXtXtXtXtXtXtXtXtXtXtXtXtXtXtXtXtXtXtXtXtXtXtXtXtXtXtXtXtXtXtXtXtXtXtXtXtXtXtXtXtXtXtXtXtXtXtXtX",
"tXtXtXtXtXtXtXtXtXtXtXtXtXtXtXtXtXtXtXtXtXtXtXtXtXtXtXtXtXtXtXtXtXtXtXtXtXtXtXtXtXtXtXtXtXtXtXtXtXtX",
"tXtXtXtXtXtXtXtXtXtXtXtXtXtXtXtXtXtXtXtXtXtXtXtXtXtXtXtXtXtXtXtXtXtXtXtXtXtXtXtXtXtXtXtXtXtXtXtXtXtX",
"tXtXtXtXtXtXtXtXtXtXtXtXtXtXtXtXtXtXtXtXtXtXtXtXtXtXtXtXtXtXtXtXtXtXtXtXtXtXtXtXtXtXtXtXtXtXtXtXtXtX",
"tXtXtXtXtXtXtXtXtXtXtXtXtXtXtXtXtXtXtXtXtXtXtXtXtXtXtXtXtXtXtXtXtXtXtXtXtXtXtXtXtXtXtXtXtXtXtXtXtXtX",
"tXtXtXtXtXtXtXtXtXtXtXtXtXtXtXtXtXtXtXtXtXtX& - - = = = = = tXtXtXtXtXtXtXtXtXtXtXtXtXtXtXtXtXtXtXtX",
"tXtXtXtXtXtXtXtXtXtXtXtXtXtXtX= = = = = - 1 ' y././.(././.} = = tXtXtXtXtXtXtXtXtXtXtXtXtXtXtXtXtXtX",
"tXtXtXtXtXtXtXtXtXtXtXtXtXtX- J X.U.X.X.U.X.y.9 4 y K r > t '.[   tXtXtXtXtXtXtXtXtXtXtXtXtXtXtXtXtX",
"tXtXtXtXtXtXtXtXtXtXtXtXtXtXf J 2 : ; , * 3 , 3 5  .9XC 6 f $X_ - tXtXtXtXtXtXtXtXtXtXtXtXtXtXtXtXtX",
"tXtXtXtXtXtXtXtXtXtXtXtXtXtXO { [ 6 8 $ o * 0 V t.:XeX:X8X}.[.'.{ < tXtXtXtXtXtXtXtXtXtXtXtXtXtXtXtX",
"tXtXtXtXtXtXtXtXtXtXtXtXtXtXtXu u.|.n.6 > t :.{.qXrXrXeX5X%.N x U {   tXtXtXtXtXtXtXtXtXtXtXtXtXtXtX",
"tXtXtXtXtXtXtXtXtXtXtXtXtXtXtXtXw >.q.0  .7X:X4X$X0XwX;X).9.` ` w.{ . tXtXtXtXtXtXtXtXtXtXtXtXtXtXtX",
"tXtXtXtXtXtXtXtXtXtXtXtXtXtXtXtXtXw u.q.].7X8Xk.5. XqX$X%XoXOXOXe.u tXtXtXtXtXtXtXtXtXtXtXtXtXtXtXtX",
"tXtXtXtXtXtXtXtXtXtXtXtXtXtXtXtXtX. A N.e.%.-.:.-.j.&XXXV.l.a.<.e tXtXtXtXtXtXtXtXtXtXtXtXtXtXtXtXtX",
"tXtXtXtXtXtXtXtXtXtXtXtXtXtXtXtXtX  x >.M.` +.,.z.A.v.7.6.4.<.I j tXtXtXtXtXtXtXtXtXtXtXtXtXtXtXtXtX",
"tXtXtXtXtXtXtXtXtXtXtXtXtXtXtXtX  # y N e._ _ b.Z.v.i.0.&.0.D g / 6 = tXtXtXtXtXtXtXtXtXtXtXtXtXtXtX",
"tXtXtXtXtXtXtXtXtXtXtXtXtXtXtXtX8 C D v n.r.-.A.N.0.U U U U H r 7 K 9 # tXtXtXtXtXtXtXtXtXtXtXtXtXtX",
"tXtXtXtXtXtXtXtXtXtXtXtXtXtXtXa (.V.;.F $.b.B.c.&.b G b b v q * O 7 5 2   tXtXtXtXtXtXtXtXtXtXtXtXtX",
"tXtXtXtXtXtXtXtXtXtXtXtXtXtXp -X3XXXV.8.o.+.+.+.c v V v x v x 3 $ X 5 4   tXtXtXtXtXtXtXtXtXtXtXtXtX",
"tXtXtXtXtXtXtXtXtXtXtXtXtXa =X1X2X+XB.s.l.;.O.S S o.2.O.S S O.S x 3 , ; tXtXtX  tXtXtXtXtXtXtXtXtXtX",
"tXtXtXtXtXtXtXtXtXtXtXtXp =X3X&X*XXXx.c.N.u.3.6.6.6.p.4.*.1.4.@.( B $       $ X tXtXtXtXtXtXtXtXtXtX",
"tXtXtXtXtXtXtXtXtXtXtXtXz 6X&X].}.V.c.C.`.J.k.f.a.a.a.p.4.2.a.p.7.2.N : < d s * tXtXtXtXtXtXtXtXtXtX",
"tXtXtXtXtXtXtXtXtXtXtXa =X1X%X_.K.t.m.(.J.W ~.l.l.t.^.x.a.7.a.a.a.6.#.A r i 7 + tXtXtXtXtXtXtXtXtXtX",
"tXtXtXtXtXtXtXtXtXtXtXz 6X<X%X_.Q J.H.K.J.J.P.H.!.I.'.V.s.a.a.a.a.p.4.@.( ,   tXtXtXtXtXtXtXtXtXtXtX",
"tXtXtXtXtXtXtXtXtXtXp ;X3X<X%X`.P.L.T.E.E.T.T.T.Y.I.OXXXv.s.a.f.c.a.6.#.*.q tXtXtXtXtXtXtXtXtXtXtXtX",
"tXtXtXtXtXtXtXtXtXtXg 6X1X<X%X{.H.^ Y.W.W.W.W.W.Q. X@XXXZ.v.f.C.Z.c.p.4.*.0 tXtXtXtXtXtXtXtXtXtXtXtX",
"tXtXtXtXtXtXtXtXtXtXg 6X1X&X].G.W ! Q L.L.Y.Y.E.].OXoXZ.Z.V.c.Z.B.f.a.6.*.0 tXtXtXtXtXtXtXtXtXtXtXtX",
"tXtXtXtXtXtXtXtXtXtXl 6X<X*X}.} T E W E W W Q Q K.G.U.N.Z.Z.C.Z.V.a.a.4.#.0 tXtXtXtXtXtXtXtXtXtXtXtX",
"tXtXtXtXtXtXtXtXtXtX= D.<X@X@X.X[.u.S.T R R Y T R S.n.C.Z.Z.Z.Z.B.a.a.6.m & tXtXtXtXtXtXtXtXtXtXtXtX",
"tXtXtXtXtXtXtXtXtXtXtXh $X#X#X#X@XU.L d 9.P k L u.z.C.C.C.V.s.f.f.a.7.#.q tXtXtXtXtXtXtXtXtXtXtXtXtX",
"tXtXtXtXtXtXtXtXtXtXtXtXJ OX@X@X%X|.n.P q...r.M.V.V.s.x.f.f.a.a.p.7.#.w # tXtXtXtXtXtXtXtXtXtXtXtXtX",
"tXtXtXtXtXtXtXtXtXtXtXtXtX] M.A.Z.Z.B...$.8.B.C.V.f.s.a.p.p.a.7.@.o.x O tXtXtXtXtXtXtXtXtXtXtXtXtXtX",
"tXtXtXtXtXtXtXtXtXtXtXtXtX@ @ C ,.:.d.7.9.d.f.f.s.p.p.7.1.#.( ( m # + tXtXtXtXtXtXtXtXtXtXtXtXtXtXtX",
"tXtXtXtXtXtXtXtXtXtXtXtXtXtXtXO + + Z :.$.;.:.=.( ( ) ) ( m + O X tXtXtXtXtXtXtXtXtXtXtXtXtXtXtXtXtX",
"tXtXtXtXtXtXtXtXtXtXtXtXtXtXtXtXtXtX+ + + + + + O X O O X X tXtXtXtXtXtXtXtXtXtXtXtXtXtXtXtXtXtXtXtX",
"tXtXtXtXtXtXtXtXtXtXtXtXtXtXtXtXtXtXtXtXtXtXtXtXtXtXtXtXtXtXtXtXtXtXtXtXtXtXtXtXtXtXtXtXtXtXtXtXtXtX",
"tXtXtXtXtXtXtXtXtXtXtXtXtXtXtXtXtXtXtXtXtXtXtXtXtXtXtXtXtXtXtXtXtXtXtXtXtXtXtXtXtXtXtXtXtXtXtXtXtXtX",
"tXtXtXtXtXtXtXtXtXtXtXtXtXtXtXtXtXtXtXtXtXtXtXtXtXtXtXtXtXtXtXtXtXtXtXtXtXtXtXtXtXtXtXtXtXtXtXtXtXtX",
"tXtXtXtXtXtXtXtXtXtXtXtXtXtXtXtXtXtXtXtXtXtXtXtXtXtXtXtXtXtXtXtXtXtXtXtXtXtXtXtXtXtXtXtXtXtXtXtXtXtX",
"tXtXtXtXtXtXtXtXtXtXtXtXtXtXtXtXtXtXtXtXtXtXtXtXtXtXtXtXtXtXtXtXtXtXtXtXtXtXtXtXtXtXtXtXtXtXtXtXtXtX",
"tXtXtXtXtXtXtXtXtXtXtXtXtXtXtXtXtXtXtXtXtXtXtXtXtXtXtXtXtXtXtXtXtXtXtXtXtXtXtXtXtXtXtXtXtXtXtXtXtXtX",
"tXtXtXtXtXtXtXtXtXtXtXtXtXtXtXtXtXtXtXtXtXtXtXtXtXtXtXtXtXtXtXtXtXtXtXtXtXtXtXtXtXtXtXtXtXtXtXtXtXtX",
"tXtXtXtXtXtXtXtXtXtXtXtXtXtXtXtXtXtXtXtXtXtXtXtXtXtXtXtXtXtXtXtXtXtXtXtXtXtXtXtXtXtXtXtXtXtXtXtXtXtX",
"tXtXtXtXtXtXtXtXtXtXtXtXtXtXtXtXtXtXtXtXtXtXtXtXtXtXtXtXtXtXtXtXtXtXtXtXtXtXtXtXtXtXtXtXtXtXtXtXtXtX",
"tXtXtXtXtXtXtXtXtXtXtXtXtXtXtXtXtXtXtXtXtXtXtXtXtXtXtXtXtXtXtXtXtXtXtXtXtXtXtXtXtXtXtXtXtXtXtXtXtXtX"
};
