/* XPM */
static char *result[] = {
/* columns rows colors chars-per-pixel */
"50 50 216 2 ",
"   c #130E03",
".  c #1E2F10",
"X  c #323E19",
"o  c #4E3C11",
"O  c #4B3B21",
"+  c #2B4215",
"@  c #3B541B",
"#  c #3B5E26",
"$  c #444F19",
"%  c #75621F",
"&  c #415D23",
"*  c #495828",
"=  c #496A28",
"-  c #5A6A2C",
";  c #5C782F",
":  c #486C33",
">  c #566B31",
",  c #4B753B",
"<  c #567638",
"1  c #6B762D",
"2  c #677635",
"3  c #707228",
"4  c #5E5E5D",
"5  c #545C54",
"6  c #5B6C47",
"7  c #557443",
"8  c #58754F",
"9  c #5F625B",
"0  c #657949",
"q  c #636C5A",
"w  c #6A7256",
"e  c #686966",
"r  c #697061",
"t  c #737867",
"y  c #716E71",
"u  c #757575",
"i  c #797979",
"p  c #797B72",
"a  c #5B8737",
"s  c #57913D",
"d  c #668E3C",
"f  c #7C8C3F",
"g  c #669938",
"h  c #71973D",
"j  c #5DA338",
"k  c #67AA3B",
"l  c #67B83A",
"z  c #6DC43B",
"x  c #71C53A",
"c  c #75C83C",
"v  c #78CF3D",
"b  c #5D8745",
"n  c #5F9643",
"m  c #678749",
"M  c #738E45",
"N  c #768C4B",
"B  c #629A44",
"V  c #62954C",
"C  c #64994D",
"Z  c #699248",
"A  c #779B4B",
"S  c #778A58",
"D  c #669C56",
"F  c #669655",
"G  c #7A9956",
"H  c #6B8C5B",
"J  c #6CAC4D",
"K  c #66A645",
"L  c #75A648",
"P  c #6DB644",
"I  c #6DBC44",
"U  c #75B446",
"Y  c #78BA4B",
"T  c #6AA453",
"R  c #67A25A",
"E  c #6BA956",
"W  c #7AAC56",
"Q  c #6EB45C",
"!  c #6EB356",
"~  c #73BE53",
"^  c #74BB5C",
"/  c #73B458",
"(  c #7D8D63",
")  c #7F837D",
"_  c #7D9663",
"`  c #7AB964",
"'  c #7DBE70",
"]  c #73C744",
"[  c #74CB45",
"{  c #7DCE43",
"}  c #7BC94A",
"|  c #77C74B",
" . c #7DD144",
".. c #7CD14B",
"X. c #77D041",
"o. c #75C353",
"O. c #7BC154",
"+. c #7CCD54",
"@. c #7AC35C",
"#. c #77C952",
"$. c #7ED154",
"%. c #7ED358",
"&. c #7BC168",
"*. c #88833C",
"=. c #83D03E",
"-. c #82975C",
";. c #8F9544",
":. c #AD8E4C",
">. c #81B447",
",. c #86A955",
"<. c #83BD5A",
"1. c #89BA55",
"2. c #90BA5F",
"3. c #ABAE54",
"4. c #819961",
"5. c #89957D",
"6. c #929E79",
"7. c #99B968",
"8. c #90A47F",
"9. c #9CB575",
"0. c #8EB763",
"q. c #A3BF7F",
"w. c #C0A353",
"e. c #81CD4B",
"r. c #81CF42",
"t. c #85D343",
"y. c #88D649",
"u. c #99DA4C",
"i. c #8BC452",
"p. c #82C857",
"a. c #95C55D",
"s. c #8CD453",
"d. c #8EDA54",
"f. c #8ADA5C",
"g. c #86D655",
"h. c #95D856",
"j. c #BCC15D",
"k. c #A7DE5F",
"l. c #95E555",
"z. c #9AE45A",
"x. c #9AE95A",
"c. c #90E54C",
"v. c #A6E45A",
"b. c #A3EB5B",
"n. c #ADE95C",
"m. c #8CD961",
"M. c #94D764",
"N. c #91DC60",
"B. c #99DE61",
"V. c #95C665",
"C. c #A6D762",
"Z. c #AFDB76",
"A. c #AFD476",
"S. c #92E063",
"D. c #9CE664",
"F. c #9DEA64",
"G. c #9BE769",
"H. c #A4EB64",
"J. c #ABED65",
"K. c #A4EC69",
"L. c #ADEC6C",
"P. c #A6E565",
"I. c #B2EB67",
"U. c #B1EE6B",
"Y. c #AAF166",
"T. c #ABF069",
"R. c #B4F16A",
"E. c #B7E87A",
"W. c #BEF474",
"Q. c #BAF476",
"!. c #A1E572",
"~. c #DADD66",
"^. c #C3EC7C",
"/. c #C6F87A",
"(. c #C7F678",
"). c #848484",
"_. c #898D89",
"`. c #8F9289",
"'. c #939592",
"]. c #93968C",
"[. c #97A585",
"{. c #A6B886",
"}. c #AABA94",
"|. c #ADAFAA",
" X c #B7CA9C",
".X c #AFC496",
"XX c #BAE991",
"oX c #C0D89E",
"OX c #C9F688",
"+X c #D5F68E",
"@X c #C4E59A",
"#X c #CCF596",
"$X c #D3FA94",
"%X c #DBF69C",
"&X c #D5F796",
"*X c #E0FB9B",
"=X c #C6DCA3",
"-X c #CAE3A6",
";X c #D8F6A6",
":X c #D8E6B7",
">X c #E3F7A7",
",X c #E4FAB5",
"<X c #EAFBBC",
"1X c #E6F6B9",
"2X c #E3EEB7",
"3X c #CCCFC9",
"4X c #DFE3CD",
"5X c #ECF6D7",
"6X c #F3FCD4",
"7X c #F4FDDA",
"8X c #EAFBC4",
"9X c #F8FCE5",
"0X c #FAFDF2",
"qX c #FEFFFD",
"wX c #ECECED",
"eX c None",
/* pixels */
"eXeXeXeXeXeXeXeXeXeXeXeXeXeXeXeXeXeXeXeXeXeXeXeXeXeXeXeXeXeXeXeXeXeXeXeXeXeXeXeXeXeXeXeXeXeXeXeXeXeX",
"eXeXeXeXeXeXeXeXeXeXeXeXeXeXeXeXeXeXeXeXeXeXeXeXeXeXeXeXeXeXeXeXeXeXeXeXeXeXeXeXeXeXeXeXeXeXeXeXeXeX",
"eXeXeXeXeXeXeXeXeXeXeXeXeXeXeXeXeXeXeXeXeXeXeXeXeXeXeXeXeXeXeXeXeXeXeXeXeXeXeXeXeXeXeXeXeXeXeXeXeXeX",
"eXeXeXeXeXeXeXeXeXeXeXeXeXeXeXeXeXeXeXeXeXeXeXeXeXeXeXeXeXeXeXeXeXeXeXeXeXeXeXeXeXeXeXeXeXeXeXeXeXeX",
"eXeXeXeXeXeXeXeXeXeXeXeXeXeXeXeXeXeXeXeXeXeXeXeXeXeXeXeXeXeXeXeXeXeXeXeXeXeXeXeXeXeXeXeXeXeXeXeXeXeX",
"eXeXeXeXeXeXeXeXeXeXeXeXeXeXeXeXeXeXeXeXeXeXeXeXeXeXeXeXeXeXeXeXeXeXeXeXeXeXeXeXeXeXeXeXeXeXeXeXeXeX",
"eXeXeXeXeXeXeXeXeXeXeXeXeXeXeXeXeXeXeXeXeXeXeXeXeXeXeXeXeXeXeXeXeXeXeXeXeXeXeXeXeXeXeXeXeXeXeXeXeXeX",
"eXeXeXeXeXeXeXeXeXeXeXeXeXeXeXeXeXeXeXeXeXeXeXeXeXeXeXeXeXeXeXeXeXeXeXeXeXeXeXeXeXeXeXeXeXeXeXeXeXeX",
"eXeXeXeXeXeXeXeXeXeXeXeXeXeXeXeXeXeXeXeXeXeXeXeXeXeXeXeXeXeXeXeXeXeXeXeXeXeXeXeXeXeXeXeXeXeXeXeXeXeX",
"eXeXeXeXeXeXeXeXeXeXeXeXeXeXeXeXeXeXeXeXeXeXeXeXeXeXeXeXeXeXeXeXeXeXeXeXeXeXeXeXeXeXeXeXeXeXeXeXeXeX",
"eXeXeXeXeXeXeXeXeXeXeXeXeXeXeXeXeXeXeXeXeXeXeXeXeXeXeXeXeXeXeXeXeXeXeXeXeXeXeXeXeXeXeXeXeXeXeXeXeXeX",
"eXeXeXeXeXeXeXeXeXeXeXeXeXeXeXeXeXeXeXeXeXeXeXeXeXeXeXeXeXeXeXeXeXeXeXeXeXeXeXeXeXeXeXeXeXeXeXeXeXeX",
"eXeXeXeXeXeXeXeXeXeXeXeXeXeXeXeXeXeXeXeXeXy u eXeXeXi u eXeXeXeXeXeXeXeXeXeXeXeXeXeXeXeXeXeXeXeXeXeX",
"eXeXeXeXeXeXeXeXeXeXeXeXeXeXeXeXeXeXeX_.).eXeXeXeXeXeXeX).eXeXeXeXeXeXeXeXeXeXeXeXeXeXeXeXeXeXeXeXeX",
"eXeXeXeXeXeXeXeXeXeXeXeXeXeXeXeXeXeX6 q eXeXeXeXeXeXeXeXeXu eXeXeXeXeXeXeXeXeXeXeXeXeXeXeXeXeXeXeXeX",
"eXeXeXeXeXeXeXeXeXeXeXeXeXeXeXeXeXd g ,.4.eXeXeXeXeXeXeXeXeX).eXeXeXeXeXeXeXeXeXeXeXeXeXeXeXeXeXeXeX",
"eXeXeXeXeXeXeXeXeXeXeXeXeXeXeXeXa j =.u.Z.{.5.eXeXeXeXeXeXeXeX).i eXeXeXeXeXeXeXeXeXeXeXeXeXeXeXeXeX",
"eXeXeXeXeXeXeXeXeXeXeXeXeXeXeXb j z v =.P.;X X5.eXeXeXeXeXeXeXeXeXi e 4 e eXeXeXeXeXeXeXeXeXeXeXeXeX",
"eXeXeXeXeXeXeXeXeXeXeXeXeXeXA k ] l v X.d.E.;X=X[.eXeXeXeXeXeXeXeXeXeXeXeXeXi u eXeXeXeXeXeXeXeXeXeX",
"eXeXeXeXeXeXeXeXeXeXeXeXG L i.e.l K I [ ..h.!.OX@X{.8.eXeXeXeXeXeXeXeXeXeXeXeXeX_.eXeXeXeXeXeXeXeXeX",
"eXeXeXeXeXeXeXeXeXeX-.G 1.d.O.K n n J | $.g.z.b.n.OXoX{.].eXeXeXeXeXeXeXeXeXeXeXeX_.) eXeXeXeXeXeXeX",
"eXeXeXeXeXeXeXeX-.A i.d.{ P K B n B J o.$.g.x.x.v.n.^.;X4X|.].eXeXeXeXeXeXeXeXeXeXeXi eXeXeXeXeXeXeX",
"eXeXeXeXeXeX-.G a.h.s.Y k n n V n C J o.$.m.G.K.b.n.n.^.2X9X=X'.eXeXeXeXeXeXeXeXeXeXeXu eXeXeXeXeXeX",
"eXeXeXeXeX-.,.W p.O.P T D V F n F D E o.p.N.G.T.R.(.(.+X2XwXqX3X).eXeXeXeXeXeXeXeXeXeX4 eXeXeXeXeXeX",
"eXeXeXeXw - 1 = + b D F F D R T R ` ` p.p.M.L.W.OX+X%X<X7X0XqX0X|.i eXeXeXeXeXeXeXeXeX9 e ).eXeXeXeX",
"eXeXeXeXZ * *.3.* # F F R R J ! ^ <.J = d ; h ^.$X&X,X7X0XqXqXqXwX`.eXeXeXeXeXeXeXeX7 G -X.Xr eXeXeX",
"eXeXeXa i.a 1 - . : b , F Q ! @.m.<.= $ 3.;.+ N +X%X<X9XqXqXqXqXqX|.u eXeXeXeXeXeXeX: g a.9.w eXeXeX",
"eXeXeXL d.O.d , 7 R F # 8 H = P N.1.* 3 ~.3.* 2 #X&X,X6X9X0X0X9X6X4Xe eXeXeXeXeXeXeXeX< = 8 eXeXeXeX",
"eXeX< >.l.%.@.` E Q ` 7 5 y * P G.m.Z + f - @ 7.$X$X;X,X<X8X<X>X>X:X4 eXeXeXeXeXeXeXeXeXeXeXeXeXeXeX",
"eXeX< 1.l.#.~ Q Q Q ` 7   O * U G.G.!.V.2.a.k.Q.OX$X+X$X%X;X,X,X%X:Xq eXeXeXeXeXeXeXeXeXeXeXeXeXeXeX",
"eXeX6 A.P.#.~ ^ Q ` ' 7 o :.1 U D.F.K.T.Y.I.Y.R.Q./.(./.OX#X6X6X>X:Xt eXeXeXeXeXeXeXeXeXeXeXeXeXeXeX",
"eXeXw q.E.e.o.^ Q @.` m % 3.1 U D.F.K.T.J.Y.H.n.Y.R.R.R.H.L.XXXXE.=Xt eXeXeXeXeXeXeXeXeXeXeXeXeXeXeX",
"eXeXeXt -XG.#.o.~ ~ @.^ 1 *.& U S.D.K.K.J.J.Y.J.J.Y.Y.Y.b.l.e.v k.q.t eXeXeXeXeXeXeXeXeXeXeXeXeXeXeX",
"eXeXeXp }.#XM.+.| ~ @.@.,.< # i.f.S.H.K.K.K.J.K.K.H.x.x.u.=.x y.a.S eXeXeXeXeXeXeXeXeXeXeXeXeXeXeXeX",
"eXeXeXeX`.oXOXz.g.[ | o.! n K +.g.m.N.S.f.f.h.d.d.g.g.{ l c =.h.-.eXeXeXeXeXeXeXeXeXeXeXeXeXeXeXeXeX",
"eXeXeXeXeX4.=X$XP.g.} [ I P o.#.#.#.+.$.%.$.....X.[ [ c =.=.k.N eXeXeXeXeXeXeXeXeXeXeXeXeXeXeXeXeXeX",
"eXeXeXeXeXeX[.{.@XL.z.y.X.v X.[ ] ] ] | [ ] ] x z z v y.u.U G S eXeXeXeXeXeXeXeXeXeXeXeXeXeXeXeXeXeX",
"eXeXeXeXeXeXeXeX8..XZ.L.x.l.c.t.{ { {  .{ { t.t.y.s.h.>.d 0 eXeXeXeXeXeXeXeXeXeXeXeXeXeXeXeXeXeXeXeX",
"eXeXeXeXeXeXeXeXeXeXS Z 0.a.1.k.k.v.k.v.v.I.^.Z.7.G m m eXeXeXeXeXeXeXeXeXeXeXeXeXeXeXeXeXeXeXeXeXeX",
"eXeXeXeXeXeXeXeXeXeXeXeXeXeX0 S M M M M M 9. XG eXeXeXeXeXeXeXeXeXeXeXeXeXeXeXeXeXeXeXeXeXeXeXeXeXeX",
"eXeXeXeXeXeXeXeXeXeXeXeXeXeXeXeXeXeXeXeXeXeX_.eXeXeXeXeXeXeXeXeXeXeXeXeXeXeXeXeXeXeXeXeXeXeXeXeXeXeX",
"eXeXeXeXeXeXeXeXeXeXeXeXeXeXeXeXeXeXeXeXeXeXeXeXeXeXeXeXeXeXeXeXeXeXeXeXeXeXeXeXeXeXeXeXeXeXeXeXeXeX",
"eXeXeXeXeXeXeXeXeXeXeXeXeXeXeXeXeXeXeXeXeXeXeXeXeXeXeXeXeXeXeXeXeXeXeXeXeXeXeXeXeXeXeXeXeXeXeXeXeXeX",
"eXeXeXeXeXeXeXeXeXeXeXeXeXeXeXeXeXeXeXeXeXeXeXeXeXeXeXeXeXeXeXeXeXeXeXeXeXeXeXeXeXeXeXeXeXeXeXeXeXeX",
"eXeXeXeXeXeXeXeXeXeXeXeXeXeXeXeXeXeXeXeXeXeXeXeXeXeXeXeXeXeXeXeXeXeXeXeXeXeXeXeXeXeXeXeXeXeXeXeXeXeX",
"eXeXeXeXeXeXeXeXeXeXeXeXeXeXeXeXeXeXeXeXeXeXeXeXeXeXeXeXeXeXeXeXeXeXeXeXeXeXeXeXeXeXeXeXeXeXeXeXeXeX",
"eXeXeXeXeXeXeXeXeXeXeXeXeXeXeXeXeXeXeXeXeXeXeXeXeXeXeXeXeXeXeXeXeXeXeXeXeXeXeXeXeXeXeXeXeXeXeXeXeXeX",
"eXeXeXeXeXeXeXeXeXeXeXeXeXeXeXeXeXeXeXeXeXeXeXeXeXeXeXeXeXeXeXeXeXeXeXeXeXeXeXeXeXeXeXeXeXeXeXeXeXeX",
"eXeXeXeXeXeXeXeXeXeXeXeXeXeXeXeXeXeXeXeXeXeXeXeXeXeXeXeXeXeXeXeXeXeXeXeXeXeXeXeXeXeXeXeXeXeXeXeXeXeX",
"eXeXeXeXeXeXeXeXeXeXeXeXeXeXeXeXeXeXeXeXeXeXeXeXeXeXeXeXeXeXeXeXeXeXeXeXeXeXeXeXeXeXeXeXeXeXeXeXeXeX"
};
