/* XPM */
static char *result[] = {
/* columns rows colors chars-per-pixel */
"50 50 222 2 ",
"   c #2F3F18",
".  c #26271C",
"X  c #2B4219",
"o  c #364A19",
"O  c #3D5917",
"+  c #3C621F",
"@  c #364A2B",
"#  c #385B24",
"$  c #3C6424",
"%  c #3C632C",
"&  c #46551D",
"*  c #505117",
"=  c #4B5528",
"-  c #486828",
";  c #506E25",
":  c #4D722C",
">  c #4B6137",
",  c #546832",
"<  c #5D7E34",
"1  c #5E7D3B",
"2  c #54713A",
"3  c #5E7429",
"4  c #6B713E",
"5  c #646A3F",
"6  c #5A5B55",
"7  c #4D6440",
"8  c #587944",
"9  c #5D6258",
"0  c #737D4C",
"q  c #5D6463",
"w  c #6B6B6B",
"e  c #656565",
"r  c #6C6F70",
"t  c #737373",
"y  c #7B7B7A",
"u  c #787878",
"i  c #817F2F",
"p  c #5A8736",
"a  c #599A33",
"s  c #5A983A",
"d  c #55892C",
"f  c #65863C",
"g  c #63863A",
"h  c #738232",
"j  c #609C3D",
"k  c #73943E",
"l  c #5EA93B",
"z  c #5CA53F",
"x  c #65A53A",
"c  c #65B33B",
"v  c #69BB3B",
"b  c #69B53A",
"n  c #71BD39",
"m  c #74AD3D",
"M  c #6CC33D",
"N  c #6FC83E",
"B  c #73C53C",
"V  c #7BC93E",
"C  c #5C8747",
"Z  c #5C9340",
"A  c #6C8246",
"S  c #668648",
"D  c #629B46",
"F  c #61954A",
"G  c #679A47",
"H  c #76984B",
"J  c #6B8556",
"K  c #728C52",
"L  c #649554",
"P  c #659A54",
"I  c #6A9753",
"U  c #7F9457",
"Y  c #779956",
"T  c #5DA543",
"R  c #68A847",
"E  c #74A947",
"W  c #66B143",
"Q  c #6AB34C",
"!  c #6FBB49",
"~  c #6CB845",
"^  c #75BA4B",
"/  c #69A453",
"(  c #6DAA54",
")  c #6CA758",
"_  c #78A959",
"`  c #74BD53",
"'  c #75B75A",
"]  c #7B8863",
"[  c #7F9768",
"{  c #7E817A",
"}  c #6D8562",
"|  c #7AB764",
" . c #6EC644",
".. c #6FC44A",
"X. c #7BCB44",
"o. c #73C64A",
"O. c #7BC34B",
"+. c #71CA4A",
"@. c #7ACD4B",
"#. c #75C745",
"$. c #7CCD54",
"%. c #7CC35C",
"&. c #7ECA59",
"*. c #76C555",
"=. c #7DD255",
"-. c #7DD759",
";. c #919236",
":. c #839E48",
">. c #969C55",
",. c #809653",
"<. c #81A94F",
"1. c #87B948",
"2. c #84A659",
"3. c #84B354",
"4. c #89B756",
"5. c #93B85D",
"6. c #98A650",
"7. c #AEAD44",
"8. c #86977B",
"9. c #818672",
"0. c #8BA666",
"q. c #84B763",
"w. c #9BB86C",
"e. c #9DBD73",
"r. c #94A778",
"t. c #84CC4E",
"y. c #8BCD4B",
"u. c #88C949",
"i. c #88D449",
"p. c #97D74E",
"a. c #86CD55",
"s. c #93CF55",
"d. c #94CB5D",
"f. c #86D752",
"g. c #8DD955",
"h. c #8AD65A",
"j. c #82DB5C",
"k. c #8BDA59",
"l. c #89D458",
"z. c #94D857",
"x. c #AFCF55",
"c. c #97E25D",
"v. c #A5E65C",
"b. c #82C765",
"n. c #8AD162",
"m. c #96D465",
"M. c #97D968",
"N. c #96D170",
"B. c #A2C969",
"V. c #A2D664",
"C. c #AAD775",
"Z. c #AFD076",
"A. c #8FE261",
"S. c #97E563",
"D. c #9CE564",
"F. c #9EE963",
"G. c #9CEA69",
"H. c #99E66B",
"J. c #A3EB65",
"K. c #AAED64",
"L. c #A3ED69",
"P. c #ACED6D",
"I. c #A1E668",
"U. c #B4ED67",
"Y. c #A9F064",
"T. c #ABF16B",
"R. c #A6F069",
"E. c #B5F26D",
"W. c #B9F06C",
"Q. c #ABEA73",
"!. c #B7E976",
"~. c #BBF572",
"^. c #B8F375",
"/. c #C9DD7E",
"(. c #C0EE6F",
"). c #C6F57A",
"_. c #C7E478",
"`. c #E9EE69",
"'. c #848582",
"]. c #8A8A8A",
"[. c #8E9189",
"{. c #929292",
"}. c #9FA48D",
"|. c #9EA094",
" X c #A1A597",
".X c #ABB89A",
"XX c #ABB884",
"oX c #AEB0A5",
"OX c #B6BBA2",
"+X c #B4D18A",
"@X c #B8E893",
"#X c #BEC0B8",
"$X c #C9DA86",
"%X c #CAF681",
"&X c #C9F985",
"*X c #C7F686",
"=X c #D2F88A",
"-X c #D5EF9A",
";X c #CEF794",
":X c #D7F59E",
">X c #D4FA9D",
",X c #DFFA9F",
"<X c #D9F799",
"1X c #CAE58E",
"2X c #DAECAA",
"3X c #DBF8A8",
"4X c #DDF6B7",
"5X c #CEE8AF",
"6X c #E7FBB9",
"7X c #E3F1AE",
"8X c #CACCC1",
"9X c #DFE2D0",
"0X c #E9F7C6",
"qX c #EDF8D7",
"wX c #F2FCD9",
"eX c #ECF2CA",
"rX c #F9FCEA",
"tX c #F7FAE4",
"yX c #FCFEF3",
"uX c #FEFFFD",
"iX c #ECEEE6",
"pX c None",
/* pixels */
"pXpXpXpXpXpXpXpXpXpXpXpXpXpXpXpXpXpXpXpXpXpXpXpXpXpXpXpXpXpXpXpXpXpXpXpXpXpXpXpXpXpX8 Y 5X|.r pXpXpX",
"pXpXpXpXpXpXpXpXpXpXpXpXpXpXpXpXpXpXpXpXpXpXpXpXpXpXpXpXpXpXpXpXpXpXpXpXpXpXpXpXpXpX- G C.+Xq pXpXpX",
"pXpXpXpXpXpXpXpXpXpXpXpXpXpXpXpXpXpXpXpXpXpXpXpXpXpXpXpXpXpXpXpXpXpXpXpXpXpXpXpXpXpXJ 2 : 8 pXpXpXpX",
"pXpXpXpXpXpXpXpXpXpXpXpXpXpXpXpXpXpXpXpXpXpXpXpXpXpXpXpXpXpXpXpXpXpXpXpXpXpXpXu { pXpXpXpXpXpXpXpXpX",
"pXpXpXpXpXpXpXpXpXpXpXpXpXpXpXpXpXpXpXpXpXpXpXpXpXpXpXpXpXpXpXpXpXpXpXpXpXpX'.pXpXpXpXpXpXpXpXpXpXpX",
"pXpXpXpXpXpXpXpXpXpXpXpXpXpXpXpXpXpXpXpXpXpXpXpXpXpXpXpXpXpXpXpXpXpXpXpXpXw pXpXpXpXpXpXpXpXpXpXpXpX",
"pXpXpXpXpXpXpXpXpXpXpXpXpXpXpXpXpXpXpXpXpXpXpXpXpXpXpXpXpXpXpXpXpXpXpXpXw pXpXpXpXpXpXpXpXpXpXpXpXpX",
"pXpXpXpXpXpXpXpXpXpXpXpXpXpXpXpXpXpXpXpXpXpXpXpXpXpXpXpXpXpXpXpXpXpXpXpXe pXpXpXpXpXpXpXpXpXpXpXpXpX",
"pXpXpXpXpXpXpXpXpXpXpXpXpXpXpXpXpXpXpXpXpXpXpXpXpXpXpXpXpXpXpXpXpXpXpXpXu pXpXpXpXpXpXpXpXpXpXpXpXpX",
"pXpXpXpXpXpXpXpXpXpXpXpXpXpXpXpXpXpXpXpXpXpXpXpXpXpXpXpXpXpXpXpXpXpXpXy pXpXpXpXpXpXpXpXpXpXpXpXpXpX",
"pXpXpXpXpXpXpXpXpXpXpXpXpXpXpXpXpXpXpXpXpXpXpXpXpXpXpXpXpXpXpXpXpXpXpXw pXpXpXpXpXpXpXpXpXpXpXpXpXpX",
"pXpXpXpXpXpXpXpXpXpXpXpXpXpXpXpXpXpXpXpXpXpXpXpXpXpXpXpXpXpXpXpXpX{.].pXpXpXpXpXpXpXpXpXpXpXpXpXpXpX",
"pXpXpXpXpXpXpXpXpXpXpXpXpXpXpXpXpXpXpXpXpXpXpXpXpXpXpXpXpXpXt u y pXpXpXpXpXpXpXpXpXpXpXpXpXpXpXpXpX",
"pXpXpXpXpXpXpXpXpXpXpXpXpXpXpXpXpXpXpXpXpXpXpXpXpXpXpXy t e pXpXpXpXpXpXpXpXpXpXpXpXpXpXpXpXpXpXpXpX",
"pXpXpXpXpXpXpXpXpXpXpXpXpXpXpXpXpXpXpXpXpXpXpX].t pXpXpXpXpXpXpXpXpXpXpXpXpXpXpXpXpXpXpXpXpXpXpXpXpX",
"pXpXpXpXpXpXpXpXpXpXpXpXpXpXpXpXpXpXpXpXpXpX].pXpXpXpXpXpXpXpXpXpXpXpXpXpXpXpXpXpXpXpXpXpXpXpXpXpXpX",
"pXpXpXpXpXpXpXpXpXpXpXpXpXpXpXpXpXpXpXpXpXu pXpXpXpXpXpXpXpXpXpXpXpXpXpXpXpXpXpXpXpXpXpXpXpXpXpXpXpX",
"pXpXpXpXpXpXpXpXpXpXpXpXpXpXpXpXpXpXpXpXu pXpXpXpXpXpXpXpXpXpXpXpXpXpXpXpXpXpXpXpXpXpXpXpXpXpXpXpXpX",
"pXpXpXpXpXpXpXpXpXpXpXpXpXpXpXpXpXpXpXpX6 pXpXpXpXpXpXpXpXpXpXpXpXpXpXpXpXpXpXpXpXpXpXpXpXpXpXpXpXpX",
"pXpXpXpXpXpXpXpXpXpXpXpXpXpXpXpXpXpXS S S 8.pXpXpXpXpXpXpXpXpXpXpXpXpXpXpXpXpXpXpXpXpXpXpXpXpXpXpXpX",
"pXpXpXpXpXpXpXpXpXpXpXpXpXpXpXpXpXp x u.x.w.[.pXpXpXpXpXpXpXpXpXpXpXpXpXpXpXpXpXpXpXpXpXpXpXpXpXpXpX",
"pXpXpXpXpXpXpXpXpXpXpXpXpXpXpXpXC a M i.p.!.+X8.pXpXpXpXpXpXpXpXpXpXpXpXpXpXpXpXpXpXpXpXpXpXpXpXpXpX",
"pXpXpXpXpXpXpXpXpXpXpXpXpXpXpXY s v v V i.v.*X1Xr.pXpXpXpXpXpXpXpXpXpXpXpXpXpXpXpXpXpXpXpXpXpXpXpXpX",
"pXpXpXpXpXpXpXpXpXpXpXpXpXY H ^ O.c c  .X.z.U.%X:XXX9.pXpXpXpXpXpXpXpXpXpXpXpXpXpXpXpXpXpXpXpXpXpXpX",
"pXpXpXpXpXpXpXpXpXpXpXpXH 4.M.m.~ s s ! a.g.v.U.=X,X2X.X9.pXpXpXpXpXpXpXpXpXpXpXpXpXpXpXpXpXpXpXpXpX",
"pXpXpXpXpXpXpXpXpXK S 4.d.s.O.E D Z R ` $.g.z.K.W.).,X3X2XOX XpXpXpXpXpXpXpXpXpXpXpXpXpXpXpXpXpXpXpX",
"pXpXpXpXpXpXpXpXH 4.d.l.#.W x G F F R ` $.h.S.J.v.U.(.=X,XeXiX#X{.pXpXpXpXpXpXpXpXpXpXpXpXpXpXpXpXpX",
"pXpXpXpXpXpXK <.s.g.f.^ R D F F F G / ` &.h.D.P.~.(.).=X6XqXrXyX8X9.pXpXpXpXpXpXpXpXpXpXpXpXpXpXpXpX",
"pXpXpXpXpXf 4 d & p / / P P P F P ) ' %.l.m.P.~.&X=X,X6XwXyXyXyXrXoXu pXpXpXpXpXpXpXpXpXpXpXpXpXpXpX",
"pXpXpXpXS :.* >.8   8 I L P / / ' ' | ' H m 4.!.=X<X6XwXyXuXuXyXrXiX'.pXpXpXpXpXpXpXpXpXpXpXpXpXpXpX",
"pXpXpXp 1.4.O 6.8   2 C L ) ' ' %.b.| # o 6.& - Z.3X4XqXrXyXyXrXiXtXpXe pXpXpXpXpXpXpXpXpXpXpXpXpXpX",
"pXpXpX<.v.y.d : X % L 8 # C P s l.N.K & ;.`.>.= 2.<X6X0XwXrXwXwX7XeX9X'.pXpXpXpXpXpXpXpXpXpXpXpXpXpX",
"pXpX, d.Y.X.~ s s ( | _ > 8.} % a.H._ @ & x., o w.>X3X4X6X0X6X,X/.$X6X X9 pXpXpXpXpXpXpXpXpXpXpXpXpX",
"pXpX, B.v.#.W T W ` | | @ . @ # n.G.N.q.f k f 5.).;X>X>X>X:X:X-X1X_.2X X6 pXpXpXpXpXpXpXpXpXpXpXpXpX",
"pXpX, B.T.O.z T Q ` a.q.@ * ;.: M.G.G.Q.E.P.!.~.^.&X&X&X&X%X-X4XwX3X7X}.6 pXpXpXpXpXpXpXpXpXpXpXpXpX",
"pXpX> Z.!.O.x z Q ` %.| , i 7.; m.G.F.R.Y.Y.Y.U.E.E.^.^.!.J.Q.@X5X;X3X}.pXpXpXpXpXpXpXpXpXpXpXpXpXpX",
"pXpXpXU @Xp.c l W *.%.%.3.3 h - m.H.D.L.R.K.K.K.Y.Y.Y.Y.R.D.l.u.g.E.+XU pXpXpXpXpXpXpXpXpXpXpXpXpXpX",
"pXpXpX0 5.T.@.c T Q *.*.| _ + p m.S.D.I.L.L.J.J.F.J.c.c.A.l. .v p.~.0.pXpXpXpXpXpXpXpXpXpXpXpXpXpXpX",
"pXpXpXpXU B.H.O.W W ~ +.*.Q a *.j.h.A.G.G.S.z.k.g.f.f.f.X.~ n p.!.e.] pXpXpXpXpXpXpXpXpXpXpXpXpXpXpX",
"pXpXpXpXpX2.N.M.f.M v  ... ...*.+.-.-.-.j.j.=.=.@.@.@. .B V p.C.0.pXpXpXpXpXpXpXpXpXpXpXpXpXpXpXpXpX",
"pXpXpXpXpXpXpXq.M.g.X.B v v M M  .+.+.+.+.+.o. .M B B X.i.s.2.0.pXpXpXpXpXpXpXpXpXpXpXpXpXpXpXpXpXpX",
"pXpXpXpXpXpXpXpXJ E 4.n.t.X.B M B  .N N N N B B V u.y.y.m Y pXpXpXpXpXpXpXpXpXpXpXpXpXpXpXpXpXpXpXpX",
"pXpXpXpXpXpXpXpXpXpXpXS f E x m y.t.@.i.i.y.p.x.4.<.g 8 > pXpXpXpXpXpXpXpXpXpXpXpXpXpXpXpXpXpXpXpXpX",
"pXpXpXpXpXpXpXpXpXpXpXpXpXpXpXA S 4 p 4 p f :.,.J pXpXpXpXpXpXpXpXpXpXpXpXpXpXpXpXpXpXpXpXpXpXpXpXpX",
"pXpXpXpXpXpXpXpXpXpXpXpXpXpXpXpXpXpXpXpXpXpXpX9 pXpXpXpXpXpXpXpXpXpXpXpXpXpXpXpXpXpXpXpXpXpXpXpXpXpX",
"pXpXpXpXpXpXpXpXpXpXpXpXpXpXpXpXpXpXpXpXpXpXpXpXpXpXpXpXpXpXpXpXpXpXpXpXpXpXpXpXpXpXpXpXpXpXpXpXpXpX",
"pXpXpXpXpXpXpXpXpXpXpXpXpXpXpXpXpXpXpXpXpXpXpXpXpXpXpXpXpXpXpXpXpXpXpXpXpXpXpXpXpXpXpXpXpXpXpXpXpXpX",
"pXpXpXpXpXpXpXpXpXpXpXpXpXpXpXpXpXpXpXpXpXpXpXpXpXpXpXpXpXpXpXpXpXpXpXpXpXpXpXpXpXpXpXpXpXpXpXpXpXpX",
"pXpXpXpXpXpXpXpXpXpXpXpXpXpXpXpXpXpXpXpXpXpXpXpXpXpXpXpXpXpXpXpXpXpXpXpXpXpXpXpXpXpXpXpXpXpXpXpXpXpX",
"pXpXpXpXpXpXpXpXpXpXpXpXpXpXpXpXpXpXpXpXpXpXpXpXpXpXpXpXpXpXpXpXpXpXpXpXpXpXpXpXpXpXpXpXpXpXpXpXpXpX"
};
