/* XPM */
static char *result[] = {
/* columns rows colors chars-per-pixel */
"50 50 225 2 ",
"   c #2A4B13",
".  c #3C471C",
"X  c #3B581B",
"o  c #3B641D",
"O  c #3A6822",
"+  c #416424",
"@  c #456C26",
"#  c #566C27",
"$  c #527026",
"%  c #546735",
"&  c #54683E",
"*  c #586C3B",
"=  c #587539",
"-  c #44732D",
";  c #617737",
":  c #65712C",
">  c #54564E",
",  c #5E5A5D",
"<  c #5F7840",
"1  c #596648",
"2  c #6A794C",
"3  c #63734B",
"4  c #656A5B",
"5  c #6F7C53",
"6  c #717F57",
"7  c #626061",
"8  c #6C6B6B",
"9  c #646960",
"0  c #6E706C",
"q  c #75786A",
"w  c #736F74",
"e  c #747473",
"r  c #7C7A77",
"t  c #568A39",
"y  c #5C9739",
"u  c #4C8734",
"i  c #678837",
"p  c #758F33",
"a  c #68973D",
"s  c #77993D",
"d  c #5FA73D",
"f  c #63A73A",
"g  c #6BBC3C",
"h  c #67B33C",
"j  c #70BE3D",
"k  c #73C53E",
"l  c #5C9442",
"z  c #5D974D",
"x  c #5E9650",
"c  c #5E854B",
"v  c #6A8A45",
"b  c #6D8246",
"n  c #718B49",
"m  c #6E9446",
"M  c #6B944A",
"N  c #659848",
"B  c #74914D",
"V  c #79934B",
"C  c #6C8054",
"Z  c #728D56",
"A  c #689754",
"S  c #7A9558",
"D  c #65A64A",
"F  c #78A84A",
"G  c #67B244",
"H  c #6DB143",
"J  c #6EBC4B",
"K  c #6AB945",
"L  c #71BD4C",
"P  c #74B346",
"I  c #67A351",
"U  c #6CA455",
"Y  c #66A852",
"T  c #75AD5C",
"R  c #72AD56",
"E  c #72B554",
"W  c #73BE55",
"Q  c #78B75D",
"!  c #6AB451",
"~  c #798465",
"^  c #7D8371",
"/  c #7F9B67",
"(  c #7BAD68",
")  c #6DC244",
"_  c #6EC24A",
"`  c #76CB44",
"'  c #7CCE42",
"]  c #77C848",
"[  c #7BD243",
"{  c #7BD24A",
"}  c #74C353",
"|  c #7DCB55",
" . c #78C45C",
".. c #7DCA59",
"X. c #78C752",
"o. c #7DD153",
"O. c #7AC866",
"+. c #949542",
"@. c #83995A",
"#. c #86A74B",
"$. c #8EB04F",
"%. c #90B64F",
"&. c #83B454",
"*. c #8CBC52",
"=. c #96B852",
"-. c #838A6C",
";. c #849569",
":. c #8A9578",
">. c #919C7A",
",. c #888D7D",
"<. c #88BB69",
"1. c #99BF63",
"2. c #99A778",
"3. c #91B271",
"4. c #A8BE67",
"5. c #A0B679",
"6. c #84CF46",
"7. c #88CA4C",
"8. c #93C84D",
"9. c #89D64C",
"0. c #84DB4C",
"q. c #87D948",
"w. c #81CE5C",
"e. c #89C856",
"r. c #97CA57",
"t. c #88D857",
"y. c #94DD54",
"u. c #9DDC5C",
"i. c #99D458",
"p. c #97DD4E",
"a. c #A5DA5E",
"s. c #88E14E",
"d. c #9AE24F",
"f. c #8DE252",
"g. c #87E050",
"h. c #92E455",
"j. c #9CE555",
"k. c #9AEB5B",
"l. c #98E55C",
"z. c #9FF15F",
"x. c #A3EC5C",
"c. c #A8E459",
"v. c #82C967",
"b. c #96C768",
"n. c #88D664",
"m. c #90DB67",
"M. c #81CE71",
"N. c #9EDE77",
"B. c #A1C06A",
"V. c #A9D966",
"C. c #A5C872",
"Z. c #ABDA73",
"A. c #B7DA7C",
"S. c #9AE464",
"D. c #9EEB64",
"F. c #96E16C",
"G. c #98E566",
"H. c #A4ED64",
"J. c #ADEB64",
"K. c #ADED6B",
"L. c #A8E666",
"P. c #B6EB67",
"I. c #A5F263",
"U. c #AAF165",
"Y. c #ADF26B",
"T. c #B3F36A",
"R. c #BDF36C",
"E. c #B1F264",
"W. c #A5EC74",
"Q. c #ACED72",
"!. c #AFE87F",
"~. c #B9EB74",
"^. c #B4EA76",
"/. c #BCF575",
"(. c #B6F677",
"). c #D8DD4F",
"_. c #D6DD53",
"`. c #C3EC76",
"'. c #C9EF7C",
"]. c #C4ED7A",
"[. c #C4F579",
"{. c #D2F57C",
"}. c #C8EE6A",
"|. c #878984",
" X c #878787",
".X c #939393",
"XX c #98A183",
"oX c #A0B381",
"OX c #A6AE92",
"+X c #ADB2A6",
"@X c gray69",
"#X c #B3C88A",
"$X c #B9D787",
"%X c #C5E98A",
"&X c #CCF586",
"*X c #C8F585",
"=X c #D4F48B",
"-X c #D3F98C",
";X c #D7F88B",
":X c #CCEE92",
">X c #D6EF9A",
",X c #CDF495",
"<X c #D5F692",
"1X c #DAF39D",
"2X c #DBF99C",
"3X c #D4F996",
"4X c #CAD8AA",
"5X c #D8F8A5",
"6X c #D4E5B1",
"7X c #D9FBB4",
"8X c #CCE6A5",
"9X c #E2FAA6",
"0X c #E5F9AC",
"qX c #ECFBBD",
"wX c #E3F8B7",
"eX c #DDDEDE",
"rX c #EAFAC7",
"tX c #F2FCC8",
"yX c #E2E5D9",
"uX c #F7FDDC",
"iX c gray93",
"pX c #F7FBE9",
"aX c #FDFFFC",
"sX c #F9FDF2",
"dX c None",
/* pixels */
"dXdXdXdXdXdXdXdXdXdXdXdXdXdXdXdXdXdXdXdXdXdXdXdXdXdXdXdXdXdXdXdXdXdXdXdXdXdXdXdXdXdXdXdXdXdXdXdXdXdX",
"dXdXdXdXdXdXdXdXdXdXdXdXdXdXdXdXdXdXdXdXdXdXdXdXdXdXdXdXdXdXdXdXdXdXdXdXdXdXdXdXdXdXdXdXdXdXdXdXdXdX",
"dXdXdXdXdXdXdXdXdXdXdXdXdXdXdXdXdXdXdXdXdXdXdXdXdXdXdXdXdXdXdXdXdXdXdXdXdXdXdXdXdXdXdXdXdXdXdXdXdXdX",
"dXdXdXdXdXdXdXdXdXdXdXdXdXdXdXdXdXdXdXdXdXdXdXdXdXdXdXdXdXdXdXdXdXdXdXdXdXdXdXdXdXdXdXdXdXdXdXdXdXdX",
"dXdXdXdXdXdXdXdXdXdXdXdXdXdXdXdXdXdXdXdXdXdXdXdXdXdXdXdXdXdXdXdXdXdXdXdXdXdXdXdXdXdXdXdXdXdXdXdXdXdX",
"dXdXdXdXdXdXdXdXdXdXdXdXdXdXdXdXdXdXdXdXdXdXdXdXdXdXdXdXdXdXdXdXdXdXdXdXdXdXdXdXdXdXdXdXdXdXdXdXdXdX",
"dXdXdXdXdXdXdXdXdXdXdXdXdXdXdXdXdXdXdXdXdXdXdXdXdXdXdXdXdXdXdXdXdXdXdXdXdXdXdXdXdXdXdXdXdXdXdXdXdXdX",
"dXdXdXdXdXdXdXdXdXdXdXdXdXdXdXdXdXdXdXdXdXdXdXdXdXdXdXdXdXdXdXdXdXdXdXdXdXdXdXdXdXdXdXdXdXdXdXdXdXdX",
"dXdXdXdXdXdXdXdXdXdXdXdXdXdXdXdXdXdXdXdXdXdXdXdXdXdXdXdXdXdXdXdXdXdXdXdXdXdXdXdXdXdXdXdXdXdXdXdXdXdX",
"dXdXdXdXdXdXdXdXdXdXdXdXdXdXdXdXdXdXdXdXdXdXdXdXdXdXdXdXdXdXdXdXdXdXdXdXdXdXdXdXdXdXdXdXdXdXdXdXdXdX",
"dXdXdXdXdXdXdXdXdXdXdXdXdXdXdXdXdXdXdXdXdXdXdXdXdXdXdXdXdXdXdXdXdXdXdXdXdXdXdXdXdXdXdXdXdXdXdXdXdXdX",
"dXdXdXdXdXdXdXdXdXdXdXdXdXdXdXdXdXdXdXdXdXdXdXdXdXdXdXdXdXdXdXdXdXdXdXdXdXdXdXdXdXdXdXdXdXdXdXdXdXdX",
"dXdXdXdXdXdXdXdXdXdXdXdXdXdXdXdXdXdXdXdXdXdXdXdXdXdXdXdXdXdXdXdXdXdXdXdXdXdXdXdXdXdXdXdXdXdXdXdXdXdX",
"dXdXdXdXdXdXdXdXdXdXdXdXdXdXdXdXdXdXdXdXdXdXdXdXdXdXdXdXdXdXdXdXdXdXdXdXdXdXdXdXdXdXdXdXdXdXdXdXdXdX",
"dXdXdXdXdXdXdXdXdXdXdXdXdXdXdXdXdXdXdXdXdXdXdXdXdXdXdXdXdXdXdXdXdXdXdXdXdXdXdXdXdXdXdXdXdXdXdXdXdXdX",
"dXdXdXdXdXdXdXdXdXdXdXdXdXdXdXdXdXdXdXdXdXdXdXdXdXdXdXdXdXdXdXdXdXdXdXdXdXdXdXdXdXdXdXdXdXdXdXdXdXdX",
"dXdXdXdXdXdXdXdXdXdXdXdXdXdXdXdXdXdXdXdXdXdXdXdXdXdXdXdXdXdXdXdXdXdXdXdXdXdXdXdXdXdXdXdXdXdXdXdXdXdX",
"dXdXdXdXdXdXdXdXdXdXdXdXdXdXdXdXdXdXdXdXdXdXdXdXdXdXdXdXdXdXdXdXdXdXdXdXdXdXdXdXdXdXdXdXdXdXdXdXdXdX",
"dXdXdXdXdXdXdXdXdXdXdXdXdXdXdXdXdXdXdXdXdXdXdXdXdXdXdXdXdXdXdXdXdXdXdXdXdXdXdXdXdXdXdXdXdXdXdXdXdXdX",
"dXdXdXdXdXdXdXdXdXdXdXdXdXdXdXdXdXdXdXdXdXdXdXdXdXdXdXdXdXdXdXdXdXdXdXdXdXdXdXdXdXdXdXdXdXdXdXdXdXdX",
"dXdXdXdXdXdXdXdXdXdXdXdXdXdXdXdXdXdXdXdXdXdXdXdXdXdXdXdXdXdXdXdXdXdXdXdXdXdXdXdXdXdXdXdXdXdXdXdXdXdX",
"dXdXdXdXdXdXdXdXdXdXdXdXdXdXdXdXdXdXdXdXdXdXdXdXdXdXdXdXdXdXdXdXdXdXdXdXdXdXdXdXdXdXdXdXdXdXdXdXdXdX",
"dXdXdXdXdXdXdXdXdXdXdXdXdXdXdXdXdXdXdXdXdXdXdXdXdXdXdXdXdXdXdXdXdXdXdXdXdXdXdXdXdXdXdXdXdXdXdXdXdXdX",
"dXdXdXdXdXdXdXdXdXdXdXdXdXdXdXdXdXdXdXdXdXdXdXdXdXdXdXdXdXdXdXdXdXdXdXdXdXdXdXdXdXdXdXdXdXdXdXdXdXdX",
"dXdXdXdXdXdXdXdXdXdXdXdXdXdXdXdXdXdXdXdXdXdXdXdXdXdXdXdXdXdXdXdXdXdXdXdXdXdXdXdXdXdXdXdXdXdXdXdXdXdX",
"dXdXdXdXdXdXdXdXdXdXdXdXdXdXdXdXdXdXdXdXdXdXdXdXdXdXdXe 7 , , 7 , 7 r dXdXdXdXdXdXdXdXdXdXdXdXdXdXdX",
"dXdXdXdXdXdXdXdXdXdXdXdXdXdXdXdXdXdXdXdXdXdXdXdXdX XdXdXdXdXdXdXdXdXdXdXdXw dXdXdXdXdXdXdXdXdXdXdXdX",
"dXdXdXdXdXdXdXdXdXdXdXdXdXdXdXdXdXdXdXdXdXdXv v S ~ dXdXdXdXdXdXdXdXdXdXdXdXdXdXdXdXdXdXdXdXdXdXdXdX",
"dXdXdXdXdXdXdXdXdXdXdXdXdXdXdXdXdXdXdXdXdXt j a.^.5.~ dXdXdXdXdXdXdXdXdXdXdXdXdX XdXdXdXdXdXdXdXdXdX",
"dXdXdXdXdXdXdXdXdXdXdXdXdXdXdXdXdXdXdXM a h 6.j.J.%X2.;.dXdXdXdXdXdXdXdXdXdXdXdXdXe dXdXdXdXdXdXdXdX",
"dXdXdXdXdXdXdXdXdXdXdXdXdXdXdXdXdXdXN H ` ` k q.d.}.>XOX:.dXdXdXdXdXdXdXdXdXdXdXdXdXe dXdXdXdXdXdXdX",
"dXdXdXdXdXdXdXdXdXdXdXdXdXdXdXm m &.e.X.] ] 6.9.p.a.].0X4XXXdXdXdXdXdXdXdXdXdXdXdXdXe dXdXdXdXdXdXdX",
"dXdXdXdXdXdXdXdXdXdXdXB v F e.r.S.S...G G W ..m.l.c.P.'.1X6XOX,.dXdXdXdXdXdXdXdXdXdXdXr dXdXdXdXdXdX",
"dXdXdXdXdXdXdXdXB #.*.u.H.h.h.t...W Y D D W n.F.H.L.J.P.`.>XrXyX+X,.dXdXdXdXdXdXdXdXdX8 dXdXdXdXdXdX",
"dXdXdXdXdXdX#.=.V.E.x.p.6.] ) J Y x z N D } t.D.K.^.~.R.[.=XqXuXpXeX@X.XdXdXdXdXdXdXdX7 dXdXdXdXdXdX",
"dXdXdXdX#.$.a.8.s f h H h H D I A A A I J | F.Q./.*X=X=X5XqXuXsXaXaXiX.XdXdXdXdXdXdXdX7 dXdXdXdXdXdX",
"dXdXdXdX$.R.s $ s   O I A U U U U U T E } e.b.Z.&X>X1X0XrXuXsXaXaXaXaXeX XdXdXdXdXdXdXe dXdXdXdXdXdX",
"dXdXdXV P.c.% : 4.; O Y T T T Q W  .v.v.l o p # ; A.1XwXtXuXsXsXaXsXpXiX@X9 dXdXdXdX8 dXdXdXdXdXdXdX",
"dXdX2 1.~.t.t O #   u E N ( <.Q n.m.Z.<.+ : ).+.. V 5XqXtXuXpXpXuXqXwXwX4X~ dXdXdXdXe dXdXdXdXdXdXdX",
"dXdX* A.(.{ G l t D O.Q u - A M P W.!.r.X $ _.+.. S 5X0XqXtXtXqX0X;X{.;X0X>.dXdXdXr dXdXdXdXdXdXdXdX",
"dXdX* A.(.` h D T O.M.M.O.U l y w.Q.^.Z.F + p # ; ~.2X2X9X9X9X7X9X;X}.{.9X>.dXdXr dXdXdXdXdXdXdXdXdX",
"dXdX< $X(.[ h f !  .O.O.v.n.m.S.I.Q.Y.K.K.V.i.V.].-X-X-X;X<X5XwXrX7X].'.1X:.dXdX0 dXdXdXdXdXdXdXdXdX",
"dXdX5 $X*Xf.j f ! W  . ...w.t.F.z.I.I.Y.U.J.U.R.[.[.*X&X&X&X-X5X7X5X*X].%X;.dX0 dXdXdXdXdXdXdXdXdXdX",
"dXdXdX@.:XK.9.g K K J } W w.w.t.G.W.I.I.U.U.U.E.T.(./.[.[./.Q.Q.W.K.R.*X1.6 dX8 dXdXdXdXdXdXdXdXdXdX",
"dXdXdX5 5.2XL.9.j g g J } X.X.t.G.G.z.D.I.I.I.I.U.I.I.x.k.l.t.t.t.j.}.A.Z dX9 dXdXdXdXdXdXdXdXdXdXdX",
"dXdXdXdX;.#X,X!.9.j g g J ) _ X.o.o.f.k.z.I.I.z.z.k.l.h.f.0.[ 0.h.E.Z.3.dXdX> dXdXdXdXdXdXdXdXdXdXdX",
"dXdXdXdXdXdXoX8X:XV.y.6.k k K k ` ` s.s.s.h.h.h.f.f.s.s.s.q.d.E.~.C./ dXdXdX0 dXdX~ ^ dXdXdXdXdXdXdX",
"dXdXdXdXdXdXdX;.2.#X%X^.u.y.[ ` k k [ k [ k [ [ 0.s.f.k.x.J.a.b.@.-.dXdXdXdXdX> = 5.6X2.4 dXdXdXdXdX",
"dXdXdXdXdXdXdXdXdX6 ;.@.C.V.i.r.i.l.y.h.h.y.y.u.7.7.r.r.#.B Z dXdXdXdXdXdXdXdXdX- P b.S 1 dXdXdXdXdX",
"dXdXdXdXdXdXdXdXdXdXdXdXdX1 = = B B v m a i i v b % % & dXdXdXdXdXdXdXdXdXdXdXdXc @ + 3 dXdXdXdXdXdX"
};
