/* XPM */
static char *result[] = {
/* columns rows colors chars-per-pixel */
"50 50 244 2 ",
"   c #000000",
".  c #020C01",
"X  c #080E03",
"o  c #0B1403",
"O  c #051D00",
"+  c #091702",
"@  c #131A0B",
"#  c #121702",
"$  c #171B14",
"%  c #0D2204",
"&  c #032601",
"*  c #142604",
"=  c #182908",
"-  c #043A00",
";  c #1D3C0D",
":  c #1A3705",
">  c #1C2B11",
",  c #253A08",
"<  c #212B16",
"1  c #263619",
"2  c #3E3E00",
"3  c #313629",
"4  c #2F312A",
"5  c #044A00",
"6  c #0A5400",
"7  c #1D5B00",
"8  c #1A4409",
"9  c #244706",
"0  c #275507",
"q  c #2B4913",
"w  c #2F5512",
"e  c #365619",
"r  c #324807",
"t  c #006400",
"y  c #006C00",
"u  c #007500",
"i  c #007900",
"p  c #137700",
"a  c #186A00",
"s  c #2C6108",
"d  c #396C10",
"f  c #394726",
"g  c #3D5228",
"h  c #4F700E",
"j  c #717F00",
"k  c #475437",
"l  c #587833",
"z  c #4C6F26",
"x  c #596448",
"c  c #5A6454",
"v  c #5F6851",
"b  c #008400",
"n  c #018C00",
"m  c #088D00",
"M  c #019400",
"N  c #019A00",
"B  c #0B9C00",
"V  c #189200",
"C  c #3A960E",
"Z  c #00A300",
"A  c #01AB00",
"S  c #0AAC02",
"D  c #02B500",
"F  c #0CB402",
"G  c #01BC00",
"H  c #0BBA02",
"J  c #1FB40D",
"K  c #15B804",
"L  c #26A908",
"P  c #3AAB00",
"I  c #24B010",
"U  c #4B881A",
"Y  c #4B950D",
"T  c #50B700",
"R  c #59B41C",
"E  c #49A214",
"W  c #58902F",
"Q  c #669734",
"!  c #57B520",
"~  c #51B733",
"^  c #6BB327",
"/  c #75B836",
"(  c #75AC2F",
")  c #74AE1C",
"_  c #01C300",
"`  c #0CC500",
"'  c #0CCB00",
"]  c #01CA00",
"[  c #14CD00",
"{  c #1BCD00",
"}  c #18C604",
"|  c #0BD200",
" . c #12D300",
".. c #1AD500",
"X. c #15D900",
"o. c #1DD900",
"O. c #26C907",
"+. c #38C30E",
"@. c #23D302",
"#. c #23DC00",
"$. c #2CDB01",
"%. c #29D600",
"&. c #33DD01",
"*. c #3AD80A",
"=. c #3CC916",
"-. c #2CD512",
";. c #38D717",
":. c #29C11D",
">. c #2CE300",
",. c #2CEB00",
"<. c #24E600",
"1. c #33E300",
"2. c #3CE400",
"3. c #3CEC00",
"4. c #37E608",
"5. c #3CF400",
"6. c #23F000",
"7. c #5BCB00",
"8. c #4ADA16",
"9. c #4DD80B",
"0. c #65D319",
"q. c #44EE00",
"w. c #4BEF00",
"e. c #45E306",
"r. c #55EE00",
"t. c #5CED04",
"y. c #4DF000",
"u. c #47F200",
"i. c #53F200",
"p. c #5CF503",
"a. c #5EFA00",
"s. c #5DF109",
"d. c #5CE614",
"f. c #4AE71A",
"g. c #68EB0A",
"h. c #67F905",
"j. c #70FC08",
"k. c #68E818",
"l. c #74E917",
"z. c #6EF01A",
"x. c #7AF915",
"c. c #70E40F",
"v. c #50DF22",
"b. c #67CB26",
"n. c #76D630",
"m. c #7AD839",
"M. c #74D02E",
"N. c #5BEB2B",
"B. c #6AE924",
"V. c #7BEB29",
"C. c #77F126",
"Z. c #6F9D42",
"A. c #71AE47",
"S. c #68DA42",
"D. c #6CDC49",
"F. c #848C00",
"G. c #9FAD07",
"H. c #ABAF00",
"J. c #84FA1C",
"K. c #98F21A",
"L. c #88D63B",
"P. c #83D62E",
"I. c #8DFD2A",
"U. c #88F926",
"Y. c #97FD2B",
"T. c #87E832",
"R. c #8DF435",
"E. c #8BFD39",
"W. c #88F936",
"Q. c #94FE34",
"!. c #9CFF33",
"~. c #95F939",
"^. c #87ED20",
"/. c #B6FF2B",
"(. c #A6FF3B",
"). c #ACFF2F",
"_. c #CFD500",
"`. c #D1EC00",
"'. c #FAF900",
"]. c #E7F105",
"[. c #87A456",
"{. c #869072",
"}. c #A1B27E",
"|. c #95B26D",
" X c #8FD64B",
".X c #98F547",
"XX c #93ED50",
"oX c #A4FF44",
"OX c #ACFF44",
"+X c #A4FE4A",
"@X c #ADFF4A",
"#X c #A4F34D",
"$X c #ADFD5A",
"%X c #ACFB54",
"&X c #B4FF58",
"*X c #AAF651",
"=X c #92C361",
"-X c #A3CB75",
";X c #ADDA7B",
":X c #A9CE6E",
">X c #9AEC6B",
",X c #AAFA6A",
"<X c #B4FF64",
"1X c #BDFF6D",
"2X c #BAFF62",
"3X c #ACF875",
"4X c #B9FE74",
"5X c #ACE97B",
"6X c #A2D452",
"7X c #C9FF6E",
"8X c #C6FF77",
"9X c #D3FF7E",
"0X c #A9B191",
"qX c #B8BDAC",
"wX c #B2EA85",
"eX c #B3F08E",
"rX c #BDD5AB",
"tX c #B2C9A3",
"yX c #C7DE99",
"uX c #CDFF83",
"iX c #CDFF8A",
"pX c #D3FF81",
"aX c #D3FF8B",
"sX c #C8FC99",
"dX c #DEFF9C",
"fX c #D9FF97",
"gX c #C5D9AF",
"hX c #D9FDA8",
"jX c #DFF9B4",
"kX c #CFF2BF",
"lX c #E9FFAD",
"zX c #EBFFB5",
"xX c #F3FFBF",
"cX c #DBE5D1",
"vX c #F3FFCD",
"bX c #EDFDD8",
"nX c #F5FFD8",
"mX c #E7FEC5",
"MX c #FAFFE4",
"NX c #FAFFEB",
"BX c #F7FFEA",
"VX c #FFFFF5",
"CX c #FFFFFC",
"ZX c None",
/* pixels */
"ZXZXZXZXZXZXZXZXZXZXZXZXZXZXZXZXZXZXZXZXZXZXZXZXZXZXZXZXZXZXZXZXZXZXZXZXZXZXZXZXZXZXZXZXZXZXZXZXZXZX",
"ZXZXZXZXZXZXZXZXZXZXZXZXZXZXZXZXZXZXZXZXZXZXZXZXZXZXZXZXZXZXZXZXZXZXZXZXZXZXZXZXZXZXZXZXZXZXZXZXZXZX",
"ZXZXZXZXZXZXZXZXZXZXZXZXZXZXZXZXZXZXZXZXZXZXZXZXZXZXZXZX        ZXZXZXZXZXZXZXZXZXZXZXZXZXZXZXZXZXZX",
"ZXZXZXZXZXZXZXZXZXZXZXZXZXZXZXZXZXZXZXZXZXZXZXZXZXZX  ZXZXZXZXZX  ZXZXZXZXZXZXZXZXZXZXZXZXZXZXZXZXZX",
"ZXZXZXZXZXZXZXZXZXZXZXZXZXZXZXZXZXZXZXZXZXZXZXZXZX  ZXZXZXZXZXZXZX  ZXZXZXZXZXZXZXZXZXZXZXZXZXZXZXZX",
"ZXZXZXZXZXZXZXZXZXZXZXZXZXZXZXZXZXZXZXZXZXZXZXZX  ZXZXZXZXZXZXZXZXZX  ZXZXZXZXZXZXZXZXZXZXZXZXZXZXZX",
"ZXZXZXZXZXZXZXZXZXZXZXZXZXZXZXZXZXZXZXZXZXZXZX  ZXZXZXZXZXZXZXZXZXZXZX  ZXZXZXZXZXZXZXZXZXZXZXZXZXZX",
"ZXZXZXZXZXZXZXZXZXZXZXZXZXZXZXZXZXZXZXZXZXZXZX  ZXZXZXZXZXZXZXZXZXZXZX  ZXZXZXZXZXZXZXZXZXZXZXZXZXZX",
"ZXZXZXZXZXZXZXZXZXZXZXZXZXZXZXZXZXZXZXZXZXZX: 9 q ZXZXZXZXZXZXZXZXZXZXZX  ZXZXZXZXZXZXZXZXZXZXZXZXZX",
"ZXZXZXZXZXZXZXZXZXZXZXZXZXZXZXZXZXZXZXZXZX% C U.T.e ZXZXZXZXZXZXZXZXZXZX  ZXZXZXZXZXZXZXZXZXZXZXZXZX",
"ZXZXZXZXZXZXZXZXZXZXZXZXZXZXZXZXZXZXZXZX+ C d.V.R.P.w ZXZXZXZXZXZXZXZXZX  ZXZXZXZXZXZXZXZXZXZXZXZXZX",
"ZXZXZXZXZXZXZXZXZXZXZXZXZXZXZXZXZXZXZXZXU 9.*.k.R.(.Q   ZXZXZXZXZXZXZXZX  ZXZXZXZXZXZXZXZXZXZXZXZXZX",
"ZXZXZXZXZXZXZXZXZXZXZXZXZXZXZXZXZXZXZXz R.8.{ f.T.@X6Xf ZXZXZXZXZXZXZXZXZX  ZXZXZXZXZXZXZXZXZXZXZXZX",
"ZXZXZXZXZXZXZXZXZXZXZXZXZXZXZXZXZXZXz .XV.O.O.*.B.~.8X-X1 ZXZXZXZXZXZXZXZX  ZXZXZXZXZXZXZXZXZXZXZXZX",
"ZXZXZXZXZXZXZXZXZXZXZXZXZXZXZXZX  e L.oXv.{ } @.e.R.7XdX|.$ ZXZXZXZXZXZXZX  ZXZXZXZXZXZXZXZXZXZXZXZX",
"ZXZXZXZXZXZXZXZXZXZXZXZXZXZXZX* U M.!.V.} H F ` %.z.oXaXlX[.ZXZXZXZXZXZXZX  ZXZXZXZXZXZXZXZXZXZXZXZX",
"ZXZXZXZXZXZXZXZXZXZXZXZXZX  U ^ !.Y.C.9.D N A G @.s.I.1XaXfX{.  ZXZXZXZXZX  ZXZXZXZXZXZXZXZXZXZXZXZX",
"ZXZXZXZXZXZXZXZXZXZX    z ^ R.!.I.B.8.F N n N G @.e.C.+X7XfXhX}.x   ZXZXZX  ZXZXZXZXZXZXZXZXZXZXZXZX",
"ZXZXZXZXZXZXZXZXZXX ( /  X(.!.R.b.O.F A n b N G @.*.s.U.$X8XlXxXyX0X4 ZXZX  ZXZXZXZXZXZXZXZXZXZXZXZX",
"ZXZXZXZXZXZXZXO U b.Y.(.U.f.4.O.J Z b u u i A _ o.2.y.h.x.(.&XiXzXnXqX$ ZX  ZXZXZXZXZXZXZXZXZXZXZXZX",
"ZXZXZXZXZXZXq b.V.W.B.d.=.} } F M u y t u u A ] o.q.w.a.j.x.+X7XdXMXBX0X    ZXZXZXZXZXZXZXZXZXZXZXZX",
"ZXZXZXZX  > T.W.E.b.+.F F B m i y t 6 t y b D  .#.q.a.h.j.U.oX%XpXbXBXBX0X  ZXZXZXZXZXZXZXZXZXZXZXZX",
"ZXZXZXX ^ T.Q.n.! R S A A M u y t t t t u N G ..3.a.j.I.Y.!.oXaXxXbXBXBXtX; ZXZXZXZXZXZXZXZXZXZXZXZX",
"ZXZXZXE I.V.0 + r h n n b i y t t t t i m S | +.C.x.I.oXoX2XfXvXVXCXCXCXcXtXx ZXZXZXZXZXZXZXZXZXZXZX",
"ZXZXz Y.U.s h j   O i i u u u u u i i b B ' X.d.I.J.Y.oX&XaXvXVXVXCXCXCXcXgXc ZXZXZXZXZXZXZXZXZXZXZX",
"ZXZXW Q.R & j F.+ O i i u i b b i b M A |  .` 9.l.l.U.&XuXzXVXVXVXCXCXCXcXrXcX4 ZXZXZXZXZXZXZXZXZXZX",
"ZXe +XM.E 8 K.`._., u n n n b b M A D D ..B & * = # U *X9XlXNXVXCXCXCXCXCXrXgX4 ZXZXZXZXZXZXZXZXZXZX",
"ZXe Q.;.D . s d   + y n A N n M G D _ ..7.=   G.].# o [.9XaXMXVXVXVXVXVXbX-XwXf ZXZXZXZXZXZXZXZXZXZX",
"ZXd E.-.D - 0 s   7 A N N G G G _ [ o.>.T X % H.'.2 # l 9XpXvXNXVXVXVXBXjX:X;X5X@ ZXZXZXZXZXZXZXZXZX",
"1 E.n.J G i - O 9 Y D t 5 A D D S <.,.5.T 9 7.`.'._.F.l pXpXzXvXMXNXNXjXuX;X;X5X$ ZXZXZXZXZXZXZXZXZX",
"; E.n.J D b V P P P D u 5 & M N 5 ,.3.5.T .   G.].X   l 7X8XlXlXlXzXhX8X<X8X=X:X@ ZXZXZXZXZXZXZXZXZX",
"; E.n.J Z n N A G G G _ y & 7 p a u.w.i.9.0 X h ) X , P.@X@XpXdXhXfX<X$X%X@X/ L.@ ZXZXZXZXZXZXZXZXZX",
"; E.n.J A n Z D G G G _ _ K 5 6 ,.i.i.r.i.9.7 8 , r ( @X@X@X8XaXfXaX&X+XY.*XL.P.X ZXZXZXZXZXZXZXZXZX",
"8 E.n.J A M A G G G G G G X.6.6.1.r.i.r.r.r.i.K././.).@X@X@X@X&X2X8XiX4XU..X@XW X ZXZXZXZXZXZXZXZXZX",
": .Xm.I A M A G G G G G _ X.<.>.3.r.r.i.r.r.w.x.K.).).@XOXOX+XOX8XvXMXmXXX#X@XA.o ZXZXZXZXZXZXZXZXZX",
"1 ,X>X=.A Z A G D G G G _ X.>.3.u.r.r.r.r.r.r.r.j.Y.!.OXOXOXoX.XaXMXNXbXeX$X$X#X@ ZXZXZXZXZXZXZXZXZX",
"= A.,Xf.H Z A G G G G G _ X.>.q.w.r.i.r.r.r.r.i.h.x.J.J.(.(.+X~.<XbXBXcX>X%X$XQ X ZXZXZXZXZXZXZXZXZX",
"ZXe ,X;.` A A D G G G D _ | <.3.q.w.r.r.r.r.r.i.y.s.h.j.x.J.U.J.j.5XtXS.N.$X%X> ZX  ZXZXZXZXZXZXZXZX",
"ZXk fXXX8.} D D G D G G _ | #.3.q.q.q.r.r.r.i.i.i.i.p.a.a.a.p.p.a.8.:.H b.4X<X1 ZX  ZXZX  ZXZXZXZXZX",
"ZX3 0X4XN.' ` A D D G G _ _ X.1.3.e.q.q.w.q.y.u.y.i.i.y.y.u.u.q.2.@.D O.V.4XZ.ZXZXZXZXf Z.W ZXZXZXZX",
"ZXZXv dXXX;.| _ H G G G D _ ' #.1.u.q.q.q.q.q.q.q.w.w.w.w.e.2.&.{ D } d.~.7Xg ZXZXZX- W 4X3Xl ZXZXZX",
"ZXZXf -XuXD.-.| _ G G G G _ ] X.$.q.q.q.q.u.q.q.q.q.u.w.2.&.&.{ ` } 9.l.(.A.> ZXZXZX5 ~ 3X8XA.  ZXZX",
"ZXZXZXf yXsXwXS.~ v.D G G G G ' o.$.1.1.q.q.q.q.q.2.1.>.%.#.%.@.&.B.Q.Q.M.< ZXZXZXZX5 I N.N.C   ZXZX",
"ZXZXZXZXk jXhX,X=XA.G G _ G G G `  .o.#.1.1.1.&.&.&.%.#.#.$.$.e.d.~.oXL.1 ZXZXZXZXZXO p L V - ZXZXZX",
"ZXZXZXZXZXx hX,X,X>Xv.} G _ G G G _ ` [ { { { ..@.@.@.&.1.e.e.C.I.!.~.q ZXZXZXZXZXZXZXO % O ZXZXZXZX",
"ZXZXZXZXZXZX1 A.3X,XE.C.;.{ ' ' ' _ ' ` [ [ [ { %.&.1.e.t.g.Y.Y.!.z > ZXZXZXZXZXZXZXZXZXZXZXZXZXZXZX",
"ZXZXZXZXZXZXZX> < gXsXsXsXXXXXW.m.R ! R d.d.d.g.g.g.l.J.J.^.oX/ * ZXZXZXZXZXZXZXZXZXZXZXZXZXZXZXZXZX",
"ZXZXZXZXZXZXZXZXZX< $ c hX,X.XXX.XR.R.R.z.z.z.l.c.c.l.^.^.q * = ZXZXZXZXZXZXZXZXZXZXZXZXZXZXZXZXZXZX",
"ZXZXZXZXZXZXZXZXZXZXZXZX$ $ $ # z R.R.R.k.k.k.0.9 + # # # ZXZXZXZXZXZXZXZXZXZXZXZXZXZXZXZXZXZXZXZXZX",
"ZXZXZXZXZXZXZXZXZXZXZXZXZXZXZXZXZX% % % + o + + ZXZXZXZXZXZXZXZXZXZXZXZXZXZXZXZXZXZXZXZXZXZXZXZXZXZX"
};
