/* XPM */
static char *result[] = {
/* columns rows colors chars-per-pixel */
"50 50 240 2 ",
"   c #000100",
".  c #020B01",
"X  c #051303",
"o  c #0A1504",
"O  c #031A04",
"+  c #0A1C04",
"@  c #121C06",
"#  c #131B09",
"$  c #032506",
"%  c #0D2406",
"&  c #0E2B07",
"*  c #042C08",
"=  c #072A08",
"-  c #122506",
";  c #132C07",
":  c #132C09",
">  c #1A2D09",
",  c #182608",
"<  c #04340A",
"1  c #0C3309",
"2  c #07350A",
"3  c #153309",
"4  c #1B340B",
"5  c #143B0B",
"6  c #1C3B0B",
"7  c #163107",
"8  c #1B2B12",
"9  c #1A3312",
"0  c #222C0A",
"q  c #21330B",
"w  c #2A350B",
"e  c #233C0D",
"r  c #2B3C0C",
"t  c #203907",
"y  c #323D0E",
"u  c #253F12",
"i  c #263412",
"p  c #373C11",
"a  c #262A14",
"s  c #04450D",
"d  c #014C0E",
"f  c #09430D",
"g  c #15430C",
"h  c #1C420C",
"j  c #1D4C0E",
"k  c #164A0E",
"l  c #1C530D",
"z  c #045511",
"x  c #025C12",
"c  c #1B5811",
"v  c #0F4D11",
"b  c #23430D",
"n  c #2C440E",
"m  c #234C0E",
"M  c #2C4C0D",
"N  c #34430D",
"B  c #324C0D",
"V  c #3C4B0E",
"C  c #23520F",
"Z  c #28580E",
"A  c #34530E",
"S  c #39570E",
"D  c #224411",
"F  c #2B4611",
"G  c #234C12",
"H  c #2B4C11",
"J  c #234C18",
"K  c #334412",
"L  c #344C12",
"P  c #3A4C12",
"I  c #354518",
"U  c #255411",
"Y  c #2D5312",
"T  c #2D5B12",
"R  c #285919",
"E  c #345313",
"W  c #3B5414",
"Q  c #345C13",
"!  c #3C5C14",
"~  c #3E5A18",
"^  c #335819",
"/  c #026C14",
"(  c #066715",
")  c #196515",
"_  c #047C1A",
"`  c #047517",
"'  c #137718",
"]  c #296514",
"[  c #336214",
"{  c #3B6315",
"}  c #3B6B15",
"|  c #3D6219",
" . c #3C6A18",
".. c #356915",
"X. c #267716",
"o. c #387417",
"O. c #2E610C",
"+. c #044725",
"@. c #155427",
"#. c #0E552D",
"$. c #365D23",
"%. c #2C7722",
"&. c #387823",
"*. c #44550D",
"=. c #47590D",
"-. c #414A17",
";. c #435515",
":. c #425C15",
">. c #4B5917",
",. c #435C19",
"<. c #4B5E19",
"1. c #4B5418",
"2. c #535D1A",
"3. c #555919",
"4. c #515607",
"5. c #446314",
"6. c #4A6413",
"7. c #436A14",
"8. c #4B6C13",
"9. c #43651A",
"0. c #4B631A",
"q. c #446A19",
"w. c #4C6B1C",
"e. c #536513",
"r. c #546C14",
"t. c #54631C",
"y. c #5A641C",
"u. c #536C1C",
"i. c #5B6B1E",
"p. c #5F6C14",
"a. c #4B7314",
"s. c #4C721B",
"d. c #467418",
"f. c #527415",
"g. c #537D16",
"h. c #5C7A15",
"j. c #52741E",
"k. c #5B731E",
"l. c #5B7A1E",
"z. c #587518",
"x. c #666C1C",
"c. c #62751E",
"v. c #647A1C",
"b. c #6B7B1B",
"n. c #677914",
"m. c #7B7D1B",
"M. c #747818",
"N. c #6F6B09",
"B. c #4E6E20",
"V. c #557321",
"C. c #5B7421",
"Z. c #5B7B22",
"A. c #507221",
"S. c #666C21",
"D. c #647422",
"F. c #6C7523",
"G. c #657B22",
"H. c #6C7B25",
"J. c #737624",
"K. c #737C25",
"L. c #7B7D24",
"P. c #767D28",
"I. c #867E14",
"U. c #0A8D1E",
"Y. c #07871B",
"T. c #17851C",
"R. c #09951F",
"E. c #06981E",
"W. c #1E981D",
"Q. c #37851C",
"!. c #2D9418",
"~. c #3E971E",
"^. c #35A91D",
"/. c #169923",
"(. c #0D9621",
"). c #389D26",
"_. c #2E9524",
"`. c #0BA623",
"'. c #12A324",
"]. c #1CAC29",
"[. c #16B529",
"{. c #38A525",
"}. c #22B42D",
"|. c #4B861A",
" X c #56841C",
".X c #5D8217",
"XX c #64851A",
"oX c #658918",
"OX c #7A8419",
"+X c #7B8B1C",
"@X c #788A1C",
"#X c #61911C",
"$X c #74931B",
"%X c #7A971C",
"&X c #6D8224",
"*X c #6F8028",
"=X c #748426",
"-X c #7A8424",
";X c #768329",
":X c #7D8429",
">X c #798A25",
",X c #7A9823",
"<X c #7A8A30",
"1X c #41B92A",
"2X c #53B42C",
"3X c #4DAA2C",
"4X c #6CAB29",
"5X c #4BC530",
"6X c #84841A",
"7X c #82891B",
"8X c #8A8918",
"9X c #97891E",
"0X c #8D931C",
"qX c #86961D",
"wX c #93941D",
"eX c #9E9A1F",
"rX c #99961E",
"tX c #98A61F",
"yX c #8CA11D",
"uX c #A2A31F",
"iX c #81852B",
"pX c #848B2B",
"aX c #8C8C2D",
"sX c #868828",
"dX c #849222",
"fX c #8C9322",
"gX c #8D922D",
"hX c #989627",
"jX c #8B9635",
"kX c #969633",
"lX c #8E8E2E",
"zX c #A59B24",
"xX c #B19F22",
"cX c #9CA620",
"vX c #AAA421",
"bX c #A7A520",
"nX c #B7A924",
"mX c #ADB322",
"MX c #B5B223",
"NX c None",
/* pixels */
"NXNXNXNXNXNXNXNXNXNXNXNXNXNXNXNXNXNXNXNXNXNXNXNXNXNXNXNXNXNXNXNXNXNXNXNXNXNXNXNXNXNXNXNXNXNXNXNXNXNX",
"NXNXNXNXNXNXNXNXNXNXNXNXNXNXNXNXNXNXNXNXNXNXNXNXNXNXNXNXNXNXNXNXNXNXNXNXNXNXNXNXNXNXNXNXNXNXNXNXNXNX",
"NXNXNXNXNXNXNXNXNXNXNXNXNXNXNXNXNXNXNXNXNXNXNXNXNXNXNXNXNXNXNXNXNXNXNXNXNXNXNXNXNXNXNXNXNXNXNXNXNXNX",
"NXNXNXNXNXNX0.G.iXkXlXi.0.<.W NXNXL &.3X4X,X,X@XdX2X3XC 5.oX#X#Xo.Q.).%.G ,.H.iXpXJ.1.;.! t - NXNXNX",
"NXNXNXNXL i.H.B.H.kXsX2.;.>.L NX4 ~ %.).2X2X5X3X3X5X~.Z A h.,XXXr.T R G L F.L.pXJ.3.>.5.H - NX: NXNX",
"NXNXNXNX9.K.K.H.C.gX>Xt.;.;.r NXD &.%.%.).{.{._.{.^.Q.M b e.v.v.5.e 4 G F.iXaXF.y.>.6.! q O NX3 NXNX",
"NXNXNX6 B.<.<.H.D.iXiXt.,.P NX3 G &.&.] %.) X.X.X.X.O.b b B B 6.=.e <.P.lXaXF.t.>.9.Q b : % NX6 6 NX",
"NXNXNX9 B.p W V.c.K.sXC.>.y - 5 Q ,.^ F @.J R R *.=.5.M A e.e.e.x.L.zXzXdXc.2.<.,.H t 4 & + NXNXe NX",
"NXNXNXNXi.I ~ q.u.F.iXc.w.n % k Q u.y.3.t.j.r.8.n.n.a.h.0XxX9XM.I.zXhX>X6.>.6.Q h 3 7 4 7 % NX4 4 NX",
"NXNXNXj u.I ,.9.~ u.L.u.s.! & 6 Q 6.t.t.b.c.6.r.f.8.#XuXMXxX9X8XM.7Xb.u.,.9.Q 6 7 6 b h 5 ; ; e NXNX",
"NXNXNX5 Q ~ ,.9.P C.aXt.u.k.m 5 Y ! <.>.u.0.{ 7.7.oXyXuX0Xm.I.8XOX+Xv.w.5.Y 4 7 m Q E m 5 3 h NXNXNX",
"NXNXNXNX5 Y ~ W ^ H.aXy.u.&Xj.U h m P P :.! Y A f.%XMX7X*.OXwXeX7Xv.:.P F 6 6 h | 5.A b h 6 7 NXNXNX",
"NXNXNXNXNX6 Y E 0.H.iXH.,.H.&Xs.Q h 6 F L H G { #XcXuX*.*.0XeX7X6.L n 6 4 b 6 D w.8.Y 6 h % NXNXNXNX",
"NXNXNXNXNXNXg ..B.&XG.=X9.| =X;Xk.| G 6 u D G .X$XmXOXN 8XwX XQ._./.g D n M 3 L k.w.! M e + NXNXNXNX",
"NXNXNXNXNXg g O.d.H.&X=XK.R { ;XpXG.Q g : 9 { .XyXuXM.m.$X|.T.U.U./ s k A n 7 9.=XD.w.! H 6 NXp y 0 ",
"NXNXNXNXNX5 5 g  .Z.pX<XpXG.T [ *X>Xs.U 5 j a.$XuXuX8XwX XU.R./ ( O O z ) b : ,.-X=Xk.q.Q b NXp 0 NX",
"NXNXNXNXNXNXNXNXG  .=XgXkXjX;XA.9.H.&X..j R a.+XvXzXeXuX$XX./ ( d .   $ d f ; E K.:XH.k.! F r NXNXNX",
"NXNXNXNXNXNXNXNX1 j d.&XpXkXkXpXD.j.=Xl.} [ s.fXrX0XeX4X2XT.O X         $ d & n H.:XiXH.u.W NXNXNXNX",
"NXNXNXNXNXNXNXNX5 g U j.&X<XjXjX<XV. X X|.s.e.8X0X7XrXd.( d .       . . $ s 1 6 t.P.iX:XD.B.F NXNXNX",
"NXNXNXNXNXNXNXNXG Y U [ Z.>X>X<XjXZ.).1X|.|.d.oX@Xn.qX.Xf O         . . . $ < 1 E K.P.aX;XD.,.NXNXNX",
"NXNXNXNXNXNXNX6 T { ~ { q.=XgX;XpX<XQ.1X1X{.!.{ h.r.~.W.z .         . X . O $ 3 k t.K.:XpXiXD.I NXNX",
"NXNXNXNXNXNXNXb Q q.w.u.q.k.pXgXK.;XQ.^.^.!.X.S S S ' ( <           . X o o + & 7 H C.H.aXkXaXB.6 NX",
"NXNXNXNXNXNXNX7 Y q.w.C.C.w.=XkXaXH.B.[ ] l 4 N n t / x .         . . X o + O % & : W u.:XkXhXP.H NX",
"NXNXNXNXNXNXNXNX4 E u.D.H.u.G.iXlXH.K.F.6.;.N t 7 - < O             X X X o % # & % r ,.c.iXkXI.B.6 ",
"NXNXNXNXNXNXNXNXNX4 E j.G.D.u.D.iXF.D.pX>X-X8.7 - o                 O O X # : % 7 : NXE 0.J.lXiXV.D ",
"NXNXNXNXNXNXNXNXNX3 m { l.-XD.w.i.J.i.;X-Xs.l = +                   o + O o 3 : 7 NXNXE ;.i.aXP.q.D ",
"NX! ~ NXNXNXNXNXNXm E Y w.G.pXC.| t.t.0.[ ' ` x 2 X                 X + + o > 7 : & NXH | 0.iXF.~ 6 ",
",.,.I W NXNXNXNXNXj [ E | G.;X:XB.,.t.J z E.E.`.Y.z X                 + O o # - > $ NXE :.i.K.t.F NX",
"~ ,.P NXL NXNXNXNXC  .Q ^ C.D.$.@.#.#.+.x E.`.[.`.E.( $         . O < < < < * + 3 & NXE u.F.i.H : NX",
"NXNXNXNXNXu NXNXNXU q.! F B.D.R +.#.#.^ ) ` U.E.E.E.Y./ d s s x s ( U.` ` Y./ s 1 > L x.F.y.;.4 NXNX",
"NXNXNXNXNXe D e g Q w.! D | $.#.@.W p.8Xo._ R.'.`.(.}.'.]./.(.}.'.` U.'.Y./.]._ d e D.J.y.<.F - NXNX",
"NXNXNXNXNXNXNXD G [ s.9.h R J c @.*.8Xn.X./.[.[.`._ /.}.].U._ /.'._ _ U.z z Y.( 2 ,.J.x.t.;.4 NXNXNX",
"NXNXNXNXNXNXNX3 G [ s.C.U U { 7.A =.N.=.` R.(.Y.( x / ` ( 2 < d z d < = $ $ & 2 6 t.x.1.1.N > NXNXNX",
"NXNXNXNXNXNXNXNXY } w.G.q.U T d.} { 4.4.O.S 6 7 t r > : g 4 o % * $ X @ # @ @ 7 J <.3.1.-.B : NXNXNX",
"NXNXNXNXNXNXNXNXG d.q.H.s.[ U } o.} B *.S 4.6 > 0 V n.V N V 0 0 - @ 0 F ^ F 4 5 E -.-.P K B 7 NXNXNX",
"NXNXNXNXNXNXNXNXh } s.H.C. .C T O.....T T c O.e.m.uXmX3.N S 6.r.N 0 r F ^ e : 5 H K N N N L 4 NXNXNX",
"NXNXNXNXNXNXNXNXNX..j.G.&Xq.T U Z ] ] ] ] c d.qXuXMXkXpX-.I n S ;.y N 0 w > 3 D F r y n P A n 4 NXNX",
"NXNXNXNXNXNXNXNX& Q s.C.&Xd.[ j j U c l ) c f.qXzXxXI.I.r.>.r A r w y w , ; 6 G F r r n E E H b NXNX",
"NXNXNXNXNXNXNXNX& Y s.s.G.l. .G k j G k l O.oX8X9XI.1.-.i w > Y A , w 0 , 4 Y L P y r r e > - NXNXNX",
"NXNXNXNXNXNXNX1 & ! d.q.s.l...C 5 h g g Y  X+X0XI.y.-.a # # - 8 } > , 0 , Q 9.,.-.P F b 6 : O NXNXNX",
"NXNXNXNXNXNXNXg NXY 7.{  .l.[ l 5 3 5 D w.@XqXeX8Xx.S.I 8 8 7 4 7.q , # H B.B.<.;.W F 6 5 & NXNXNXNX",
"NXNXNXNXNXNXNX5 NXb ..[ [ w.[ G 3 : 9 H G.dXfXbX7X+Xc.E u 4 b 6.E , @ 4 A.V.B.0.;.P n 6 : - o NXNXNX",
"NXNXNXNXNXNXNXg 3 NXT O.T 9.[ G 7 % e t.-XdXhXrX$X$X|.Q D e =.A 4 : # Q A.V.B.0.;.L n 6 ; & + NXNXNX",
"NXNXNXNXNXNXNXNXh NXh T T Q T b ; % L x.sXfXrXqXoX.Xa.8.n.f.A b 6 : 9  .V.V.B.,.Q H 6 6 ; ; + NXNXNX",
"NXNXNXNXNXNXNXm 6 NX5 C U H m 6 ; q 2.-XsX0X0XoX.X.X.X.Xh.7.A b n 6 u 9.w.V.w.~ E b t 6 3 3 % NXNXNX",
"NXNXNXNXNXNXNXm 3 NX5 h Y m h 6 r 1.x.-X>X0X$X.Xa.O.S f.h.7.A M E e K k.u.u.~ ^ L e h h 4 7 & NXNXNX",
"NXNXNXNXNXNXNXm h NXNX6 b 6 r W y.x.J.-X+X>XoX|.O.7..XoX6.V 6.r.! r L x.k.u.E Y F 6 6 b 6 : % NXNXNX",
"NXNXNXNXNXNXNXNXNXNXNXNX6 M >.y.F.S.F.XX>XXX|.a.O.h.h.r.e.n.OXh.:.F P k.i.u.E H 6 4 h b 6 ; NXNXNXNX",
"NXNXNXNXNXNXNXNXNXNXNXNXNXNXNXNXNXNXNXNXNXNXNXNXNXNXNXNXNXNXNXNXNXNXNXNXNXNXNXNXNXNXNXNXNXNXNXNXNXNX",
"NXNXNXNXNXNXNXNXNXNXNXNXNXNXNXNXNXNXNXNXNXNXNXNXNXNXNXNXNXNXNXNXNXNXNXNXNXNXNXNXNXNXNXNXNXNXNXNXNXNX"
};
