/* XPM */
static char *result[] = {
/* columns rows colors chars-per-pixel */
"199 70 85 1 ",
"  c #EC271D",
". c #E92F22",
"X c #E73427",
"o c #E93326",
"O c #E73629",
"+ c #E93629",
"@ c #E73A2D",
"# c #E9392D",
"$ c #E73D31",
"% c #EA3D32",
"& c #E64135",
"* c #EA4136",
"= c #E6453A",
"- c #EA453A",
"; c #E6493E",
": c #EA493E",
"> c #E64D42",
", c #EA4D42",
"< c #E65046",
"1 c #EB5146",
"2 c #E7544A",
"3 c #EB544B",
"4 c #E6584F",
"5 c #EB594F",
"6 c #E75C53",
"7 c #EB5C53",
"8 c #EA5F58",
"9 c #E66157",
"0 c #EB6057",
"q c #E7655D",
"w c #EB645B",
"e c #EB685F",
"r c #EC6760",
"t c #E76F67",
"y c #EC6C64",
"u c #EC6F68",
"i c #EC7067",
"p c #E6756C",
"a c #EC736C",
"s c #EE786F",
"d c #ED7770",
"f c #E57C74",
"g c #ED7B74",
"h c #ED7E78",
"j c #F07A73",
"k c #F07D78",
"l c #E7837C",
"z c #ED827C",
"x c #EC887F",
"c c #F0847D",
"v c #EE8781",
"b c #EE8A84",
"n c #EE8F89",
"m c #F08780",
"M c #F08B85",
"N c #F08E89",
"B c #EE928D",
"V c #F1938D",
"C c #ED9691",
"Z c #EE9A95",
"A c #EE9E99",
"S c #F19691",
"D c #F19994",
"F c #F19E99",
"G c #EEA29D",
"H c #F1A29D",
"J c #EFA5A1",
"K c #EDA8A3",
"L c #EFADA9",
"P c #F1A6A2",
"I c #F2A9A5",
"U c #F2AEAA",
"Y c #EFB2AF",
"T c #F2B2AE",
"R c #EFBDB9",
"E c #F3B5B2",
"W c #F2B9B5",
"Q c #F3BDBA",
"! c #F2C2BE",
"~ c #F3C5C2",
"^ c #F6C9C6",
"/ c #F4CCC9",
"( c #F4D1CE",
") c #F5E4E1",
"_ c None",
/* pixels */
"_________FmmMMVcysrysda8ewasuetejs0sjcssdsuaaiykTziaytegjjjeskccckmmjwijcccskkyM~jkdsuijjkDcmzy0rzcr00eey55wyr3730Pryyyyw05wwrrywwyinyiw0e0erw7ew0yywyewiuyuwyyuruyy57uw0juyy5w7bdw77755577786p________",
"______Vy1%*%+%,3o++++%h@Xo++o+oo++++o++,5o++ooo#a1+*#o++++ooo=#+++++oooo+o+oooo3u+oooooooo#o+ooo.o+ooooooooo+oooo+3#oo+o.+oo.oooo+##-++ooooo+o....oo.o..oooooooooo.oo.ooo ooooo.*$.ooooo.ooooo@%e______",
"_____i%oo,7:.o+++*#%o:toooooooooooooooo#%ooo:,o-0@o0-oooo#,oo5*oo+oooooooo+oooooooooooooooooooooo+ooooo+%+ooooooooooooo%3+.ooooo##%+oo#*+ooo+oo:*ooo+.ooooooooo+oooo.+3+oooooooooooooo7*oooooooo+5_____",
"____-oooo-#ooo.%*i3ooOO+ooooo+ooooooooooo::o,,ooooo+ooooo+3o*1o*5ooo*,oooooooooooooooo-%oooooooo#7+ooo#0u.o+ooo+ooooooo+5%#ooooo+++ooo:z#ooo+#1c-.ooo+ooooooooo*#ooo%7c+oooooooooooooo-+oooooooooo=____",
"___1oooo=oo-7oo+o*,oooOoooooooooooooooooo%%oooo:=oooo%1+oooo%-3,#oo+5-oooooooooooooooo,%o#oo#%oo.#.ooo00%.oo.o.+%#oooo+oo+ooooooo@=#o%,:+oooo+7*oooo.*..+oo#o.oooooo*7#.ooo.o.::.o.o+...o..o.oooooo:___",
"__7oo++o+%&%*##%*#%=#sd=%*%#*%**-%#%--%%*%#1y:%1,#%%%7E7%:----:-***-5-%***--*-&%**=*w1>*-7:-551,**-*-:,*:31%-::-u0,:,r0,*::1:1:3w,i713111:13:::5w30e:::5w3:1:::::11:::15:131:-ws573yd755,1571+oooooo7__",
"_zi=oo+o,GbMc_______V___UUHDHI_UEHFH__FP__H__I_____________________________________________________________U____I____________________________________________________________________________c:.oooo+i_",
"_N:+oo=0______________________________________________________________________________________________________________________________________________________________________________________Ew+oooo5_",
"Teoooo3_________________________________________________________________________________________________________________________________________________________________________________________,oooo=U",
"9oooooj_________________________________________________________________________________________________________________________________________________________________________________________7oooo#N",
"7oooo*___________________________________________________________________________________________________________________________________________________________________________________________%ooo+m",
"wooXo:___________________________________________________________________________________________________________________________________________________________________________________________%ooooj",
"eoooo-___________________________________________________________________________________________________________________________________________________________________________________________#oooou",
"7oooo1___________________________________________________________________________________________________________________________________________________________________________________________-ooo+k",
"1oooo1___________________________________________________________________________________________________________________________________________________________________________________________5ooo+j",
"0oooo1___________________________________________________________________________________________________________________________________________________________________________________________*+oo+u",
"wo+5#,_______________________________________________________________________________________________________________________________________________________________IMcMF_______________________:ooooi",
"8.,D+,____________kazMhrtgn____znDuddiig_____msNBbhzs____bhhdddnmM_~_________csddgmdvbbmnZ__________dtuuddr_____iwaisjs___Dteyyuadi___Fwayueya_____a0eyddyS_______j7-*+++%,7M____________________:oooos",
"y.1r.:____________7.#++ooo5____*+#++++o%____u#+%%+++:____:+++:o1hv_AN________%oooooo+%;+o+::yF_____z#ooooo+k____*oo.,,#M__c+oooooo+N__n8+oooo+_____,ooooo+V_____H5.+ooo+ooo.+7V__________________:o+++u",
"u*ooo,____________i%oo+#+o0____#oooo+oo#V___r+7o+,o#z____%ooo+=dGBA%:t_______*oo+:oo+o=$oooo.:D____M#oooo+o7____*oooo++N__kooooooo#m__g:zroooo3____,ooooo#S____m-.+.oooooo:,oo%c_________________1#%+=s",
"u1+#o:____________u$o.,au$3___coooooooo+m___0o+++&o+y___z+oooo:nRBn%++_______,%o#1ooooo$oooooo%____z+oooooo,____1.oooo+c__m+ooooooos___%51oooo*____5ooooo#M____*ooo+oooooo,woo.$z________________:;+#wM",
"3.0y.5____________b1oo73THz___io+o+=#ooog___,ooooooor___woo5#e%3w8::a-_______w7ooooooo++oo+*ooo5___c+o:%ooo+g___1.oooooj__b+ooooooou___$oooooo+____,ooooo+s___woooooooo#+.5roo++1________________=#+o:S",
"3++#o-_____________*o%s,_(C___uo#o1s#oooy___*ooooooou___woo*+%$qy.:dz1g______:ooooo+o+=ooo1eooo=___doo:*oooo7___1ooooo+s__M#oooooo%z__m+oooooo+7___:oo+oo+g___&ooooooo3Nr-Pi+%@+%________________:oooos",
",:+oo*_____________#$k8z__u___3%d$*+oooo7___*oooooooj___7.ooo,+>,XwC:oe______:oooo+$#8z8+X=#ooo#z___,$.ooo+o*___,.ooo++V__i+o+oooo8C__d+ooooooo:___,ooooo#D__F#oooooo+c__1lr%yX.:________________1+oooj",
"0o++o*_____________*iu*dwy,___:*7e7ooooo3__V#oooo,,+k___3o%o%M%$.ow-.#h______-ooo#7:%w__woooooooy__Av*oooo+o#___,ooooo+N__g#oooooo#g__M#ooooooo#___-ooooo#n__n+ooooo+%___37%ooo=>w_______________:@++os",
"y.,yo,_____________,j33#,=%g__j-o3%ooooo5__c+ooo%-%$____,o#o%7-%+X-+o3A______%ooo7We3z__8=1&&oooi__v3*oXooooo7__1ooooo#N__G,+w+oo+os__N$oooooooo7__:ooooo#B__co+o+oo.#___:.oo#:5Bg_______________5#@+oi",
"yo+#o:_____________,o+o%3e7k__g+oooooooo5__jooo,$o+3____-ooo%FTB,%av3>8______%oo.,Yaoy__i%*oXoo=u___+oooooooo:__,ooooo#M__g#+w+ooooi__c++oo+oooo:__,ooooo+b__goooo+oo*___,7-o:naYv_______________>&@o*z",
"yoooo*_____________N*o%##Ugi__=o+ooooooo-__wo+o:+o%i___V#oooo5yE,y%dnu,______%oooo5f&0__joooooo@i__c+ooooo+oo#__:oo+oo+d__i+oo+oooou__k#oooo++oo#__*oooooos__jooo-u#.%___,*+.@aE_________________:,+@1H",
"7.+oo*_____________g+ou:=e,5__#ooo+ooooo1__7o#o%w*o1___c+ooooo$F5w<4JW8u_____:ooooo++u__soXoooXod__M#o+o+oooooy_3.oooo#z__c+ooooooos__s+ooo#jyooo3_,ooooo+z__yooo0_:.%___,o-kw1Mid_______________*&#+&I",
"u0+oo-_____________m#o%+jgo7_u+oooooooo,k__7o%%#:o#0___uoooooo*_!C6tnz3h_____%ooooo.%y__7oXo++@od___#ooooooooo:_1oooooog__s++ooooook___&ooo+srooo*U1ooooo+z__yooo7I*.%___VycjaM0dh_______________&++@&M",
"di+o.3_____________F%ooo*y7a_woooo+oooo-cV_,.-:oo*gs___aoooooo,_WYAndrJ~_____,.oo+oo,dUm*o++oo+&___g++oooo+oooom3ooooo#g___#ooo%1+#j___#oooo++ooo+M,ooooo#n__eoo0yN-.#__________________________V+o:00H",
"y+ooo1_____________V#1=ooOMG_sooooooooo+%M_-ooooo+$d___7oooo%o3_v2Cr.1v4_____gooooo=+$,5o+++@Xo5____%oooooooooow5#oooo#v__V+o#7%%=3j___#oooo#7#ooou3o++ooeD__jo+c1r%+%M__________________________,&aiDD",
"uoooo-______________-1-ooo,j_N%1++oooooooj_-oooo%%+z___5.#=+z55_B-nzuC7%_____:oo@+o##o=3o%u#o%w_____-ooooooo+oo=3*oooo#b__n+o,Aa1+,g__h+o+oo+3+ooo51.35oo:B__c+o%+ooo7___________________________0#&o&a",
"yoooo*______________5r++%..-_Vic+oooooooos_#oooo#++m___3-zTiwd7__bb,,h5%_____r%.++o=w#o+o,TsiF______%ooooooooooooooooo+d__s+o:A_i*bA__j+ooooooo+ooo+o+*oooc__u+oooooo:TDew,3,775wa______________S:2@Owb",
"0oooo-______________3%o%3o+*U3*#+o+7%oooojH#oooooo%____CWFeFuzS__g%oo3,#_____j%oo###&+===e(u-w_____g#oooo+oooooooooooo#z__i+o*z_7+-g__V$oooooooooooo5+o#*+z__joooooo.3_b$Oo.o+>*c7_______________%3#+3F",
"roooo%______________5.oo+#w#H:..oo+c%oooojV+oooooo%____es:o%-N___-ooooook____,ooo%+oo7B*8gu+o.=____V#ooooooooo+oooooo1ns__V%oouTgooj__F%oo+oo##oooo%F5o--oa__uooooooo#_z%Xo*#oo+%:_______________* +=%M",
"0ooo+-______________0oooo+-#D:#r#7*H-oooo0coooo+oo,___z+ooooow___%oooooou____,ooooooo9_z3=#oooo3___M#oooooo+oo+oooooo1xz__N#oo+,k,=g__D#ooo+o,y.o+ooe5oooos__7o+ooooo#__V#o&+ooo.,_______________*o+&#h",
"0o+o.*______________u##o+..+V*+:o==H-oooo1sooooooo1___yooooo.$___=oooooo0____,oooooo@w__9@%$$#o#c__V#oo+oo%j+ooo+oooo+3Z___,=ooo*,uQ___#o+ooo:S+ooo+++ooook__eooo+ooo%_HJ,ooo+ooo:_______________=owdBK",
"yooo+%______________s#m1.+.oc-o.oo:_7oooo,ioo+ooo.7___7oooooo$S__,oooooo,____:ooooooo7__i%$=&%##y___&oo+oo-I*ooooooooooy___jV#oooo1V___%ooooo-P*ooooooooo+c__aooooooo#___kooooooo1_______________w#3*3d",
"joooo*______________m#y,oo++a#oooo1_0oooo#:ooooooor___1oooooo+yiy:oooooo*____3ooooooo7__g%&@%#++y___*ooooo*T,oo++ooo+:0z___,e-u%o+ou__k+ooooo*_7oooo++o+oou__eooooo+o+z__yooooooo,_______________1=@O,z",
"y+ooo*_______________*y#%i#o,*ooo5d_j%=ooo#oooooo+u___-ooooooooooooooooo+c___,oo+oooo0__c++o++ooy___*ooooo*_iooooooo*PFS__uw:sD-ooos__V$ooooo*_y+oo.17-0ooi__d+oooo+o%___kooooo+o:_______________-1$O<b",
"i.+oo*_______________-*y,0+o+7-+#D__z,koo++ooo+oo+M___-o+ooooooooooo+oooou___-ooooXooe__gooooooo7___*ooooo*__wi++oooor3i__DF:#-1ooor___%o+ooo%__*ooo##+%o+c__g+o+oooo%___sooooooo,_______________1v72<b",
"y+oo+%_______________0*y#+o,io5&o5___-5oooo+ooooo#____*oooo+oooooooooo+ooy___*oooo+oo0__iooooooou___*ooooo:__sii7%,%7C=u__Fe%:+%o$-y__V#ooooo%__1ooooooooou__c3oooooo#z__eooo+ooo:_______________,ei=9C",
"y.o+o#_______________s+o:jo*:oooo#___*oooooo+oooo%____#o#:#o+oooooooooooor___*oooooo.w__yooooooor___*ooooo*^_u%7::D373#i__M+,u=$++ou___%o+#oo-__7ooooo*e73c__a1oXoooo+M__yooooooo-_______________%%t@@f",
"y.ooo%_______________F%.yc+%oo+ow,___:oo+#ooooooo%___i+oaW:ooo#++++o+oooo5___%ooo+ooo1__yooooooo5___%ooo+o$__V+ooo+ooo+k__S=wuwysooj___%o-roo*__N#oooo=e5bz__z#o#+ooo#k__yo++oooo*_______________=+%;=y",
"woooo*_______________(3+-*1r37oo*:___1oo1woooo+oo:___eo:_z+oo#czveoooo+oo*___,ooooooo5__j+oooooor___#ooooo-___,ooooooo#u__H%h3+Zroou___,o-#o%-___=oooo+o##u___*o7:ooooe__3o1-o+oo,_______________,++<dh",
"roo+.0________________w.oo+##1&o.5___0oo++ooooo#o7___y#bs-ooo*___a+oooooo%___,ooooooo7__uooooooor___*ooo+oa___5oe5*&o+uj___%w%nW%+#j___*o1*5*-___5oooo++oog___5o+o+ooo#711%*++w+o,_______________557+:d",
"0oooo3Q______________V-.o#-+o5=oo0___a+oow:ooo:D37___3o:giooo*____+o+oooo+j__,ooooooo3__iooooooo7___*oo*geB___guQ_w%oo%y___%5,Ero+*m___*oo+:o*I__uooooooooc___d+oo,1oo+.+g1##+#oo:_______________3=o>BB",
"so:a:*________________g7o:h37oooor____%o$Drooo7g%w___,o+d1ooo*___V++oooooou__,oooo+oo7__d+ooooooy___,+7B~F7____/e,#ooo+a__M#o,V#oo>b___*ooooo*____-ooo+oo+c____g1o##o#k1:i=%w*ooo%_______________=oo#,a",
"sor!3#________________5,o#e3@ooo.y____*oo:%ooo++os___,ooooooo1___D%o+oooooy__:ooooooo5__woooo+ooy___ZyH77e*____z#ooooooe___%o+#%o+oy___=ooooo#D___3oooooo$v_____7ooo=kw:oo7Ieoooo-_______________y&o@oa",
"ro--##________________,+#oe7oooo+s____,oo.o%+o%7oh__H&oooo++o7____*+++oooo1__:++++o+o5__yo+#+++oe___3-Gq37$____g+oo+++ou___=+++*+>#e___-oo#+#:____i+%#++%,B______5*o:5..#,x_5+%##,_______________n5*#Oy",
"j+ooo7________________kVVNzgdiabM_____NcsszBbdnIu____mkgdasszb____sdddautij__gmkdstsiz___udMzuts____nz!JPMV_____MnVVmBN____vbzzzBHC____bddnk_______g_VzgSB_________u1::5z____bZz_Z_______________By>$oe",
"k+w#o:___________________________________________________________________________________________________________________________________________________________________________________________Bd=o=h",
"w+#+o*___________________________________________________________________________________________________________________________________________________________________________________________4%-%5w",
"r+oo+%___________________________________________________________________________________________________________________________________________________________________________________________nr62ry",
"c+o.00___________________________________________________________________________________________________________________________________________________________________________________________qz:4dd",
"j+oo+*___________________________________________________________________________________________________________________________________________________________________________________________tptbuA",
"woooo#___________________________________________________________________________________________________________________________________________________________________________________________A0duv/",
"roooo%___________________________________________________________________________________________________________________________________________________________________________________________t7Iblb",
"woooo%___________________________________________________________________________________________________________________________________________________________________________________________a8EwbC",
"_#ooooe_________________________________________________________________________________________________________________________________________________________________________________________)e8Z4eT",
"_:oooo*V________________________________________________________________________________________________________________________________________________________________________________________Jz7Z6:_",
"_1ooooo3_______________________________________________________________________________________________________________________________________________________________________________________Dg2,h,:_",
"_y+ooooo:DT_______________________________________________________________________________E__I___________________________________________H__SP_______M__H_CDPUF__HDFPDHETFBZ__HSbzbH_____zb_ze*5r@$=,s_",
"__8oooooo#*151,,vw-*-1:-1,-:-1:1,:,1,,313137,315153,15,,1,,,-:,:,1,,,1,,,,,**-,,,**:=%:,-,**,i,,1,af578*:**%*:=**%:*%:--,-,-%--:1%:=--*:=*-:#***-*#-*#**%$###%$%%%%%%$%**$@@==%#@X+=5#e9%+#$#oo-5=ryB__",
"___:ooooooooo#,=eoooo.oooooo:#oooooooo+ooooooo+=ooooo+ooooooooooooooooooooooooo.ooooooooo.ooo,+oo%7#%:ooooooooooooooooo.o..%%oo%wo.oooou#ooooooooooooooooooooooooooooo+7+o+OOOOoXoo$7&saoooooooo.wKl___",
"____:ooooooo%zz#8+ooo,+oooooj5ooooooo+o$*ooooo:M++++o+ooooooooooooooooooooooooooooooo+ooooooooooooo,UP*o+oooooooooooooooo.%,1oo+-oo%*o%u+ooooooooooooooooooooooooooooo+,OOOOoOOoo@O:,X=&+ooooooooz_____",
"_____5@oooood_C#*-ooyz#ooooo-:o++ooooo%nwooooo+7+++%+ooo+ooooooooooooooooo+ooooo+oooooooooooooooo@=gw5#ooooooooooo+,#oooo#%oooo%5%.r,.em+oooooooooooooooo+ooo+oooooooo$Xoooo$Oooo#@=,@ooooooooo.+a_____",
"______a;@oooz__%77oo=e:*:oow,ooo+ooo..@7io:+o-wooo%#oooooooo..oooo.oo.oo.ooo+ooooooo.oooo+ooooooo,,,*o.oooo.oooooo+5oo...5$o%y#.ooo%:*r*o#+ooooooooooooooooo++o+o+oo+o$Xoo++;#++XX@:>=+oo++oo%=7B______",
"________l980zU_0t703eguaayqBue33e505335eu3y71ih51-73,30ay0yr07r0eeeerywweee7yywe00we8yweytdewer78uetgayshsgajizjyaserdsduauijhhusizzJBJudDsayic0wywwwgsyesgugigbghredsrwwyhzUvazhbg_BdVMgMNbvFE________"
};
