/* XPM */
static char *result[] = {
/* columns rows colors chars-per-pixel */
"50 50 211 2 ",
"   c #010101",
".  c #0D0600",
"X  c #0B0B0A",
"o  c #0F0900",
"O  c #160A00",
"+  c #1D0C00",
"@  c #1A1101",
"#  c #141313",
"$  c #1B1B1B",
"%  c #161818",
"&  c #0E1217",
"*  c #2D1E00",
"=  c #231805",
"-  c #331C00",
";  c #201E1E",
":  c #291D15",
">  c #372404",
",  c #24221F",
"<  c #2D241D",
"1  c #362417",
"2  c #3D351C",
"3  c #161F23",
"4  c #232323",
"5  c #2A2525",
"6  c #2C2C2C",
"7  c #28272D",
"8  c #222734",
"9  c #2C3231",
"0  c #323333",
"q  c gray24",
"w  c #333C3D",
"e  c #353127",
"r  c #422300",
"t  c #442D00",
"y  c #4A2B00",
"u  c #512A00",
"i  c #4E3200",
"p  c #523300",
"a  c #5E3502",
"s  c #472719",
"d  c #653B00",
"f  c #6F3D00",
"g  c #422F25",
"h  c #423C36",
"j  c #413E3F",
"k  c #4B372B",
"l  c #754000",
"z  c #7A4400",
"x  c #7B4902",
"c  c #494037",
"v  c #504137",
"b  c #694739",
"n  c #784B33",
"m  c #63492E",
"M  c #19274D",
"N  c #242C46",
"B  c #133375",
"V  c #213C6C",
"C  c #203C74",
"Z  c #3F4040",
"A  c #394C52",
"S  c #29447E",
"D  c #434343",
"F  c #434949",
"G  c #4C4C4C",
"H  c #464757",
"J  c #4F575F",
"K  c #535353",
"L  c #5E5E5E",
"P  c #574F46",
"I  c #645A49",
"U  c #7A5D4F",
"Y  c #766658",
"T  c #6D6457",
"R  c #4A5C60",
"E  c #5D5F61",
"W  c #705E6C",
"Q  c #566C73",
"!  c #4D646B",
"~  c #636364",
"^  c #66686A",
"/  c #6D6D6D",
"(  c #71716D",
")  c #7C7269",
"_  c #7F7764",
"`  c #686B71",
"'  c #6A7171",
"]  c #737372",
"[  c #7D7D7D",
"{  c #787674",
"}  c #7C6C62",
"|  c #844D02",
" . c #8B5203",
".. c #925604",
"X. c #A2630C",
"o. c #A56711",
"O. c #AD6B12",
"+. c #B87419",
"@. c #894C29",
"#. c #894B35",
"$. c #9B6047",
"%. c #8D6F5B",
"&. c #9E6E57",
"*. c #A86444",
"=. c #827B6F",
"-. c #957060",
";. c #817D7D",
":. c #9E806C",
">. c #99897A",
",. c #BD9578",
"<. c #B48B73",
"1. c #D08D65",
"2. c #C19E7F",
"3. c #C5896B",
"4. c #ED9265",
"5. c #EEA378",
"6. c #203D88",
"7. c #20439B",
"8. c #284FA3",
"9. c #3469D9",
"0. c #728E96",
"q. c #7C8F92",
"w. c #74929A",
"e. c #878585",
"r. c #958D88",
"t. c #92908C",
"y. c #939493",
"u. c #9A9898",
"i. c #A49A8B",
"p. c #A69E9C",
"a. c #B59C89",
"s. c #B0AB9E",
"d. c #8E8FAA",
"f. c #9D9EA1",
"g. c #9393B7",
"h. c #86ABB7",
"j. c #96B3B6",
"k. c #AAAAAA",
"l. c #A8A7A3",
"z. c #B3ADA7",
"x. c #ABABB0",
"c. c #B8B5B5",
"v. c #B3B7B1",
"b. c #DCAB8E",
"n. c #DCB599",
"m. c #CFA485",
"M. c #FFAC84",
"N. c #FFB18B",
"B. c #E7BD9E",
"V. c #F2BF9B",
"C. c #E7AF89",
"Z. c #C7BEAE",
"A. c #C1BEBA",
"S. c #CEBBB7",
"D. c #E7BEA4",
"F. c #F7C29B",
"G. c #C5C3BD",
"H. c #DFC1B1",
"J. c #D8C5AC",
"K. c #FAC8A7",
"L. c #FBD0AB",
"P. c #EFCFBA",
"I. c #FFD5B4",
"U. c #F9D7B5",
"Y. c #EED0B0",
"T. c #96BCC7",
"R. c #9EC6D1",
"E. c #ABCFD4",
"W. c #B8CDCC",
"Q. c #AEDEEB",
"!. c #B1E2EF",
"~. c #BFEDF7",
"^. c #C4C3C3",
"/. c #C8C4C3",
"(. c #D4C0C3",
"). c #DAD3C7",
"_. c #C9D9D8",
"`. c #C8D9D6",
"'. c #DCDCDC",
"]. c #D5D5D6",
"[. c #FDDFC5",
"{. c #E0D8C6",
"}. c #FDE2C2",
"|. c #FFEDCE",
" X c #F8E0C8",
".X c #EDE3DB",
"XX c #FFECD3",
"oX c #F5ECDC",
"OX c #FBE8D8",
"+X c #FFF3DC",
"@X c #FFF1D6",
"#X c #E9E1CD",
"$X c #DEFBFE",
"%X c #CCF5FC",
"&X c #E4E4E4",
"*X c #EBEAE5",
"=X c #ECECEC",
"-X c #E9E6E6",
";X c #FDF5E3",
":X c #FFF9E4",
">X c #F3F2EB",
",X c #FFFDED",
"<X c #EAFEFF",
"1X c #E1FFFF",
"2X c #F5F4F3",
"3X c #F9F7F4",
"4X c #FCFBF5",
"5X c #F3FFFF",
"6X c #FEFFFE",
"7X c #F4F1FD",
"8X c None",
/* pixels */
"8X8X8X8X8X8X8X8X8X8X8X8X8X8X8X8X8X8X8X8X8X8X8X8X8X8X8X8X8X8X8X8X8X8X8X8X8X8X8X8X8X8X8X8X8X8X8X8X8X8X",
"8X8X8X8X8X8X8X8X8X8X8X8X8X8X8X8X8X8X8X8X8X8X8X8X8X8X8X8X8X8X8X8X8X8X8X8X8X8X8X8X8X8X8X8X8X8X8X8X8X8X",
"8X8X8X8X8X8X8X8X8X8X8X8X8X8X8X8X8X8X8X8X8X8X8X8X8X8X8X8X8X8X8X8X8X8X8X8X8X8X8X8X8X8X8X8X8X8X8X8X8X8X",
"8X8X8X8X8X8X8X8X8X8X8X8X8X8X8X8X8X8X8X8X8X8X8X8X8X8X8X8X8X8X8X8X8X8X8X8X8X8X8X8X8X8X8X8X8X8X8X8X8X8X",
"8X8X8X8X8X8X8X8X8X8X8X8X8X8X8X8X8X8X8X8X8X8X8X8X8X8X8X8X8X8X8X8X8X8X8X8X8X8X8X8X8X8X8X8X8X8X8X8X8X8X",
"8X8X8X8X8X8X8X8X8X8X8X8X8X8X8X8X8X8X8X          8X8X        8X8X8X8X8X8X8X8X8X8X8X8X8X8X8X8X8X8X8X8X",
"8X8X8X8X8X8X8X8X8X8X8X8X8X8X8X8X8X    X X             4 q G G X 8X8X8X8X8X8X8X8X8X8X8X8X8X8X8X8X8X8X",
"8X8X8X8X8X8X8X8X8X8X8X8X8X8X8X  4 K K w $ %       X   # q { y.L $ 8X8X8X8X8X8X8X8X8X8X8X8X8X8X8X8X8X",
"8X8X8X8X8X8X8X8X8X8X8X8X8X8X    D ~ / D G K $ 9 G 9       j ^ G K   8X8X8X8X8X8X8X8X8X8X8X8X8X8X8X8X",
"8X8X8X8X8X8X8X8X8X8X8X8X8X8X    $ 7 ; X 6 E ^ K ;   $ p.{ # X % % # 8X8X8X8X8X8X8X8X8X8X8X8X8X8X8X8X",
"8X8X8X8X8X8X8X8X8X8X8X8X8X              # D G . # # c.6X4Xc.;         8X8X8X8X8X8X8X8X8X8X8X8X8X8X8X",
"8X8X8X8X8X8X8X8X8X8X8X8X8X                %   5 e.;.6X6X6X6XA.; q #     8X8X8X8X8X8X8X8X8X8X8X8X8X8X",
"8X8X8X8X8X8X8X8X8X8X8X8X8X                  5 /.{ /.6X6X6X6X6Xu.6 /     8X8X8X8X8X8X8X8X8X8X8X8X8X8X",
"8X8X8X8X8X8X8X8X8X8X8X8X8X  .               e.6Xf.-X6X6X6X6X6X-X~ u.    8X8X8X8X8X8X8X8X8X8X8X8X8X8X",
"8X8X8X8X8X8X8X8X8X8X8X8X8X  $ w 9 5   P # 5 &X6X2X6X6X6X6X6X6X6X/.=XD   8X8X8X8X8X8X8X8X8X8X8X8X8X8X",
"8X8X8X8X8X8X8X8X8X8X8X8X8X8X$ K L / ) G.j p.3X6X6X6X6X6X6X6X6X6X2X6Xk.  8X8X8X8X8X8X8X8X8X8X8X8X8X8X",
"8X8X8X8X8X8X8X8X8X8X8X8X8X8X4 / [ u.=., X $ E l.'.6X6X6X6X6X&Xy.0 { k.8X8X8X8X8X8X8X8X8X8X8X8X8X8X8X",
"8X8X8X8X8X8X8X8X8X8X8X8X8X8X; ] e.c.T o         4 ( *X6X6XG.6     v i.8X8X8X8X8X8X8X8X8X8X8X8X8X8X8X",
"8X8X8X8X8X8X8X8X8X8X8X8X8X] t.) a.P.J.e     0 j     ) :X@Xk X K 7 -.>.G 8X8X8X8X8X8X8X8X8X8X8X8X8X8X",
"8X8X8X8X8X8X8X8X8X8X8X8XF .XB.r. XI.:.H g.H ~ k.W #.m.|.K.W 8 ( d.(.) ~ 8X8X8X8X8X8X8X8X8X8X8X8X8X8X",
"8X8X8X8X8X8X8X8X8X8X8X8XG *X$.b oX|.}.7X7XE 3 0 t.N.I.|.U.S.&   k.k.z./ 8X8X8X8X8X8X8X8X8X8X8X8X8X8X",
"8X8X8X8X8X8X8X8X8X8X8X8X8XG.OXa.G.|.XX6X6X] R 8 z.|.+X:X:X).F 9 G.y.k.G 8X8X8X8X8X8X8X8X8X8X8X8X8X8X",
"8X8X8X8X8X8X8X8X8X8X8X8X8XU Y.OXY.I.|.,X6XW./ u.3X6X6X6X6X>Xu.y.].e.y.8X8X8X8X8X8X8X8X8X8X8X8X8X8X8X",
"8X8X8X8X8X8X8X8X8X8X8X8X8X8Xs *.$.<.V.}.>.] [ -X6X6X6X6X6X&Xq.k.'.6 8X8X8X8X8X8X8X8X8X8X8X8X8X8X8X8X",
"8X8X8X8X8X8X8X8X8X8X8X8X8X8X8X8X8X8XU b.U.}.oX4X6X6X4X&X6X6X>X>Xu.8X8X8X8X8X8X8X8X8X8X8X8X8X8X8X8X8X",
"8X8X8X8X8X8X8X8X8X8X8X8X8X8X8X8X8X8X8X< %.b.L.U.|.:X#X>.oX;XJ.{ 8X8X8X8X8X8X8X8X8X8X8X8X8X8X8X8X8X8X",
"8X8X8X8X8X8X8X8X8X8X8X8X8X8X8X8X8X8X8X8X8X: c } ,.,.2.a.,.Y 8X8X8X8X8X8X8X8X8X8X8X8X8X8X8X8X8X8X8X8X",
"8X8X8X8X8X8X8X8X8X8X8X8X8X8X8X8X8X8X8X8X3 Q h.R.0.0.w O 8X8X8X8X8X8X8X8X8X8X8X8X8X8X8X8X8X8X8X8X8X8X",
"8X8X8X8X8X8X8X8X8X8X8X8X8X8X8X8X8X8X8XA R.Q.%X1X<X<Xj.' 8X8X8X8X8X8X8X8X8X8X8X8X8X8X8X8X8X8X8X8X8X8X",
"8X8X8X8X8X8X8X8X8X8X8X8X8X8X8X8X8X8X8Xw.j.T.1X5X6X6X/.{ $ 8X8X8X8X8X8X8X8X8X8X8X8X8X8X8X8X8X8X8X8X8X",
"8X8X8X8X8X8X8X8X8X8X8X8X8X8X8X8X8X8Xn q.! Q.<X6X6X6X6X/   8X8X8X8X8X8X8X8X8X8X8X8X8X8X8X8X8X8X8X8X8X",
"8X8X8X8X8X8X8X8X8X8X8X8X8X8X8X8X8Xs b.z.R !.<X6X6X6X5Xl.X 8X8X8X8X8X8X8X8X8X8X8X8X8X8X8X8X8X8X8X8X8X",
"8X8X8X8X8X8X8X8X8X8X8X8X8X8X8X8X8Xb XXl.h.~.$X5X5X<X5X=Xh 8X8X8X8X8X8X8X8X8X8X8X8X8X8X8X8X8X8X8X8X8X",
"8X8X8X8X8X8X8X8X8X8X8X8X8X8X8X8X8X<.+X>.^ h.E.W.`._.`.W.Y s.8X8X8X8X8X8X8X8X8X8X8X8X8X8X8X8X8X8X8X8X",
"8X8X8X8X8X8X8X8X8X8X8X8X8X8Xo - > B.,X>X*X^ M S S M V C E 6Xc.8X8X8X8X8X8X8X8X8X8X8X8X8X8X8X8X8X8X8X",
"8X8X8X8X8X8X8X8X8X8X8X8X8X8X. * @.K.+X,X4X^ B 8.6.7.9.9.` ,X2XF 8X8X8X8X8X8X8X8X8X8X8X8X8X8X8X8X8X8X",
"8X8X8X8X8X8X8X8X8X8X8X8X8X8X8X8X@.M.}.XXU.m > i y 8 N N < I I = 8X8X8X8X8X8X8X8X8X8X8X8X8X8X8X8X8X8X",
"8X8X8X8X8X8X8X8X8X8X8X8X8X8X8X8X8X*.5.V.<.@ t l f f l ..| x | | a r - 8X8X8X8X8X8X8X8X8X8X8X8X8X8X8X",
"8X8X8X8X8X8X8X8X8X8X8X8X8X8X8X8X8X8Xs k 5 1 P > - p p | ..| X.X.o.+.o.d + 8X8X8X8X8X8X8X8X8X8X8X8X8X",
"8X8X8X8X8X8X8X8X8X8X8X8X8X8X8X8X8X8X8X8X8X,.:XG . 1 2 > p d l l  .o.+.O.x O 8X8X8X8X8X8X8X8X8X8X8X8X",
"8X8X8X8X8X8X8X8X8X8X8X8X8X8X8X8X8X8X8X8Xb K./.0 n Y.G.  o = t p d |  . .z + 8X8X8X8X8X8X8X8X8X8X8X8X",
"8X8X8X8X8X8X8X8X8X8X8X8X8X8X8X8X8X8X8X8X3.+Xu.8X*.XX'.G 8X8X  O * > t t > . 8X8X8X8X8X8X8X8X8X8X8X8X",
"8X8X8X8X8X8X8X8X8X8X8X8X8X8X8X8X8X8X8Xn F.OX( D &.U.*X~ G K 8X8X8X8X. o 8X8X8X8X8X8X8X8X8X8X8X8X8X8X",
"8X8X8X8X8X8X8X8X8X8X8X8X8X8X8X8X8X8X8X#.4.C.n.).=.1.D.H.).&Xe.8X8X8X8X8X8X8X8X8X8X8X8X8X8X8X8X8X8X8X",
"8X8X8X8X8X8X8X8X8X8X8X8X8X8X8X8X8X8X8X8Xs s g h 4 1 s g h D 8X8X8X8X8X8X8X8X8X8X8X8X8X8X8X8X8X8X8X8X",
"8X8X8X8X8X8X8X8X8X8X8X8X8X8X8X8X8X8X8X8X8X8X8X8X8X8X8X8X8X8X8X8X8X8X8X8X8X8X8X8X8X8X8X8X8X8X8X8X8X8X",
"8X8X8X8X8X8X8X8X8X8X8X8X8X8X8X8X8X8X8X8X8X8X8X8X8X8X8X8X8X8X8X8X8X8X8X8X8X8X8X8X8X8X8X8X8X8X8X8X8X8X",
"8X8X8X8X8X8X8X8X8X8X8X8X8X8X8X8X8X8X8X8X8X8X8X8X8X8X8X8X8X8X8X8X8X8X8X8X8X8X8X8X8X8X8X8X8X8X8X8X8X8X",
"8X8X8X8X8X8X8X8X8X8X8X8X8X8X8X8X8X8X8X8X8X8X8X8X8X8X8X8X8X8X8X8X8X8X8X8X8X8X8X8X8X8X8X8X8X8X8X8X8X8X",
"8X8X8X8X8X8X8X8X8X8X8X8X8X8X8X8X8X8X8X8X8X8X8X8X8X8X8X8X8X8X8X8X8X8X8X8X8X8X8X8X8X8X8X8X8X8X8X8X8X8X"
};
