/* XPM */
static char *result[] = {
/* columns rows colors chars-per-pixel */
"50 50 69 1 ",
"  c #9FBAE2",
". c #9DB9FF",
"X c #A6A3FF",
"o c #A9A3FF",
"O c #A7ABFF",
"+ c #A5B4FF",
"@ c #ABB3FF",
"# c #A1B9FF",
"$ c #ABBAFF",
"% c #BAB6FF",
"& c #B3BBFE",
"* c #B8B9FF",
"= c #AAC6E6",
"- c #AAC9EA",
"; c #B4CFEC",
": c #B8CEF7",
"> c #B3C4FE",
", c #BAC4FD",
"< c #B3CAF9",
"1 c #BBCBFC",
"2 c #B6D0F9",
"3 c #BED3FC",
"4 c #BCDCFB",
"5 c #C0D7EE",
"6 c #C7DCEF",
"7 c #CCDFEF",
"8 c #C7C7FF",
"9 c #C9C6FF",
"0 c #C3CDFD",
"q c #C8CFFF",
"w c #C6DCF6",
"e c #CADDF5",
"r c #C4D3FD",
"t c #CAD4FD",
"y c #C3DBFC",
"u c #CDDBFB",
"i c #D5D3FF",
"p c #D3DDFD",
"a c #DCDEFE",
"s c #E1DDFF",
"d c #CFE1F3",
"f c #C5E2FD",
"g c #CCE2FC",
"h c #C7E9FD",
"j c #D2E4F3",
"k c #D5EAF6",
"l c #D9EAF6",
"z c #D4E4FB",
"x c #DCE5FD",
"c c #D5EAFB",
"v c #DDEBFC",
"b c #D4F2FA",
"n c #DDF1FA",
"m c #E2E6FD",
"M c #E9E6FF",
"N c #E4ECFC",
"B c #EAEDFF",
"V c #F2EFFF",
"C c #E6F6F7",
"Z c #ECF6F7",
"A c #E6F9F7",
"S c #E4F3FA",
"D c #ECF3FC",
"F c #EEF9FD",
"G c #F2F4FF",
"H c #F8F5FF",
"J c #F4F9FF",
"K c #FDFDFF",
"L c None",
/* pixels */
"LLLLLLLLLLLLLLLLLLLLLLLLLLLLLLLLLLLLLLLLLLLLLLLLLL",
"LLLLLLLLLLLLLLLLLLLLLLLLLLLLLLLLLLLLLLLLLLLLLLLLLL",
"LLLLLLLLLLLLLLLLLLLLLLLLLLLLLLLLLLLLLLLLLLLLLLLLLL",
"LLLLLLLLLLLLLLLLLLLLLLLLLLLLLLLLLLLLLLLLLLLLLLLLLL",
"LLLLLLLLLLLLLLLLLLLLLLLLLLLLLLLLLLLLLLLLLLLLLLLLLL",
"LLLLLLLLLLLLLLLLLLLLLLLLLLLLLLLLLLLLLLLLLLLLLLLLLL",
"LLLLLLLLLLLLLLLLLLLLLLLLLLLLLLLLLLLLLLLLLLLLLLLLLL",
"LLLLLLLLLLLLLLLLLLLLLLLLLLLLLLLLLLLLLLLLLLLLLLLLLL",
"LLLLLLLLLLLLLLLLLLLLLLLLLLLLLLLLLLLLLLLLLLLLLLLLLL",
"LLLLLLLLLLLLLLLLLLLLLLLLLLLLLLLLLLLLLLLLLLLLLLLLLL",
"LLLLLLLLLLLLLLLLLLLLLLLLLLLLLLLLLLLLLLLLLLLLLLLLLL",
"LLLLLLLLLLLLLLLLLLLLLLLLLLLLLLLLLLLLLLLLLLLLLLLLLL",
"LLLLLLLLLLLLLLLLLLLLLLLLLLLLLLLLLLLLLLLLLLLLLLLLLL",
"LLLLLLLLLLLLLLLLLLLLLLLLLLLLLLLLLLLLLLLLLLLLLLLLLL",
"LLLLLLLLLLLLLLmLLLLLLLLLLLLLLLLLLLLLLLLLLLLLLLLLLL",
"LLLLLLLLLLLLLLLLLLLLLLLLLLLLLLLLLLLLLLLLLLLLLLLLLL",
"LLLLLLLLLLLLLtLLBLLLLLLLLLLLLLLLLLLLLLLLLLLLLLLLLL",
"LLLLLLLLLLLLLrpLBGLJLLLLLLLLLLLLLLLLLLLLLLLLLLLLLL",
"LLLLLLLLLLL.>rzxBGJKLKKLLLLLLLLLLLLLLLLLLLLLLLLLLL",
"LLLLLLLLLLL.>rpxSDFKKKLLLKLLLLLLLLLLLLLLLLLLLLLLLL",
"LLLLLLLLLLL.>rgvBDJJKKKKLLLLLLLLLLLLLLLLLLLLLLLLLL",
"LLLLLLLLLLL.>rpxBDJJKKKKKLLLLLLLLLLLLLLLLLLLLLLLLL",
"LLLLLLLLLLL.>3zxBGJKKKKKKKKLLLLLLLLLLLLLLLLLLLLLLL",
"LLLLLLLLLLL.>3pvNDJKKKKKKKKLLLLLLLLLLLLLLLLLLLLLLL",
"LLLLLLLLLLL#>rpxBGFKKKKKKKKKKLLLLLLLLLLLLLLLLLLLLL",
"LLLLLLLLLLL#>rpxBDJJKKKKKKKJHGVBLLLLLLLLLLLLLLLLLL",
"LLLLLLLLLLL+>ruxBDJKKKKKKKKKHGGMaiL%LLLLLLLLLLLLLL",
"LLLLLLLLLLL+>rgxBDJKKKKKKKKKHHVBsi9%LLLLLLLLLLLLLL",
"LLLLLLLLLLL+>rpxBDJHKKKKKKKKHHVMsi9%oLLLLLLLLLLLLL",
"LLLLLLLLLLL+>rpmBDJKKKKKKKKKKGVBsi9%oLLLLLLLLLLLLL",
"LLLLLLLLLLL+,rpxBDJJKKKKKKKHHHVMsi9%oLLLLLLLLLLLLL",
"LLLLLLLLLLL@>qpxBDGKKKKKKKKKHHVMsi9*oLLLLLLLLLLLLL",
"LLLLLLLLLLL@,qpxBDDKKKKKKKKKKGVMsi8*OLLLLLLLLLLLLL",
"LLLLLLLLLLL@,qpxBGJHKKKKKKKKHGBMai8*OLLLLLLLLLLLLL",
"LLLLLLLLLLL@>qaxBDGJHHKKKKKHHGVMxi8*OLLLLLLLLLLLLL",
"LLLLLLLLLLL@*qpxNDDGJKJJHKKJGGVMsiq&+LLLLLLLLLLLLL",
"LLLLLLLLLLO@,tpxmBDDGGGJJJHGGDBMatq>+LLLLLLLLLLLLL",
"LLLLLLLLLL@,1tuxmmBDDDDGJJGGGBBmat11><LLLLLLLLLLLL",
"LLLLLLLLLL&,rttzxvmCDDSDFDBBBMNaptrr1<LLLLLLLLLLLL",
"LLLLLLLLw3:,ttuupxxmBBmDDDNNNNxpuuur:yyLLLLLLLLLLL",
"LLLLLLtt:wy1tpuuaxBmmBmmZmmmmmpppzuyyf4LLLLLLLLLLL",
"LLLLLL,u0ygerupp7ulxmmmxmmNja7azzzzgg44rLLLLLLLLLL",
"LLLLLL3rzrgzjuxazzkNmmSpmNlaajlxvvzlhfffLLLLLLLLLL",
"LLLLLLyrgzgccllmxNxvCNSklCmmNmmSNvnbhkcgLLLLLLLLLL",
"LLLLLLgggcvxlnvNNBSDZDSZZDBDBNSNCCnbcvcLLg4LLLLLLL",
"LLLLLLLgzcvSSSSFDZDFFJGJGJFZDDZZZAnSSceggLLLLLLLLL",
"LLLLLLLLwkkvSSSAZDFFFFFFFJJDZZGZZACCkddwLLLLLLLLLL",
"LLLLLLLLL -;5wddjkddjkkllkkkjjjj777;;= LLLLLLLLLLL",
"LLLLLLLLLLLLLLLLLLLLLLLL-LLLLLLLLLLLLLLLLLLLLLLLLL",
"LLLLLLLLLLLLLLLLLLLLLLLLLLLLLLLLLLLLLLLLLLLLLLLLLL"
};
