/* XPM */
static char *result[] = {
/* columns rows colors chars-per-pixel */
"50 50 43 1 ",
"  c #390004",
". c #35000A",
"X c #3C000E",
"o c #350010",
"O c #3C0010",
"+ c #4D000E",
"@ c #52000E",
"# c #430010",
"$ c #4B0010",
"% c #540010",
"& c #5B0011",
"* c #61000F",
"= c #69000F",
"- c #70000F",
"; c #640011",
": c #6B0012",
"> c #680018",
", c #730013",
"< c #7B0015",
"1 c #750018",
"2 c #7D0019",
"3 c #830016",
"4 c #890016",
"5 c #83001A",
"6 c #8C001B",
"7 c #920016",
"8 c #990015",
"9 c #94001C",
"0 c #9B001D",
"q c #A4001D",
"w c #AA001E",
"e c #B1001F",
"r c #840021",
"t c #8B0021",
"y c #940021",
"u c #9A0020",
"i c #A40021",
"p c #AB0021",
"a c #B30021",
"s c #BC0022",
"d c #C20022",
"f c #CD0023",
"g c None",
/* pixels */
"gggggggggggggggggggggggggggggggggggggggggggggggggg",
"gggggggggggggggggggggggggggggggggggggggggggggggggg",
"gggggggggggggggggggggggggggggggggggggggggggggggggg",
"gggggggggggggggggggggggggggggggggggggggggggggggggg",
"gggggggggggggggggggggggggggggggggggggggggggggggggg",
"gggggggggggggggggggggggggggggggggggggggggggggggggg",
"gggggggggggggggggggggggggggggggggggggggggggggggggg",
"gggggggggggggggggggggggggggggggggggggggggggggggggg",
"gggggggggggggggggggggggggggggggggggggggggggggggggg",
"gggggggggggggggggggggggggggggggggggggggggggggggggg",
"gggggggggggggggggggggggggggggggggggggggggggggggggg",
"gggggggggggggggggggggggggggggggggggggggggggggggggg",
"gggggggggggggggggggggggggggggggggggggggggggggggggg",
"gggggggggggggggggggggggggggggggggggggggggggggggggg",
"gggggggggggggggggggggggggggggggggggggggggggggggggg",
"gggggggggggggggggggggggggggggggggggggggggggggggggg",
"gggggggggggggggggggggggggggggggggggggggggggggggggg",
"gggggggggggggggggggggggggggggggggggggggggggggggggg",
"gggggggggggggggggggggggggggggggggggggggggggggggggg",
"ggggggggggggggggg7wggggggggggggggggggggggggggggggg",
"gggggggggggggggsswppgg0,6ggggggggggggggggggggggggg",
"ggggggggggggg8sssspppgu64ggggggggggggggggggggggggg",
"gggggggggggggwsssapiyuuggy7ggggggggggggggggggggggg",
"gggggggggggggsassp63utttgiq1gggggggggggggggggggggg",
"gggggggggggggsssapy664532332gggggggggggggggggggggg",
"gggggggggggggspi00u63<:=,,1ggggggggggggggggggggggg",
"gggggggggggggd913194,;;*==:ggggggggggggggggggggggg",
"gggggggggggg3s6:q5:,:;*;&&*,<:30ggg0gggggggggggggg",
"gggggggggggg,wa0i6:<4*&%@&*:,:<;6g1:gggggggggggggg",
"gggggggggggg0aapu63<<&@%%@&;:,310p;1gggggggggggggg",
"gggggggggggggu50062,,%%%$$$&<46yuq6wgggggggggggggg",
"ggggggggggggg5&0443,;$#%@#+@,8<16iasgggggggggggggg",
"gggggggggggg6w3y<5,2;%$&&$#%*::<009igggggggggggggg",
"gggggggggggg6a76,2;:;;&y9%#:=*-,<99agggggggggggggg",
"gggggggggggg#60261&:;;*4t&$%@*:,25ps6ggggggggggggg",
"gggggggggggg$&&1<:&:&@,q1%%$&11;1:wa:ggggggggggggg",
"gggggggggggga<%&,;;:&%&>;%$$&,,:165<,ggggggggggggg",
"ggggggggggggp06:;;;;;:&#&&@&&1:1451,6ggggggggggggg",
"ggggggggggg&:5u0:;;;::$%>&%>=;:31=<0sggggggggggggg",
"ggggggggggs11150::;;&$$:;%$$*,,611,3q9<ggggggggggg",
"ggggggggffdq4,59,*=:%@O&&&$#=3<,,167053ggggggggggg",
"ggggggggffs8,0y21:;;&%O%;&#%&*<,1t6<0t:0gggggggggg",
"gggggggggfs45uut3=;&%#O%&&&+&*=,<tuq76,ggggggggggg",
"ggggggggffd0upty2,*@%Oo$&%%+@*=-5yyapu7ggggggggggg",
"ggggggggffspppyyr:;&$O.#@@&+#%;-30yiaiadfggggggggg",
"gggggggggfdsspiyt,;%#X. X#$X+%;<48qpssadgggggggggg",
"gggggggggggssaiut1:@$oX+%#oO#&*<60passgggggggggggg",
"ggggggggggggggggt<*&$OO#$OoO+&=16ggggggggggggggggg",
"gggggggggggggggggggggggggggggggggggggggggggggggggg",
"gggggggggggggggggggggggggggggggggggggggggggggggggg"
};
