/* XPM */
static char *result[] = {
/* columns rows colors chars-per-pixel */
"50 50 87 1 ",
"  c #060401",
". c #0B0602",
"X c #0E0904",
"o c #130600",
"O c #180701",
"+ c #130B05",
"@ c #1B0C04",
"# c #160D08",
"$ c #190F08",
"% c #1C1007",
"& c #1D1209",
"* c #220D00",
"= c #251002",
"- c #291203",
"; c #23150B",
": c #28170C",
"> c #26180C",
", c #2B1B0D",
"< c #321E0E",
"1 c #2E1D10",
"2 c #311F10",
"3 c #2D200F",
"4 c #33210E",
"5 c #3A240F",
"6 c #352211",
"7 c #3B2513",
"8 c #3E2915",
"9 c #412716",
"0 c #422C16",
"q c #482F16",
"w c #442D19",
"e c #492F1A",
"r c #473017",
"t c #4A3017",
"y c #47301A",
"u c #4C331B",
"i c #4F381D",
"p c #51361D",
"a c #54391E",
"s c #593B1F",
"d c #503520",
"f c #543A20",
"g c #593C21",
"h c #654222",
"j c #6A4524",
"k c #604927",
"l c #6D4925",
"z c #6E4D29",
"x c #714521",
"c c #734B26",
"v c #734D2A",
"b c #794F2B",
"n c #76512C",
"m c #7B522C",
"M c #7D5631",
"N c #745C33",
"B c #82572D",
"V c #86592F",
"C c #8C5D2E",
"Z c #975D2E",
"A c #845C32",
"S c #895D31",
"D c #945E30",
"F c #876030",
"G c #8D6334",
"H c #816738",
"J c #8F6838",
"K c #946233",
"L c #9B6535",
"P c #9C6837",
"I c #936F3E",
"U c #9C6C39",
"Y c #A26736",
"T c #A36936",
"R c #A26D3B",
"E c #A5703D",
"W c #AA723F",
"Q c #987742",
"! c #9A7B45",
"~ c #AC7642",
"^ c #A47B46",
"/ c #B07742",
"( c #AB864D",
") c #B18147",
"_ c #B58449",
"` c #B88D4E",
"' c None",
/* pixels */
"''''''''''''''''''''''''''''''''''''''''''''''''''",
"apyu!UKFVSAmjcvHQJGFBmcbl'''''''ykN!(GSBbbcbltpi''",
"nnzz`YLLYRRUURE^)LKLLRRRRFghjhjjllzQ_SSDKKKLFvvcn'",
"Mmnz_TTRW~QREWE^/ZZLRR~R/KhvvvnMMnbG~DDLPREESzvmM'",
"utttnxjvcllzcmbAVxxcbbbBCxtapp0009wcBcbmSGSShttup'",
"66864<4<&OoOOoOOOOOoooO-<44464@O@O$;=:<45774,6800'",
"w0pt7644=OOOOooo..o.oo.-<550qq:46676,,55657668psg'",
"w0aauttt,OOOOOOooo.oo.o*0tpapq<ppptp7<0qpuptwaaag'",
"e9appppp<OO*O*OOOoo.@:<-qasapr<pappp06paapfutaasg'",
"e8aapapp<*O*O*O*OOO:7ts5qaaaar<upfpp07apaaat0assg'",
"q5aapppp<****OO*@@1wigs7qasaar<uafpp07aaaaat0sasg'",
"t5appupu2*******@@2eafg7qasaat,iaadpq5aaaaat0aasg'",
"e7appppp<******O@@2uggg0qaggaq<ipfpp07gfaapt0aaag'",
"t7ppppfp<*-****O*67tfaa7qaaapq<ppfpp07ffasft7fpag'",
"e7ppiupi<--*****1e8widf7wpppar:ppdia07ppadiw8idfg'",
"06iuuuut<---***O1e8wiff70pipp0,uidup87pifipw8iiif'",
"96uudydd,7<--**@,w8wipp7wpduu91iupip86pudiu87dddf'",
"82uwdwyw,07*-**@,w9wtuu69iydd8>uwiue72uuuiy86duup'",
"86uwyyww,80-*:*@,w0wtue29uwui81wwuwy62etwtw82dyup'",
"7,uwwyyw:800<92$19w0wue28wwy07>0wwww62wewyw77uyyt'",
"7,r8wwww,7908w7218w8www26w0yy7>8ww8931wwwr876uwwt'",
"6,8r88w8:7078978:6w888917w8ww7>8898831888ww6688ww'",
"6>888798:2888888:6988881408w06>88788<:80888618889'",
"4>888787:2877878;6877881477004>77677,:88888618788'",
"1;777787;6676866;276777>67709<>76666::777776,8788'",
",&477622=,666266&126266>277774;76667,>777672,8667'",
",&467672&,6<22,6&:<67<1>,6786<&46163:;66766117777'",
",&34<222&>6,16,6&,22626;:6267,&6611,,;<6666::2666'",
":&11<11:$>21,3:1&>11,61;>1164,;,111,;&66626,;6666'",
";$>:111:&>111:,1&>1111:&>,6<2:;,11>1&&<2136::3366'",
";&>1111:#;1:>:>>$>11,,>&>3311:$>>,:>&&1,13,>;3111'",
"&#;;1>>;#&1>>>:>#;::1:>&>,:,,:@>>,,;;&1,,,,>;1111'",
"&#;>>>>&#&>>>&>>#&>>>>;&;>,>>;%>>3;;&$:,,,3;&,3,,'",
"&#&;&>&>#&>;&>;&$&;;>;;&;>>;;3$&&;;;&&>:>,>>&,,3:'",
"&O&;>&%%#$&;&&&;#%;&;&&#&>;;;&%&&;&&&#>>>>;&&>,,,'",
"#+%&&&&%+$&&%&&&X%&&=&&#&&&;&%+&&&&&##&>;>>&#;>>>'",
"#+$%$&$%X#%%%%$#X$%%$&$#&%&&&&+%&%$%#$&&&;&&$&>>>'",
"OX$$##@$X#%$$$$$X+$$$$$+%%$@%%X#$%+%++%%&;&%+&&&&'",
"+X+#$##+X+%+@$##X+@$###+@$@%%+X%+#+%X+%%%&&#+$;&&'",
"X.++++++X+#+XX++XX+#+#+X##$$+XX+#X++X+$$#%%#X&&&&'",
"XXXXXXXXX.++XX#XXX+++++X#+#+#..+X++XXX##+$@+X$#&$'",
"XXX###X#.XX++XXX.X+XXXX.X++#+X.++X+X.X++++#+X+###'",
"  XXXXXX.X++#X#X ++++X+XX++++XX+XXX+.X+####+X##$#'",
". XXXXXX..+XXXXX .X++XXXXXX++ .XXXXXX.X+X++XX+###'",
" .XXXXXX XXXXXXX .XXXXXXXX#Xo..XXX + XXX+XXXXX#+O'",
". ..XXXX XXX XXX.XX.X+  XXXXX...XX XX XXXX+X.X+++'",
"..X.XXX  XXX X X  ..XX  .XXXX. . XXX. XXX+XXXX+++'",
"   . X X  XXX  X  ..XX...XXXo. .X X  XX+XXXXXXX++'",
" ....X .  X...... . X.. ...XX. .X XX ..XXXX..X+XX'",
"    ....  ..   .  ....  ..X.. . X      .X.....XoX'"
};
