/* XPM */
static char *result[] = {
/* columns rows colors chars-per-pixel */
"50 50 208 2 ",
"   c #010101",
".  c #090703",
"X  c #0B0A0A",
"o  c #070709",
"O  c #150F00",
"+  c #161000",
"@  c #1C1300",
"#  c #121212",
"$  c #1C1C1C",
"%  c #18181A",
"&  c #221400",
"*  c #241B03",
"=  c #271E12",
"-  c #332300",
";  c #3A2401",
":  c #3F2C01",
">  c #2E231C",
",  c #392918",
"<  c #3B301C",
"1  c #1B2325",
"2  c #242323",
"3  c #2C2A2A",
"4  c #2D2824",
"5  c #332921",
"6  c #3C3627",
"7  c #292A34",
"8  c #2B3338",
"9  c #333333",
"0  c #3C3C3C",
"q  c #363E3F",
"w  c #462C00",
"e  c #472903",
"r  c #522E00",
"t  c #463200",
"y  c #4D3400",
"u  c #533600",
"i  c #5E3908",
"p  c #472A1E",
"a  c #643D01",
"s  c #6F3F00",
"d  c #492F23",
"f  c #46352B",
"g  c #443E3A",
"h  c #674001",
"j  c #754300",
"k  c #7A4806",
"l  c #484139",
"z  c #51433A",
"x  c #664837",
"c  c #784D37",
"v  c #1D294B",
"b  c #293048",
"n  c #202D50",
"m  c #1A3674",
"M  c #263E70",
"N  c #3C4D53",
"B  c #2D467D",
"V  c #434342",
"C  c #4C4C4C",
"Z  c #424A4A",
"A  c #484857",
"S  c #535353",
"D  c #595C5E",
"F  c #575048",
"G  c #6D4E40",
"H  c #645B4A",
"J  c #785D50",
"K  c #756659",
"L  c #6D6458",
"P  c #4B5C60",
"I  c #5D5F61",
"U  c #6F5E6C",
"Y  c #566C73",
"T  c #4E646B",
"R  c #636364",
"E  c #66686A",
"W  c #6D6D6D",
"Q  c #7A6E65",
"!  c #70706D",
"~  c #7B736B",
"^  c #7E7664",
"/  c #6A7171",
"(  c #727372",
")  c #7C7C7C",
"_  c #787474",
"`  c #626771",
"'  c #834D07",
"]  c #865109",
"[  c #8C550B",
"{  c #93580D",
"}  c #9F6214",
"|  c #A36515",
" . c #A86919",
".. c #B26F1C",
"X. c #884D2D",
"o. c #884C38",
"O. c #BB7722",
"+. c #9A6048",
"@. c #956E5A",
"#. c #A76446",
"$. c #817A6F",
"%. c #997866",
"&. c #807C7C",
"*. c #9B8779",
"=. c #928B7D",
"-. c #B58F76",
";. c #BD967A",
":. c #BE9879",
">. c #B3856D",
",. c #CA8A68",
"<. c #C19D7E",
"1. c #ED9165",
"2. c #EEA277",
"3. c #253F87",
"4. c #25459A",
"5. c #2C50A2",
"6. c #3769D8",
"7. c #748D94",
"8. c #739199",
"9. c #848383",
"0. c #8A8888",
"q. c #948E8D",
"w. c #8F9191",
"e. c #949494",
"r. c #999796",
"t. c #96968F",
"y. c #A3998A",
"u. c #A59D9B",
"i. c #B49B88",
"p. c #AFAA9D",
"a. c #8D8EA9",
"s. c #9C9DA0",
"d. c #9292B6",
"f. c #85AAB6",
"g. c #9AACAD",
"h. c #A6A4A4",
"j. c #AAAAAA",
"k. c #ADAAA2",
"l. c #B6ADA9",
"z. c #BAB9B7",
"x. c #B2B6B0",
"c. c #CEA384",
"v. c #DBAA8D",
"b. c #D6AF91",
"n. c #DEB89C",
"m. c #FFAB83",
"M. c #FFB08A",
"N. c #EEBD9D",
"B. c #F2BE9A",
"V. c #E6AE88",
"C. c #C6BDAD",
"Z. c #C3BDBC",
"A. c #CDBAB6",
"S. c #E6BDA3",
"D. c #F7C19A",
"F. c #C4C2BC",
"G. c #DEC0B0",
"H. c #D7C4AB",
"J. c #FEC7A3",
"K. c #F7C9A9",
"L. c #EFCEB9",
"P. c #FED5B4",
"I. c #FBD8B6",
"U. c #EECFAF",
"Y. c #FFE0BF",
"T. c #95BBC6",
"R. c #D3BFC2",
"E. c #9DC5D0",
"W. c #B3CDCD",
"Q. c #ADDDEA",
"!. c #B0E1EF",
"~. c #BEECF7",
"^. c #C4C3C3",
"/. c #C8C6C3",
"(. c #DED6C6",
"). c #C7D8D6",
"_. c #C8D8D7",
"`. c #DCDCDC",
"'. c #D4D4D5",
"]. c #D4CFC5",
"[. c #FBDFC6",
"{. c #EDDFD6",
"}. c #FFECCD",
"|. c #FAE2C3",
" X c #FFECD2",
".X c #F5EBDB",
"XX c #FBE7D7",
"oX c #FFF3DB",
"OX c #FFF1D5",
"+X c #EAE3D5",
"@X c #DDFBFE",
"#X c #CBF5FC",
"$X c #E3E3E3",
"%X c #EDEEEE",
"&X c #E9E8E5",
"*X c #FDF5E2",
"=X c #FFF9E3",
"-X c #F3F2EA",
";X c #FFFDEC",
":X c #E9FEFF",
">X c LightCyan",
",X c #F5F4F3",
"<X c #F9F7F4",
"1X c #FCFBF5",
"2X c #F3FFFF",
"3X c #FEFFFE",
"4X c #F4F1FD",
"5X c None",
/* pixels */
"5X5X5X5X5X5X5X5X5X5X5X5X5X5X5X5X5X5X5X5X5X5X5X5X5X5X5X5X5X5X5X5X5X5X5X5X5X5X5X5X5X5X5X5X5X5X5X5X5X5X",
"5X5X5X5X5X5X5X5X5X5X5X5X5X5X5X5X5X5X5X5X5X5X5X5X5X5X5X5X5X5X5X5X5X5X5X5X5X5X5X5X5X5X5X5X5X5X5X5X5X5X",
"5X5X5X5X5X5X5X5X5X5X5X5X5X5X5X5X5X5X5X5X5X5X5X5X5X5X5X5X5X5X5X5X5X5X5X5X5X5X5X5X5X5X5X5X5X5X5X5X5X5X",
"5X5X5X5X5X5X5X5X5X5X5X5X5X5X5X5X5X5X5X5X5X5X5X5X5X5X5X5X5X5X5X5X5X5X5X5X5X5X5X5X5X5X5X5X5X5X5X5X5X5X",
"5X5X5X5X5X5X5X5X5X5X5X5X5X5X5X5X5X5X5X5X5X5X5X5X5X5X5X5X5X5X5X5X5X5X5X5X5X5X5X5X5X5X5X5X5X5X5X5X5X5X",
"5X5X5X5X5X5X5X5X5X5X5X5X5X5X5X5X5X5X5X5X        5X5X      o   5X5X5X5X5X5X5X5X5X5X5X5X5X5X5X5X5X5X5X",
"5X5X5X5X5X5X5X5X5X5X5X5X5X5X5X5X5X5X# C S 0 4 o           # % o   5X5X5X5X5X5X5X5X5X5X5X5X5X5X5X5X5X",
"5X5X5X5X5X5X5X5X5X5X5X5X5X5X5X5X5X2 D e._ N # . X o     $ > 0 S S 3   5X5X5X5X5X5X5X5X5X5X5X5X5X5X5X",
"5X5X5X5X5X5X5X5X5X5X5X5X5X5X5X5XX S C R V o o   9 S 9 2 S C C E E V o   5X5X5X5X5X5X5X5X5X5X5X5X5X5X",
"5X5X5X5X5X5X5X5X5X5X5X5X5X5X5X5X% $ $ % $ ( u.$   2 S E I 9 # > 3 $     5X5X5X5X5X5X5X5X5X5X5X5X5X5X",
"5X5X5X5X5X5X5X5X5X5X5X5X5X5X5X  .     2 l.3X3Xz.$ % # C V $ o   o X       5X5X5X5X5X5X5X5X5X5X5X5X5X",
"5X5X5X5X5X5X5X5X5X5X5X5X5X5X    % V 2 Z.3X3X3X3X&.0.4 . $ o o     o       5X5X5X5X5X5X5X5X5X5X5X5X5X",
"5X5X5X5X5X5X5X5X5X5X5X5X5X5X    W 9 r.3X3X3X3X3X/._ Z.3 o                 5X5X5X5X5X5X5X5X5X5X5X5X5X",
"5X5X5X5X5X5X5X5X5X5X5X5X5X5X  X r.R $X3X3X3X3X3X$Xu.3X9.o       o X o X   5X5X5X5X5X5X5X5X5X5X5X5X5X",
"5X5X5X5X5X5X5X5X5X5X5X5X5X5X  V %XZ.3X3X3X3X3X3X3X,X3X$X4 % C . 4 9 9 2   5X5X5X5X5X5X5X5X5X5X5X5X5X",
"5X5X5X5X5X5X5X5X5X5X5X5X5X5X  j.3X,X3X3X3X3X3X3X3X3X3X<Xu.V F.~ W D D 2 5X5X5X5X5X5X5X5X5X5X5X5X5X5X",
"5X5X5X5X5X5X5X5X5X5X5X5X5X5X5Xj._ 9 w.$X3X3X3X3X3X`.j.I 2 # 2 $.r.) ! 3 5X5X5X5X5X5X5X5X5X5X5X5X5X5X",
"5X5X5X5X5X5X5X5X5X5X5X5X5X5X5Xy.z     9 F.3X3X&X! 2         # L l.0.( 2 5X5X5X5X5X5X5X5X5X5X5X5X5X5X",
"5X5X5X5X5X5X5X5X5X5X5X5X5X5XC *.@.7 S # g  X*X^   o V 9 o X 6 H.L.i.~ q.( 5X5X5X5X5X5X5X5X5X5X5X5X5X",
"5X5X5X5X5X5X5X5X5X5X5X5X5X5XR Q /.a.W 7 Q J.}.c.o.U j.R A d.A %.P.[.y.v.{.Z 5X5X5X5X5X5X5X5X5X5X5X5X",
"5X5X5X5X5X5X5X5X5X5X5X5X5X5XW l.k.j.X % A.I.}.P.M.q.9 1 I 2X4X[.}..Xx +..XC 5X5X5X5X5X5X5X5X5X5X5X5X",
"5X5X5X5X5X5X5X5X5X5X5X5X5X5XC j.e.R.8 Z ].=X=XoX Xj.7 P / 3X3X X}.C.u.XXZ.5X5X5X5X5X5X5X5X5X5X5X5X5X",
"5X5X5X5X5X5X5X5X5X5X5X5X5X5X5Xw.9.'.w.r.<X3X3X3X1X<Xs./ R.1X;X}.P.L.XXK.K 5X5X5X5X5X5X5X5X5X5X5X5X5X",
"5X5X5X5X5X5X5X5X5X5X5X5X5X5X5X5X9 '.j.) %X3X3X3X3X3X$X) ( =.|.N.>.+.#.p 5X5X5X5X5X5X5X5X5X5X5X5X5X5X",
"5X5X5X5X5X5X5X5X5X5X5X5X5X5X5X5X5Xr.-X<X3X<X$X;X3X3X1X X|.U.v.J 5X5X5X5X5X5X5X5X5X5X5X5X5X5X5X5X5X5X",
"5X5X5X5X5X5X5X5X5X5X5X5X5X5X5X5X5X5X$.C.*X.X=.+X=X}.I.K.b.@., 5X5X5X5X5X5X5X5X5X5X5X5X5X5X5X5X5X5X5X",
"5X5X5X5X5X5X5X5X5X5X5X5X5X5X5X5X5X5X5X5XL :.:.i.:.-.K C 4 5X5X5X5X5X5X5X5X5X5X5X5X5X5X5X5X5X5X5X5X5X",
"5X5X5X5X5X5X5X5X5X5X5X5X5X5X5X5X5X5X5X5X5X5XX N 7.8.E.f.Y 1 5X5X5X5X5X5X5X5X5X5X5X5X5X5X5X5X5X5X5X5X",
"5X5X5X5X5X5X5X5X5X5X5X5X5X5X5X5X5X5X5X5X5X5X/ x.:X:X@X#XQ.E.N 5X5X5X5X5X5X5X5X5X5X5X5X5X5X5X5X5X5X5X",
"5X5X5X5X5X5X5X5X5X5X5X5X5X5X5X5X5X5X5X5X5X2 _ ^.3X3X3X>XT.g.8.5X5X5X5X5X5X5X5X5X5X5X5X5X5X5X5X5X5X5X",
"5X5X5X5X5X5X5X5X5X5X5X5X5X5X5X5X5X5X5X5X5X  W 3X3X3X3X:XQ.T 7.c 5X5X5X5X5X5X5X5X5X5X5X5X5X5X5X5X5X5X",
"5X5X5X5X5X5X5X5X5X5X5X5X5X5X5X5X5X5X5X5X5X# h.2X3X3X3X:X!.P k.b.d 5X5X5X5X5X5X5X5X5X5X5X5X5X5X5X5X5X",
"5X5X5X5X5X5X5X5X5X5X5X5X5X5X5X5X5X5X5X5X5Xg &X3X:X2X2X@X#X8.j. XG 5X5X5X5X5X5X5X5X5X5X5X5X5X5X5X5X5X",
"5X5X5X5X5X5X5X5X5X5X5X5X5X5X5X5X5X5X5X5Xp.K W._._._.W.W.f.Y *.oX-.5X5X5X5X5X5X5X5X5X5X5X5X5X5X5X5X5X",
"5X5X5X5X5X5X5X5X5X5X5X5X5X5X5X5X5X5X5Xz.3XR M M v B 4.8 E -X-X;Xn., ; + 5X5X5X5X5X5X5X5X5X5X5X5X5X5X",
"5X5X5X5X5X5X5X5X5X5X5X5X5X5X5X5X5X5XZ %X;X` 6.6.4.3.5.m E ;X;XoXJ.X.- O 5X5X5X5X5X5X5X5X5X5X5X5X5X5X",
"5X5X5X5X5X5X5X5X5X5X5X5X5X5X5X5X5X5X= H H 5 b b 7 e r w x U.OXY.m.X.5X5X5X5X5X5X5X5X5X5X5X5X5X5X5X5X",
"5X5X5X5X5X5X5X5X5X5X5X5X5X5X5X; : i ' ' k ] [ j h j a w @ -.D.2.#.5X5X5X5X5X5X5X5X5X5X5X5X5X5X5X5X5X",
"5X5X5X5X5X5X5X5X5X5X5X5X5X& a  ...| } } ] { k y u : , H < 4 f d 5X5X5X5X5X5X5X5X5X5X5X5X5X5X5X5X5X5X",
"5X5X5X5X5X5X5X5X5X5X5X5X@ k  .O. .] j j h u : f < o C *X;.5X5X5X5X5X5X5X5X5X5X5X5X5X5X5X5X5X5X5X5X5X",
"5X5X5X5X5X5X5X5X5X5X5X5X* k ] [ ] h u t * + # z.U.c 9 /.K.x 5X5X5X5X5X5X5X5X5X5X5X5X5X5X5X5X5X5X5X5X",
"5X5X5X5X5X5X5X5X5X5X5X5XO - t e - - @ . 5X5XC `. X#.5Xr.oX,.5X5X5X5X5X5X5X5X5X5X5X5X5X5X5X5X5X5X5X5X",
"5X5X5X5X5X5X5X5X5X5X5X5X5X5X@ + 5X5X5X5XS C R &X[.@.V ! XXB.c 5X5X5X5X5X5X5X5X5X5X5X5X5X5X5X5X5X5X5X",
"5X5X5X5X5X5X5X5X5X5X5X5X5X5X5X5X5X5X5X9.$X(.G.S.,.$.(.n.V.1.o.5X5X5X5X5X5X5X5X5X5X5X5X5X5X5X5X5X5X5X",
"5X5X5X5X5X5X5X5X5X5X5X5X5X5X5X5X5X5X5X5XV g f d p 4 g d d , 5X5X5X5X5X5X5X5X5X5X5X5X5X5X5X5X5X5X5X5X",
"5X5X5X5X5X5X5X5X5X5X5X5X5X5X5X5X5X5X5X5X5X5X5X5X5X5X5X5X5X5X5X5X5X5X5X5X5X5X5X5X5X5X5X5X5X5X5X5X5X5X",
"5X5X5X5X5X5X5X5X5X5X5X5X5X5X5X5X5X5X5X5X5X5X5X5X5X5X5X5X5X5X5X5X5X5X5X5X5X5X5X5X5X5X5X5X5X5X5X5X5X5X",
"5X5X5X5X5X5X5X5X5X5X5X5X5X5X5X5X5X5X5X5X5X5X5X5X5X5X5X5X5X5X5X5X5X5X5X5X5X5X5X5X5X5X5X5X5X5X5X5X5X5X",
"5X5X5X5X5X5X5X5X5X5X5X5X5X5X5X5X5X5X5X5X5X5X5X5X5X5X5X5X5X5X5X5X5X5X5X5X5X5X5X5X5X5X5X5X5X5X5X5X5X5X",
"5X5X5X5X5X5X5X5X5X5X5X5X5X5X5X5X5X5X5X5X5X5X5X5X5X5X5X5X5X5X5X5X5X5X5X5X5X5X5X5X5X5X5X5X5X5X5X5X5X5X"
};
