/* XPM */
static char *result[] = {
/* columns rows colors chars-per-pixel */
"50 50 178 2 ",
"   c #060606",
".  c #0E0D0C",
"X  c #131313",
"o  c #1E1E1E",
"O  c #26211C",
"+  c #332211",
"@  c #3C2B1A",
"#  c #242424",
"$  c #292824",
"%  c #2B2B2B",
"&  c #362C21",
"*  c #382D22",
"=  c #322E29",
"-  c #353320",
";  c #3C3322",
":  c #393825",
">  c #32312D",
",  c #313131",
"<  c #393932",
"1  c #3D3D3D",
"2  c #403520",
"3  c #40352A",
"4  c #46392D",
"5  c #493C28",
"6  c #4A4139",
"7  c #564533",
"8  c #584734",
"9  c #564C34",
"0  c #5A4B34",
"q  c #5D4C3B",
"w  c #575133",
"e  c #5B5335",
"r  c #5D523A",
"t  c #604F36",
"y  c #635435",
"u  c #64543C",
"i  c #434343",
"p  c gray29",
"a  c #595042",
"s  c #5B554A",
"d  c #555555",
"f  c #5E5954",
"g  c #5C5C5C",
"h  c #655441",
"j  c #655C45",
"k  c #6A5947",
"l  c #60564A",
"z  c #695C4B",
"x  c #735946",
"c  c #675E56",
"v  c #6D6247",
"b  c #73624A",
"n  c #686657",
"m  c #6B635A",
"M  c #736554",
"N  c #7B6654",
"B  c #706857",
"V  c #7A6A53",
"C  c #7C6D5B",
"Z  c #7C725B",
"A  c #656565",
"S  c gray42",
"D  c #7E6D60",
"F  c #757064",
"G  c #7E7262",
"H  c #737373",
"J  c #7D7D74",
"K  c #7C7C7C",
"L  c #806F5D",
"P  c #857A5F",
"I  c #827665",
"U  c #897663",
"Y  c #837965",
"T  c #8C7D64",
"R  c #84766A",
"E  c #867B6A",
"W  c #8A7B6B",
"Q  c #8D7D72",
"!  c #8C7E7A",
"~  c #888066",
"^  c #8B826B",
"/  c #908569",
"(  c #838071",
")  c #898372",
"_  c #8E8976",
"`  c #87877C",
"'  c #8A847B",
"]  c #8F8978",
"[  c #928272",
"{  c #938977",
"}  c #9B8B76",
"|  c #93867B",
" . c #958B7C",
".. c #9A8F7D",
"X. c #96947D",
"o. c #9B927C",
"O. c #A1937D",
"+. c #818181",
"@. c #8A8480",
"#. c #8A8A80",
"$. c gray54",
"%. c #9E8D86",
"&. c #928C88",
"*. c #949185",
"=. c #9C9485",
"-. c #9D9985",
";. c #97958C",
":. c #9E9189",
">. c #9D9A88",
",. c #969696",
"<. c #9A9A9A",
"1. c #A49786",
"2. c #A19B85",
"3. c #A1928D",
"4. c #A49D8B",
"5. c #A49491",
"6. c #A59B91",
"7. c #AA9D93",
"8. c #AE9F99",
"9. c #B39D90",
"0. c #A4A18E",
"q. c #A9A28D",
"w. c #A5A292",
"e. c #ABA292",
"r. c #A6A39C",
"t. c #ADA29A",
"y. c #ADAB9B",
"u. c #B3A395",
"i. c #B2A39C",
"p. c #B2AD9D",
"a. c #BBAE9F",
"s. c #B2B09E",
"d. c gray63",
"f. c #ABABAB",
"g. c #B5A6A3",
"h. c #B4ABA3",
"j. c #BBADA4",
"k. c #BBADA9",
"l. c #B4B3A2",
"z. c #BAB5A4",
"x. c #B8B8A7",
"c. c #BCB4AA",
"v. c #BCBAAB",
"b. c #B2B2B2",
"n. c #BCBCBC",
"m. c #C6B5A4",
"M. c #C1B4AE",
"N. c #C3BBAC",
"B. c #C9BBAC",
"V. c #C8B7B4",
"C. c #C4BBB3",
"Z. c #C9BBB1",
"A. c #C5BDB8",
"S. c #CCBDB9",
"D. c #CBC3B4",
"F. c #CCC3BA",
"G. c #CCCBBB",
"H. c #D0CEBF",
"J. c #CCCCC3",
"K. c #CACACA",
"L. c #D4CEC6",
"P. c #D8CAC0",
"I. c #D8C8C6",
"U. c #D4D4C3",
"Y. c #D9D4C7",
"T. c #D3D2CA",
"R. c #DBD4CC",
"E. c #D8D8C8",
"W. c #D2D2D2",
"Q. c #DCD4D1",
"!. c #DCDAD6",
"~. c #DADADA",
"^. c #E4D4D2",
"/. c #E3DEDB",
"(. c #E4E4E4",
"). c #EDEDED",
"_. c #F6F6F6",
"`. c #FEFEFE",
/* pixels */
", , , , , , , , , , , , , , , , , , , , , , , , , , , , , , , , , , , , , , , , , , , , , , , , , , ",
", , , , , , , , , , , , , , , , , , , , , , , , , , , , , , , , , , , , , , , , , , , , , , , , , , ",
", , , , , , , , , , , , , , , , , , , , , , , , , , , , , , , % , , , , , , , , , , , , , , , , , , ",
", , , , , , , , , , , , , , , , , , , , , , , , , , , , , , , , , , , , , , , , , , , , , , , , , , ",
", , , , , , , , , , , , , , , , , , , , , , , , , , , , , , , , , , , , , , , , , , , , , , , , , , ",
", , , , , , , , , , , , , , , , , , , , , , , , , , , , , , , , , , , , , , , , , , , , , , , , , , ",
", , , , , , , , , , , , , , , , , , , , , , , , , , , , , , , , , , , , , , , , , , , , , , , , , , ",
", , , , , , , , , , , , , , , , , , , , , , , , , , , , , , , , , , , , , , , , , , , , , , , , , , ",
", , , , , , , , , , , , , , , , , , , # o o o o o o o o o o o o % , , , , , , , , , , , , , , , , , ",
", , , , , , , , , , , , , , , , , , o J #.@.@.#.@.` ` F l l s s = = , , , , , , , , , , , , , , , , ",
", , , , , , , , , , , , , , , , % % ;.C.M.M.c.M.N.c.M.I.u.{ } ] ( $ , , , , , , , , , , , , , , , , ",
", , , , , , , , , , , , , , , , < &.N.=.W E E W E Q %.M.P.u.| _ [ ) $ # , , , , , , , , , , , , , , ",
", , , , , , , , , , , , , , , X <.z. .j.D.s./ 8.C.C.c.q.m.I.8.W R ) E < # , , , , , , , , , , , , , ",
", , , , , , , , , , , , , , ,   j.E M.v.y.] k E h.c.N.M.y.S.q.u q q a : o , , , , , , , , , > , , , ",
", , , , , , , , , , , , , , ,   i.W Z.k.v x V b Y p.v.Z.^.D.1.e 9 7 r * o , , , , , , , , , , , , , ",
", , , , , , , , , , , , , , ,   i.E v.x.=.E b Y O.k.C.Z.^.G.2.0 9 7 w & o , , , , , , , , , , , , , ",
", , , , , , , , , , , , , , , X ! E p.7.v.=.C 2.B.B.S.F.E.F.4.y w r e : o , , , , , , , , , , , , , ",
", , , , , , , , , , , , , , , , . a q.1.k.%.V =.Z.S.S.D.E.G.%.0 0 u u 3 o , , , , , , , , , , , , , ",
", , , , , , , , , , , , , , , X <.Q V.N.h.e.-.p.S.S.D.G.E.G.=.r h h h & o , , , , , , , , , , , , , ",
", , , , , , , , , , , , , , ,   w.R 3.*.-.=.=.-.=.-.-.j.Y.G.0.q 7 h q & o , , , , , , , , , , , , , ",
", , , , , , , , , , , , , , ,   6.Y ) B T Z W ~ G E R t.^.F.0.r q u 8 ; o , , , , , , , , , , , , , ",
", , , , , , , , , , , , , , ,   w.G o.L I V E R V z C 4.Y.S.4.r q 8 7 - o , , , , , , , , , , , , , ",
", , , , , , , , , , , , , , ,   6.G >._ '  .:.y.y.l.M.V.^.i.j 0 y h w * o = , , , , , , , , , , , , ",
", , , , , , , , , , , , , , ,   w.R >.^ [ W :.y.s.v.V.C.i.5 + @ z t q * o , , , , , , , , , , , , , ",
", , , , , , , , , , , , , , ,   w.E 1.C M V V D R v.N.v.H.G.!.r.v w 9 3 o , , , , , , , , , , , , , ",
", , , , , , , , , , , , , , ,   i.E k.p.r.y.y.y.s.v.v.v.U.v.y.n y 7 0 ; o , , , , , , , , , , , , , ",
", , , , , , , , , , , , , , ,   u.E  .^ U W ^ q.x.v.v.v.R.j.} t y t y - o , , , , , , , , , , , , , ",
", , , , , , , , , , , , , , ,   e.I h.e.w.>.{ *.5.6.6.s.Y.k.| 8 t 0 u ; o , , , , , , , , , , , , , ",
", , , , , , , , , , , , , , , X 7 V a.v.v.t.P T Z N Z =.R.j.o.u h 9 y 2 o , , , , , , , , , , , , , ",
", , , , , , , , , , , , , , , , o 4 9.B.v.c.z.h.@.Z G 1.I.c.O.y h y u ; o , , , , , , , , , , , , , ",
", , , , , , , , , , , , , , , $ > O =.B.z.c.C.v.z.e.7.s.T.c.X.u u u 5 X # , , , , , , , , , , , , , ",
", , , , , , , , , , , , , , >   p.E -.0.} l.x.4.y.v.v.v.U.v...0 q 0 4 X , , , , , , , , , , , , , , ",
", , , , , , , , , , , , , , ,   i.Y U ! C r.g.W w.B.v.v.R.v.=.9 0 w j 6 # , , , , , , , , , , , , , ",
", , , , , , , , , , , , # # #   i.E { 3.T 3.| | h.N.v.B.^.N.4.r y 0 0 ; X # # % , , , , , , , , , , ",
", , , , , , , , , , , % +.+.K +.T.A.~.Q.R.Q.L.T.T.L.L.J./.;.' c m n n f i p d 1 # , , , , , , , , , ",
", , % , , , , , , , X b.`.`.`.`.`._.).(.(.(.).).).(.(.(.(.A A S H S +.$.$.$.d.$.p # , , , , , , , , ",
", , , , , , , , , X n._._._._._.(.(.~.~.~.(.~.~.~.~.~.~.~.A S A g S H H +.K +.$.,.% % , , , , , , , ",
", , , , , , , , , X n.~.d.d.d.<.<.<.,.<.<.<.,.<.<.<.f.K.K.d d d d d d d A A A A S o % , , , , , , , ",
", , , , , , , , , X n.W.K b.b.b.b.b.b.f.b.b.b.b.d.f.f.K.W.g d d d d g d g A A A H # % , , , , , , , ",
", , , , , , , , % X H +.p $.$.$.K +.+.K +.K K K K K H +.,.i , < < < 1 , 1 i i i i X % , , , , , , , ",
", , , , , , , , , # o o o # o o o o o o # o o o o o o o o o o o # o o o o o o o o o , , , , , , , , ",
", , , , , , , , , , , , , , , , , , , , , , , , , , , , , , , , , , , , , , , , , , , , , , , , , , ",
", , , , , , , , , , , , , , , , , , , , , , , , , , , , , , , , , , , , , , , , , , , , , , , , , , ",
", , , , , , , , , , , , , , , , , , , , , , , , , , , , , , , , , , , , , , , , , , , , , , , , , , ",
", , , , , , , , , , , , , , , , , , , , , , , , , , , , , , , , , , , , , , , , , , , , , , , , , , ",
", , , , , , , , , , , , , , , , , , , , , , , , , , , , , , , , , , , , , , , , , , , , , , , , , , ",
", , , , , , , , , , , , , , , , , , , , , , , , , , , , , , , , , , , , , , , , , , , , , , , , , , ",
", , , , , , , , , , , , , , , , , , , , , , , , , , , , , , , , , , , , , , , , , , , , , , , , , , ",
", , , , , , , , , , , , , , , , , , , , , , , , , , , , , , , , , , , , , , , , , , , , , , , , , , ",
", , , , , , , , , , , , , , , , , , , , , , , , , , , , , , , , , , , , , , , , , , , , , , , , , , "
};
